<?xml version="1.0" standalone="no"?>
<!DOCTYPE svg PUBLIC "-//W3C//DTD SVG 1.1//EN" "http://www.w3.org/Graphics/SVG/1.1/DTD/svg11.dtd" >
<svg xmlns="http://www.w3.org/2000/svg">
    <defs>
        <font id="Aileron-Regular">
            <font-face font-family="Aileron-Regular"
                       units-per-em="1000"
                       ascent="970"
                       descent="-230"
                       bbox="-150 -223 1062 895"
                    />
            <missing-glyph horiz-adv-x="0" />
            
            <glyph glyph-name="!" unicode="&#x21;" horiz-adv-x="185" d=" M160,180 L82,180 L70,690 L172,690 M93,114 Q149,114 167,96 Q185,78 185,50 Q185,22 167,4 Q149,-14 121,-14 Q93,-14 75,4 Q57,22 57,50 Q57,78 93,114"/> 
            <glyph glyph-name="&quot;" unicode="&#x22;" horiz-adv-x="316" d=" M166,485 L96,485 L86,735 L176,735 M306,485 L236,485 L226,735 L316,735"/> 
            <glyph glyph-name="#" unicode="&#x23;" horiz-adv-x="510" d=" M408,415 L379,275 L480,275 L480,219 L367,219 L320,0 L262,0 L309,219 L218,219 L171,0 L113,0 L160,219 L70,219 L70,275 L172,275 L201,415 L100,415 L100,471 L213,471 L260,690 L318,690 L271,471 L362,471 L409,690 L467,690 L420,471 L510,471 L510,415 M351,415 L260,415 L230,275 L321,275"/> 
            <glyph glyph-name="$" unicode="&#x24;" horiz-adv-x="526" d=" M526,181 Q526,100 469.5,48.5 Q413,-3 325,-12 L325,-90 L267,-90 L267,-13 Q171,-7 114,46 Q57,99 53,186 L145,186 Q152,132 183,98 Q214,64 267,56 L267,312 Q173,338 125.5,383.5 Q78,429 78,511 Q78,593 130,643 Q182,693 267,702 L267,780 L325,780 L325,703 Q410,696 459.5,642.5 Q509,589 519,509 L427,509 Q416,620 325,634 L325,396 Q434,361 480,310.5 Q526,260 526,181 M170,524 Q170,475 192.5,448 Q215,421 267,405 L267,634 Q221,626 195.5,598 Q170,570 170,524 M325,301 L325,55 Q376,61 405,90 Q434,119 434,171 Q434,265 325,301"/> 
            <glyph glyph-name="%" unicode="&#x25;" horiz-adv-x="699" d=" M121,700 Q257,700 297,657 Q337,614 337,541 Q337,468 297,425 Q257,382 189,382 Q121,382 81,425 Q41,468 41,541 Q41,614 121,700 M190,0 L103,0 L551,690 L638,690 M218,640 Q160,640 142.5,614.5 Q125,589 125,541 Q125,494 142.5,468 Q160,442 189,442 Q218,442 235.5,468 Q253,494 253,541 Q253,589 218,640 M483,304 Q619,304 659,261 Q699,218 699,145 Q699,72 659,29 Q619,-14 551,-14 Q483,-14 443,29 Q403,72 403,145 Q403,218 483,304 M580,244 Q522,244 504.5,218.5 Q487,193 487,145 Q487,98 504.5,72 Q522,46 551,46 Q580,46 597.5,72 Q615,98 615,145 Q615,193 580,244"/> 
            <glyph glyph-name="&amp;" unicode="&#x26;" horiz-adv-x="622" d=" M622,385 L622,315 L526,315 L526,7 Q434,-14 337,-14 Q206,-14 135,28 Q64,70 64,173 Q64,237 107,287 Q150,337 222,352 Q163,366 127.5,406.5 Q92,447 92,506 Q92,594 160,649 Q228,704 336,704 Q402,704 456,694 L456,625 Q400,636 333,636 Q265,636 226.5,602.5 Q188,569 188,511 Q188,445 222,417 Q256,389 318,386 Q336,385 380,385 L440,385 L440,497 L526,497 L526,385 M160,186 Q160,115 202,84.5 Q244,54 339,54 Q396,54 440,63 L440,315 L380,315 Q339,315 319,313 Q237,306 198.5,271.5 Q160,237 160,186"/> 
            <glyph glyph-name="'" unicode="&#x27;" horiz-adv-x="133" d=" M123,485 L53,485 L43,735 L133,735"/> 
            <glyph glyph-name="(" unicode="&#x28;" horiz-adv-x="279" d=" M221,780 L279,780 Q162,582 162,350 Q162,118 279,-80 L221,-80 Q164,5 132,118.5 Q100,232 100,350 Q100,468 132,581.5 Q164,695 221,780"/> 
            <glyph glyph-name=")" unicode="&#x29;" horiz-adv-x="209" d=" M30,780 L88,780 Q145,695 177,581.5 Q209,468 209,350 Q209,232 177,118.5 Q145,5 88,-80 L30,-80 Q147,118 147,350 Q147,582 30,780"/> 
            <glyph glyph-name="*" unicode="&#x2A;" horiz-adv-x="475" d=" M301,296 L456,357 L475,298 L316,257 L429,119 L379,82 L280,235 L181,82 L131,119 L244,257 L85,298 L104,357 L259,296 L249,475 L311,475"/> 
            <glyph glyph-name="+" unicode="&#x2B;" horiz-adv-x="500" d=" M500,287 L319,287 L319,85 L261,85 L261,287 L80,287 L80,343 L261,343 L261,549 L319,549 L319,343 L500,343"/> 
            <glyph glyph-name="," unicode="&#x2C;" horiz-adv-x="140" d=" M140,90 L50,-120 L-31,-120 L47,100 L140,100"/> 
            <glyph glyph-name="-" unicode="&#x2D;" horiz-adv-x="242" d=" M242,255 L32,255 L32,311 L242,311"/> 
            <glyph glyph-name="." unicode="&#x2E;" horiz-adv-x="165" d=" M73,114 Q129,114 147,96 Q165,78 165,50 Q165,22 147,4 Q129,-14 101,-14 Q73,-14 55,4 Q37,22 37,50 Q37,78 73,114"/> 
            <glyph glyph-name="/" unicode="&#x2F;" horiz-adv-x="308" d=" M57,-30 L-5,-30 L246,720 L308,720"/> 
            <glyph glyph-name="0" unicode="&#x30;" horiz-adv-x="539" d=" M41,704 Q539,704 539,345 Q539,-14 290,-14 Q41,-14 41,704 M137,54 Q443,54 443,345 Q443,636 290,636 Q137,636 137,54"/> 
            <glyph glyph-name="1" unicode="&#x31;" horiz-adv-x="406" d=" M406,690 L406,0 L320,0 L320,599 L130,486 L130,577 L276,668 Q311,690 351,690"/> 
            <glyph glyph-name="2" unicode="&#x32;" horiz-adv-x="526" d=" M185,70 L523,70 L523,0 L60,0 L60,49 L310,304 Q376,372 403,414.5 Q430,457 430,504 Q430,561 397.5,598.5 Q365,636 306,636 Q180,636 164,484 L163,474 L77,474 L78,484 Q88,591 150,647.5 Q212,704 316,704 Q417,704 471.5,650 Q526,596 526,514 Q526,447 489,390.5 Q452,334 358,241"/> 
            <glyph glyph-name="3" unicode="&#x33;" horiz-adv-x="534" d=" M396,367 Q461,349 497.5,303.5 Q534,258 534,192 Q534,99 461,42.5 Q388,-14 284,-14 Q67,-14 46,194 L45,204 L131,204 L132,194 Q139,124 182.5,89 Q226,54 292,54 Q357,54 397.5,89.5 Q438,125 438,187 Q438,314 274,314 L257,314 L257,384 L274,384 Q338,384 380,420 Q422,456 422,519 Q422,571 388.5,603.5 Q355,636 300,636 Q243,636 204.5,601.5 Q166,567 159,501 L158,491 L72,491 L73,501 Q83,596 145,650 Q207,704 311,704 Q406,704 462,656 Q518,608 518,529 Q518,471 484.5,427 Q451,383 396,367"/> 
            <glyph glyph-name="4" unicode="&#x34;" horiz-adv-x="548" d=" M548,174 L461,174 L461,0 L375,0 L375,174 L33,174 L33,217 L375,690 L461,690 L461,244 L548,244 M375,244 L375,575 Q346,525 318,487 L142,244"/> 
            <glyph glyph-name="5" unicode="&#x35;" horiz-adv-x="537" d=" M307,455 Q418,455 477.5,391 Q537,327 537,224 Q537,115 464.5,50.5 Q392,-14 291,-14 Q78,-14 58,183 L57,193 L143,193 L145,183 Q171,54 290,54 Q359,54 400,97.5 Q441,141 441,218 Q441,296 402,341.5 Q363,387 294,387 Q197,387 150,289 L68,289 L116,690 L508,690 L508,620 L186,620 L155,380 L198,426 Q246,455 307,455"/> 
            <glyph glyph-name="6" unicode="&#x36;" horiz-adv-x="531" d=" M302,466 Q408,466 469.5,401.5 Q531,337 531,232 Q531,123 462,54.5 Q393,-14 287,-14 Q43,-14 43,312 Q43,509 118.5,606.5 Q194,704 310,704 Q399,704 457,653.5 Q515,603 523,518 L524,508 L432,508 L430,518 Q406,636 303,636 Q147,636 137,360 L176,422 Q229,466 302,466 M287,54 Q352,54 393.5,100.5 Q435,147 435,222 Q435,300 398.5,349 Q362,398 287,398 Q225,398 184,352.5 Q143,307 143,224 Q143,151 183,102.5 Q223,54 287,54"/> 
            <glyph glyph-name="7" unicode="&#x37;" horiz-adv-x="538" d=" M538,690 L538,650 L194,0 L102,0 L433,620 L50,620 L50,690"/> 
            <glyph glyph-name="8" unicode="&#x38;" horiz-adv-x="536" d=" M404,365 Q461,346 498.5,299.5 Q536,253 536,193 Q536,88 464,36.5 Q392,-15 290,-15 Q182,-15 113,36 Q44,87 44,193 Q44,253 83.5,299.5 Q123,346 181,364 Q133,383 103.5,423 Q74,463 74,518 Q74,603 134.5,653.5 Q195,704 296,704 Q397,704 457.5,653.5 Q518,603 518,518 Q518,463 486.5,423 Q455,383 404,365 M358,636 Q234,636 200.5,601.5 Q167,567 167,515 Q167,460 200,426 Q233,392 295,392 Q357,392 391,426 Q425,460 425,515 Q425,567 358,636 M292,53 Q365,53 402.5,90 Q440,127 440,189 Q440,247 403,285.5 Q366,324 291,324 Q215,324 177.5,285.5 Q140,247 140,189 Q140,128 179,90.5 Q218,53 292,53"/> 
            <glyph glyph-name="9" unicode="&#x39;" horiz-adv-x="537" d=" M293,704 Q537,704 537,378 Q537,181 461.5,83.5 Q386,-14 270,-14 Q181,-14 123,36.5 Q65,87 57,172 L56,182 L148,182 L150,172 Q174,54 277,54 Q433,54 443,330 L404,268 Q351,224 278,224 Q172,224 110.5,288.5 Q49,353 49,458 Q49,567 118,635.5 Q187,704 293,704 M293,292 Q355,292 396,337.5 Q437,383 437,466 Q437,539 397,587.5 Q357,636 293,636 Q228,636 186.5,589.5 Q145,543 145,468 Q145,390 181.5,341 Q218,292 293,292"/> 
            <glyph glyph-name=":" unicode="&#x3A;" horiz-adv-x="165" d=" M73,544 Q129,544 147,526 Q165,508 165,480 Q165,452 147,434 Q129,416 101,416 Q73,416 55,434 Q37,452 37,480 Q37,508 73,544 M73,114 Q129,114 147,96 Q165,78 165,50 Q165,22 147,4 Q129,-14 101,-14 Q73,-14 55,4 Q37,22 37,50 Q37,78 73,114"/> 
            <glyph glyph-name=";" unicode="&#x3B;" horiz-adv-x="165" d=" M73,544 Q129,544 147,526 Q165,508 165,480 Q165,452 147,434 Q129,416 101,416 Q73,416 55,434 Q37,452 37,480 Q37,508 73,544 M141,98 L51,-120 L-31,-120 L47,110 L141,110"/> 
            <glyph glyph-name="&lt;" unicode="&#x3C;" horiz-adv-x="504" d=" M504,432 L162,266 L504,100 L504,30 L103,231 L103,299 L504,500"/> 
            <glyph glyph-name="=" unicode="&#x3D;" horiz-adv-x="500" d=" M500,387 L80,387 L80,443 L500,443 M500,187 L80,187 L80,243 L500,243"/> 
            <glyph glyph-name="&gt;" unicode="&#x3E;" horiz-adv-x="469" d=" M469,299 L469,231 L68,30 L68,98 L410,264 L68,430 L68,500"/> 
            <glyph glyph-name="?" unicode="&#x3F;" horiz-adv-x="468" d=" M260,704 Q358,704 413,652.5 Q468,601 468,521 Q468,422 363,317 Q318,272 302,244.5 Q286,217 284,180 L198,180 Q203,225 219.5,258.5 Q236,292 278,340 Q332,402 352,439.5 Q372,477 372,521 Q372,573 341,604.5 Q310,636 257,636 Q200,636 164.5,599.5 Q129,563 125,494 L35,494 Q38,590 99.5,647 Q161,704 260,704 M213,114 Q269,114 287,96 Q305,78 305,50 Q305,22 287,4 Q269,-14 241,-14 Q213,-14 195,4 Q177,22 177,50 Q177,78 213,114"/> 
            <glyph glyph-name="@" unicode="&#x40;" horiz-adv-x="790" d=" M634,465 L571,201 Q567,184 567,169 Q567,133 605,133 Q655,133 691.5,184 Q728,235 728,329 Q728,461 653,533.5 Q578,606 466,606 Q402,606 340,581.5 Q278,557 228,512.5 Q178,468 147,397.5 Q116,327 116,244 Q116,105 196,29.5 Q276,-46 399,-46 Q463,-46 530,-25.5 Q597,-5 650,34 L674,-15 Q543,-104 396,-104 Q253,-104 153.5,-13.5 Q54,77 54,243 Q54,339 90,420 Q126,501 185,553.5 Q244,606 317.5,635 Q391,664 469,664 Q611,664 700.5,572 Q790,480 790,331 Q790,205 728,140 Q666,75 585,75 Q496,75 485,147 L464,106 Q418,67 364,67 Q307,67 265,105.5 Q223,144 223,228 Q223,330 284.5,406.5 Q346,483 439,483 Q499,483 527,452 L536,404 L553,465 M498,251 L507,290 Q522,357 503.5,387 Q485,417 445,417 Q387,417 352,362 Q317,307 317,234 Q317,133 385,133 Q424,133 455.5,168 Q487,203 498,251"/> 
            <glyph glyph-name="A" unicode="&#x41;" horiz-adv-x="631" d=" M456,244 L202,244 L121,0 L29,0 L277,690 L393,690 L631,0 L538,0 M226,314 L433,314 L333,622"/> 
            <glyph glyph-name="B" unicode="&#x42;" horiz-adv-x="588" d=" M446,367 Q517,351 552.5,311.5 Q588,272 588,203 Q588,115 537,66 Q486,17 410,5 Q376,0 322,0 L100,0 L100,690 L303,690 Q360,690 393,686 Q563,663 563,518 Q563,407 446,367 M186,620 L186,393 L319,393 Q347,393 374,397 Q471,412 471,511 Q471,606 365,618 Q347,620 310,620 M383,72 Q434,77 465,108 Q496,139 496,194 Q496,304 384,319 Q353,323 329,323 L186,323 L186,70 L335,70 Q357,70 383,72"/> 
            <glyph glyph-name="C" unicode="&#x43;" horiz-adv-x="655" d=" M373,704 Q500,704 571.5,640 Q643,576 654,470 L655,460 L569,460 L567,470 Q533,636 371,636 Q267,636 205,554.5 Q143,473 143,346 Q143,217 203.5,135.5 Q264,54 365,54 Q527,54 561,220 L563,230 L649,230 L648,220 Q638,119 563.5,52.5 Q489,-14 360,-14 Q213,-14 130,86 Q47,186 47,342 Q47,501 137,602.5 Q227,704 373,704"/> 
            <glyph glyph-name="D" unicode="&#x44;" horiz-adv-x="671" d=" M398,686 Q523,670 597,586 Q671,502 671,353 Q671,205 594,112 Q517,19 393,4 Q358,0 305,0 L100,0 L100,690 L310,690 Q363,690 398,686 M384,75 Q474,90 525.5,161.5 Q577,233 577,353 Q577,466 527.5,533.5 Q478,601 389,615 Q362,620 305,620 L186,620 L186,70 L300,70 Q356,70 384,75"/> 
            <glyph glyph-name="E" unicode="&#x45;" horiz-adv-x="559" d=" M559,70 L559,0 L100,0 L100,690 L549,690 L549,620 L186,620 L186,380 L519,380 L519,310 L186,310 L186,70"/> 
            <glyph glyph-name="F" unicode="&#x46;" horiz-adv-x="549" d=" M186,620 L186,380 L509,380 L509,310 L186,310 L186,0 L100,0 L100,690 L549,690 L549,620"/> 
            <glyph glyph-name="G" unicode="&#x47;" horiz-adv-x="655" d=" M399,333 L646,333 L646,0 L570,0 L570,120 L539,56 Q477,-14 360,-14 Q213,-14 130,86 Q47,186 47,342 Q47,501 137,602.5 Q227,704 373,704 Q500,704 571.5,640 Q643,576 654,470 L655,460 L569,460 L567,470 Q533,636 371,636 Q267,636 205,554.5 Q143,473 143,346 Q143,217 203.5,135.5 Q264,54 365,54 Q449,54 504.5,112.5 Q560,171 560,263 L399,263"/> 
            <glyph glyph-name="H" unicode="&#x48;" horiz-adv-x="652" d=" M652,690 L652,0 L566,0 L566,302 L186,302 L186,0 L100,0 L100,690 L186,690 L186,374 L566,374 L566,690"/> 
            <glyph glyph-name="I" unicode="&#x49;" horiz-adv-x="186" d=" M186,0 L100,0 L100,690 L186,690"/> 
            <glyph glyph-name="J" unicode="&#x4A;" horiz-adv-x="488" d=" M488,690 L488,264 Q488,215 486,181 Q481,90 425,38 Q369,-14 263,-14 Q167,-14 112.5,41.5 Q58,97 56,194 L55,235 L141,235 L143,194 Q150,54 275,54 Q391,54 401,186 Q402,206 402,267 L402,690"/> 
            <glyph glyph-name="K" unicode="&#x4B;" horiz-adv-x="628" d=" M315,353 L610,0 L489,0 L252,295 L186,224 L186,0 L100,0 L100,690 L186,690 L186,323 L527,690 L628,690"/> 
            <glyph glyph-name="L" unicode="&#x4C;" horiz-adv-x="559" d=" M559,70 L559,0 L100,0 L100,690 L186,690 L186,70"/> 
            <glyph glyph-name="M" unicode="&#x4D;" horiz-adv-x="788" d=" M788,690 L788,0 L702,0 L702,355 Q702,537 704,612 Q669,498 620,356 L498,0 L390,0 L266,358 Q211,518 184,610 Q186,535 186,355 L186,0 L100,0 L100,690 L242,690 L446,73 L649,690"/> 
            <glyph glyph-name="N" unicode="&#x4E;" horiz-adv-x="640" d=" M640,0 L508,0 L183,606 Q186,484 186,345 L186,0 L100,0 L100,690 L232,690 L557,84 Q554,205 554,345 L554,690 L638,690"/> 
            <glyph glyph-name="O" unicode="&#x4F;" horiz-adv-x="699" d=" M219,704 Q527,704 613,605.5 Q699,507 699,345 Q699,184 613,85 Q527,-14 373,-14 Q219,-14 133,85 Q47,184 47,345 Q47,507 219,704 M265,54 Q481,54 542,132 Q603,210 603,345 Q603,481 542,558.5 Q481,636 373,636 Q265,636 204,558.5 Q143,481 143,345 Q143,210 265,54"/> 
            <glyph glyph-name="P" unicode="&#x50;" horiz-adv-x="583" d=" M404,686 Q488,675 535.5,623.5 Q583,572 583,486 Q583,401 532.5,348.5 Q482,296 404,286 Q373,282 314,282 L186,282 L186,0 L100,0 L100,690 L314,690 Q373,690 404,686 M399,359 Q491,380 491,486 Q491,592 399,613 Q375,618 322,618 L186,618 L186,354 L322,354 Q375,354 399,359"/> 
            <glyph glyph-name="Q" unicode="&#x51;" horiz-adv-x="701" d=" M573,72 Q634,63 701,7 L652,-52 Q572,2 517,2 Q486,2 444,-7 Q413,-14 373,-14 Q219,-14 133,85 Q47,184 47,345 Q47,507 133,605.5 Q219,704 373,704 Q527,704 613,605.5 Q699,507 699,345 Q699,164 573,72 M143,345 Q143,210 204,132 Q265,54 373,54 Q481,54 542,132 Q603,210 603,345 Q603,481 542,558.5 Q481,636 373,636 Q265,636 204,558.5 Q143,481 143,345"/> 
            <glyph glyph-name="R" unicode="&#x52;" horiz-adv-x="600" d=" M554,181 Q566,45 600,0 L505,0 Q480,57 468,173 Q455,289 365,296 Q349,297 316,297 L186,297 L186,0 L100,0 L100,690 L326,690 Q385,690 416,686 Q496,676 542,630.5 Q588,585 588,502 Q588,438 553,397 Q518,356 465,339 Q543,303 554,181 M186,367 L318,367 Q366,367 385,369 Q435,374 465.5,406 Q496,438 496,494 Q496,600 395,616 Q370,620 326,620 L186,620"/> 
            <glyph glyph-name="S" unicode="&#x53;" horiz-adv-x="552" d=" M314,704 Q417,704 476,648 Q535,592 545,499 L453,499 Q447,565 409.5,600.5 Q372,636 307,636 Q249,636 212.5,609 Q176,582 176,530 Q176,475 209.5,446 Q243,417 324,399 Q441,372 496.5,321.5 Q552,271 552,185 Q552,96 484.5,41 Q417,-14 315,-14 Q201,-14 132,41 Q63,96 52,196 L144,196 Q159,128 204,91 Q249,54 317,54 Q378,54 419,85 Q460,116 460,169 Q460,231 421.5,264.5 Q383,298 291,319 Q191,342 137.5,386 Q84,430 84,510 Q84,597 150,650.5 Q216,704 314,704"/> 
            <glyph glyph-name="T" unicode="&#x54;" horiz-adv-x="612" d=" M612,620 L366,620 L366,0 L280,0 L280,620 L34,620 L34,690 L612,690"/> 
            <glyph glyph-name="U" unicode="&#x55;" horiz-adv-x="612" d=" M612,690 L612,255 Q612,213 610,193 Q602,101 537.5,43.5 Q473,-14 353,-14 Q233,-14 168.5,43.5 Q104,101 96,193 Q94,213 94,255 L94,690 L180,690 L180,263 Q180,220 182,202 Q188,134 232,94 Q276,54 353,54 Q430,54 474,94 Q518,134 524,202 Q526,220 526,263 L526,690"/> 
            <glyph glyph-name="V" unicode="&#x56;" horiz-adv-x="634" d=" M386,0 L270,0 L32,690 L125,690 L330,65 L542,690 L634,690"/> 
            <glyph glyph-name="W" unicode="&#x57;" horiz-adv-x="945" d=" M945,690 L753,0 L640,0 L484,595 L322,0 L208,0 L26,690 L124,690 L269,77 L429,680 L545,680 L701,76 L854,690"/> 
            <glyph glyph-name="X" unicode="&#x58;" horiz-adv-x="623" d=" M522,0 L320,292 L124,0 L25,0 L271,348 L43,690 L141,690 L324,408 L514,690 L613,690 L373,351 L623,0"/> 
            <glyph glyph-name="Y" unicode="&#x59;" horiz-adv-x="593" d=" M349,272 L349,0 L263,0 L263,272 L19,690 L118,690 L310,355 L496,690 L593,690"/> 
            <glyph glyph-name="Z" unicode="&#x5A;" horiz-adv-x="569" d=" M569,70 L569,0 L46,0 L46,66 L463,620 L74,620 L74,690 L563,690 L563,621 L148,70"/> 
            <glyph glyph-name="[" unicode="&#x5B;" horiz-adv-x="261" d=" M261,780 L261,724 L156,724 L156,-24 L261,-24 L261,-80 L98,-80 L98,780"/> 
            <glyph glyph-name="\" unicode="&#x5C;" horiz-adv-x="308" d=" M308,-30 L246,-30 L-5,720 L57,720"/> 
            <glyph glyph-name="]" unicode="&#x5D;" horiz-adv-x="197" d=" M197,-80 L34,-80 L34,-24 L139,-24 L139,724 L34,724 L34,780 L197,780"/> 
            <glyph glyph-name="^" unicode="&#x5E;" horiz-adv-x="500" d=" M432,215 L291,560 L150,215 L80,215 L256,616 L324,616 L500,215"/> 
            <glyph glyph-name="_" unicode="&#x5F;" horiz-adv-x="450" d=" M450,-86 L50,-86 L50,-30 L450,-30"/> 
            <glyph glyph-name="`" unicode="&#x60;" horiz-adv-x="182" d=" M182,580 L126,580 L41,690 L121,690"/> 
            <glyph glyph-name="a" unicode="&#x61;" horiz-adv-x="464" d=" M378,0 L369,76 L340,19 Q292,-14 207,-14 Q132,-14 84,26 Q36,66 36,137 Q36,228 108,273.5 Q180,319 334,319 L368,319 L368,333 Q368,377 366,397 Q359,478 263,478 Q158,478 149,366 L59,366 Q65,450 119.5,497 Q174,544 263,544 Q437,544 451,404 Q454,373 454,334 L454,135 Q454,74 464,0 M236,52 Q297,52 332.5,91 Q368,130 368,201 L368,255 Q130,273 130,144 Q130,52 236,52"/> 
            <glyph glyph-name="b" unicode="&#x62;" horiz-adv-x="581" d=" M340,544 Q453,544 517,468.5 Q581,393 581,273 Q581,134 506.5,60 Q432,-14 322,-14 Q287,-14 250.5,-4.5 Q214,5 195,21 L160,73 L160,0 L74,0 L74,735 L160,735 L160,445 L200,502 Q250,544 340,544 M322,52 Q395,52 441,107 Q487,162 487,263 Q487,357 445.5,417.5 Q404,478 327,478 Q254,478 207,427.5 Q160,377 160,270 L160,241 Q160,146 208.5,99 Q257,52 322,52"/> 
            <glyph glyph-name="c" unicode="&#x63;" horiz-adv-x="503" d=" M279,544 Q373,544 432,492 Q491,440 503,352 L413,352 Q385,478 277,478 Q211,478 167.5,425 Q124,372 124,270 Q124,161 165.5,106.5 Q207,52 271,52 Q324,52 359.5,82 Q395,112 408,169 L498,169 Q479,79 418,32.5 Q357,-14 266,-14 Q160,-14 95,55.5 Q30,125 30,264 Q30,393 102,468.5 Q174,544 279,544"/> 
            <glyph glyph-name="d" unicode="&#x64;" horiz-adv-x="537" d=" M537,735 L537,0 L451,0 L451,85 L411,28 Q361,-14 271,-14 Q158,-14 94,61.5 Q30,137 30,257 Q30,396 104.5,470 Q179,544 289,544 Q324,544 360.5,534.5 Q397,525 416,509 L451,457 L451,735 M284,52 Q357,52 404,102.5 Q451,153 451,260 L451,289 Q451,384 402.5,431 Q354,478 289,478 Q216,478 170,423 Q124,368 124,267 Q124,173 165.5,112.5 Q207,52 284,52"/> 
            <glyph glyph-name="e" unicode="&#x65;" horiz-adv-x="509" d=" M509,280 Q509,258 507,239 L123,239 Q129,140 170,96 Q211,52 275,52 Q328,52 365.5,83.5 Q403,115 412,171 L502,171 Q487,80 422.5,33 Q358,-14 271,-14 Q163,-14 96.5,57 Q30,128 30,263 Q30,390 101,467 Q172,544 282,544 Q389,544 449,471.5 Q509,399 509,280 M280,478 Q216,478 173.5,433 Q131,388 124,305 L422,305 Q409,478 280,478"/> 
            <glyph glyph-name="f" unicode="&#x66;" horiz-adv-x="282" d=" M167,632 Q164,611 164,578 L164,526 L273,526 L273,460 L164,460 L164,0 L78,0 L78,460 L21,460 L21,526 L78,526 L78,570 Q78,607 81,634 Q88,691 124.5,722.5 Q161,754 221,754 Q252,754 282,749 L282,678 Q178,697 167,632"/> 
            <glyph glyph-name="g" unicode="&#x67;" horiz-adv-x="537" d=" M537,530 L537,130 Q537,56 536,27 Q532,-88 466,-149 Q400,-210 284,-210 Q64,-210 47,-35 L46,-25 L133,-25 L134,-34 Q139,-84 178,-114 Q217,-144 284,-144 Q362,-144 404.5,-101.5 Q447,-59 450,18 Q451,43 451,76 L451,85 L411,28 Q361,-14 271,-14 Q158,-14 94,61.5 Q30,137 30,257 Q30,396 104.5,470 Q179,544 289,544 Q324,544 360.5,534.5 Q397,525 416,509 L451,457 L451,530 M284,52 Q357,52 404,102.5 Q451,153 451,260 L451,289 Q451,384 402.5,431 Q354,478 289,478 Q216,478 170,423 Q124,368 124,267 Q124,173 165.5,112.5 Q207,52 284,52"/> 
            <glyph glyph-name="h" unicode="&#x68;" horiz-adv-x="522" d=" M520,389 Q522,362 522,298 L522,0 L436,0 L436,292 Q436,341 434,368 Q430,418 400.5,447.5 Q371,477 313,476 Q244,474 202,417 Q160,360 160,233 L160,0 L74,0 L74,740 L160,740 L160,439 L193,500 Q250,544 331,544 Q416,544 465,502 Q514,460 520,389"/> 
            <glyph glyph-name="i" unicode="&#x69;" horiz-adv-x="172" d=" M94,704 Q140,704 156,688 Q172,672 172,649 Q172,626 156,610 Q140,594 117,594 Q94,594 78,610 Q62,626 62,649 Q62,672 94,704 M160,0 L74,0 L74,530 L160,530"/> 
            <glyph glyph-name="j" unicode="&#x6A;" horiz-adv-x="167" d=" M89,704 Q135,704 151,688 Q167,672 167,649 Q167,626 151,610 Q135,594 112,594 Q89,594 73,610 Q57,626 57,649 Q57,672 89,704 M155,530 L155,-46 Q155,-83 152,-110 Q141,-210 28,-210 Q0,-210 -13,-208 L-13,-138 Q61,-145 67,-94 Q69,-80 69,-50 L69,530"/> 
            <glyph glyph-name="k" unicode="&#x6B;" horiz-adv-x="520" d=" M403,0 L210,224 L160,169 L160,0 L74,0 L74,735 L160,735 L160,263 L407,530 L517,530 L270,280 L520,0"/> 
            <glyph glyph-name="l" unicode="&#x6C;" horiz-adv-x="222" d=" M156,735 L156,152 Q156,119 157,102 Q159,76 173,67 Q187,58 222,62 L222,0 Q197,-4 161,-4 Q119,-4 96,14 Q73,32 71,79 Q70,97 70,149 L70,735"/> 
            <glyph glyph-name="m" unicode="&#x6D;" horiz-adv-x="784" d=" M779,415 Q784,381 784,324 L784,0 L698,0 L698,284 Q698,351 694,387 Q682,476 588,476 Q472,476 472,262 L472,0 L386,0 L386,284 Q386,351 382,387 Q370,476 276,476 Q160,476 160,262 L160,0 L74,0 L74,530 L160,530 L160,453 L194,513 Q232,544 306,544 Q365,544 404,517 Q443,490 459,445 L506,513 Q544,544 618,544 Q686,544 728,508.5 Q770,473 779,415"/> 
            <glyph glyph-name="n" unicode="&#x6E;" horiz-adv-x="522" d=" M520,389 Q522,362 522,298 L522,0 L436,0 L436,292 Q436,341 434,368 Q425,476 313,476 Q245,476 202.5,418 Q160,360 160,233 L160,0 L74,0 L74,530 L160,530 L160,439 L193,500 Q250,544 331,544 Q416,544 465,502 Q514,460 520,389"/> 
            <glyph glyph-name="o" unicode="&#x6F;" horiz-adv-x="556" d=" M165,544 Q421,544 488.5,464.5 Q556,385 556,265 Q556,145 488.5,65.5 Q421,-14 293,-14 Q165,-14 97.5,65.5 Q30,145 30,265 Q30,385 165,544 M214,52 Q372,52 417,111 Q462,170 462,265 Q462,361 417,419.5 Q372,478 293,478 Q214,478 169,419.5 Q124,361 124,265 Q124,170 214,52"/> 
            <glyph glyph-name="p" unicode="&#x70;" horiz-adv-x="581" d=" M340,544 Q453,544 517,468.5 Q581,393 581,273 Q581,134 506.5,60 Q432,-14 322,-14 Q287,-14 250.5,-4.5 Q214,5 195,21 L160,73 L160,-196 L74,-196 L74,530 L160,530 L160,445 L200,502 Q250,544 340,544 M322,52 Q395,52 441,107 Q487,162 487,263 Q487,357 445.5,417.5 Q404,478 327,478 Q254,478 207,427.5 Q160,377 160,270 L160,241 Q160,146 208.5,99 Q257,52 322,52"/> 
            <glyph glyph-name="q" unicode="&#x71;" horiz-adv-x="537" d=" M537,530 L537,-196 L451,-196 L451,85 L411,28 Q361,-14 271,-14 Q158,-14 94,61.5 Q30,137 30,257 Q30,396 104.5,470 Q179,544 289,544 Q324,544 360.5,534.5 Q397,525 416,509 L451,457 L451,530 M284,52 Q357,52 404,102.5 Q451,153 451,260 L451,289 Q451,384 402.5,431 Q354,478 289,478 Q216,478 170,423 Q124,368 124,267 Q124,173 165.5,112.5 Q207,52 284,52"/> 
            <glyph glyph-name="r" unicode="&#x72;" horiz-adv-x="318" d=" M282,542 Q304,542 318,535 L318,470 Q247,475 203.5,432 Q160,389 160,302 L160,0 L74,0 L74,530 L160,530 L160,447 L208,518 Q243,542 282,542"/> 
            <glyph glyph-name="s" unicode="&#x73;" horiz-adv-x="429" d=" M228,544 Q315,544 364.5,499 Q414,454 423,379 L333,379 Q314,478 221,478 Q178,478 155.5,456.5 Q133,435 133,399 Q133,362 161,342 Q189,322 249,306 Q342,281 385.5,241.5 Q429,202 429,136 Q429,64 374.5,25 Q320,-14 232,-14 Q146,-14 91,28 Q36,70 24,156 L114,156 Q133,52 238,52 Q283,52 312,72 Q341,92 341,129 Q341,167 312.5,190 Q284,213 216,231 Q134,253 89.5,289 Q45,325 45,389 Q45,461 95,502.5 Q145,544 228,544"/> 
            <glyph glyph-name="t" unicode="&#x74;" horiz-adv-x="276" d=" M177,460 L177,155 Q177,128 178,114 Q181,76 200,65 Q219,54 270,60 L270,-3 Q239,-8 197,-8 Q147,-8 121.5,14 Q96,36 92,85 Q91,99 91,151 L91,460 L20,460 L20,526 L91,526 L91,649 L177,649 L177,526 L276,526 L276,460"/> 
            <glyph glyph-name="u" unicode="&#x75;" horiz-adv-x="514" d=" M514,530 L514,0 L428,0 L428,90 L395,28 Q338,-14 257,-14 Q178,-14 129.5,24.5 Q81,63 71,121 Q66,155 66,212 L66,530 L152,530 L152,228 Q152,191 156,155 Q162,109 194,81.5 Q226,54 279,54 Q347,54 387.5,111.5 Q428,169 428,297 L428,530"/> 
            <glyph glyph-name="v" unicode="&#x76;" horiz-adv-x="508" d=" M508,530 L307,0 L202,0 L1,530 L96,530 L258,63 L417,530"/> 
            <glyph glyph-name="w" unicode="&#x77;" horiz-adv-x="779" d=" M779,530 L610,0 L508,0 L390,446 L272,0 L170,0 L1,530 L100,530 L223,82 L339,530 L446,530 L564,85 L687,530"/> 
            <glyph glyph-name="x" unicode="&#x78;" horiz-adv-x="470" d=" M282,270 L470,0 L370,0 L231,213 L93,0 L-6,0 L184,268 L1,530 L103,530 L236,325 L369,530 L468,530"/> 
            <glyph glyph-name="y" unicode="&#x79;" horiz-adv-x="507" d=" M507,530 L289,-45 Q256,-130 211.5,-170 Q167,-210 103,-210 Q72,-210 59,-208 L59,-138 Q72,-139 90,-139 Q131,-139 158,-118 Q185,-97 205,-46 L212,-27 L1,530 L98,530 L256,64 L413,530"/> 
            <glyph glyph-name="z" unicode="&#x7A;" horiz-adv-x="433" d=" M433,68 L433,0 L20,0 L20,66 L328,458 L42,458 L42,526 L428,526 L428,457 L122,68"/> 
            <glyph glyph-name="{" unicode="&#x7B;" horiz-adv-x="270" d=" M270,724 L258,724 Q216,724 198.5,712 Q181,700 181,675 Q181,653 192,575 Q205,484 205,452 Q205,409 182,382.5 Q159,356 118,351 Q159,346 182,318.5 Q205,291 205,248 Q205,216 192,125 Q181,47 181,25 Q181,0 198.5,-12 Q216,-24 258,-24 L270,-24 L270,-80 L259,-80 Q191,-80 157,-56.5 Q123,-33 123,26 Q123,50 135,135 Q146,211 146,245 Q146,314 64,322 L64,378 Q146,386 146,455 Q146,489 135,565 Q123,650 123,674 Q123,733 157,756.5 Q191,780 259,780 L270,780"/> 
            <glyph glyph-name="|" unicode="&#x7C;" horiz-adv-x="154" d=" M154,-200 L96,-200 L96,800 L154,800"/> 
            <glyph glyph-name="}" unicode="&#x7D;" horiz-adv-x="239" d=" M239,378 L239,322 Q157,314 157,245 Q157,211 168,135 Q180,50 180,26 Q180,-33 146,-56.5 Q112,-80 44,-80 L33,-80 L33,-24 L45,-24 Q87,-24 104.5,-12 Q122,0 122,25 Q122,47 111,125 Q98,216 98,248 Q98,291 121,317.5 Q144,344 185,349 Q144,354 121,381.5 Q98,409 98,452 Q98,484 111,575 Q122,653 122,675 Q122,700 104.5,712 Q87,724 45,724 L33,724 L33,780 L44,780 Q112,780 146,756.5 Q180,733 180,674 Q180,650 168,565 Q157,489 157,455 Q157,386 239,378"/> 
            <glyph glyph-name="~" unicode="&#x7E;" horiz-adv-x="502" d=" M446,356 L502,356 Q502,223 392,223 Q365,223 343,231.5 Q321,240 276,264 Q211,299 182,299 Q133,299 133,223 L77,223 Q77,356 187,356 Q214,356 236,347.5 Q258,339 303,315 Q368,280 397,280 Q446,280 446,356"/> 
            <glyph glyph-name="¡" unicode="&#xA1;" horiz-adv-x="185" d=" M149,416 Q93,416 75,434 Q57,452 57,480 Q57,508 75,526 Q93,544 121,544 Q149,544 167,526 Q185,508 185,480 Q185,452 149,416 M82,350 L160,350 L172,-160 L70,-160"/> 
            <glyph glyph-name="¢" unicode="&#xA2;" horiz-adv-x="522" d=" M319,476 L319,54 Q404,70 427,169 L517,169 Q500,87 448.5,41.5 Q397,-4 319,-12 L319,-90 L261,-90 L261,-13 Q164,-5 106.5,64 Q49,133 49,264 Q49,380 109.5,453.5 Q170,527 261,541 L261,620 L319,620 L319,543 Q404,538 457.5,486.5 Q511,435 522,352 L432,352 Q407,464 319,476 M143,270 Q143,174 175.5,120 Q208,66 261,55 L261,474 Q208,461 175.5,409.5 Q143,358 143,270"/> 
            <glyph glyph-name="£" unicode="&#xA3;" horiz-adv-x="518" d=" M518,70 L518,0 L68,0 L68,62 Q177,89 177,200 Q177,257 150,317 L77,317 L77,373 L123,373 Q92,443 92,498 Q92,589 153.5,646.5 Q215,704 306,704 Q403,704 456.5,650.5 Q510,597 516,508 L424,508 Q415,573 385.5,604.5 Q356,636 304,636 Q248,636 218,600 Q188,564 188,515 Q188,477 195.5,449 Q203,421 225,373 L441,373 L441,317 L248,317 Q268,266 268,215 Q268,166 250,133 Q232,100 192,70"/> 
            <glyph glyph-name="¤" unicode="&#xA4;" horiz-adv-x="497" d=" M470,301 Q470,243 437,196 L497,136 L456,95 L396,155 Q347,121 290,121 Q230,121 185,155 L125,96 L84,137 L144,196 Q110,241 110,301 Q110,358 144,407 L84,467 L125,508 L185,448 Q232,481 290,481 Q350,481 395,447 L456,508 L497,467 L436,406 Q470,361 470,301 M239,179 Q341,179 374.5,213.5 Q408,248 408,301 Q408,354 374.5,388.5 Q341,423 290,423 Q239,423 205.5,388.5 Q172,354 172,301 Q172,248 239,179"/> 
            <glyph glyph-name="¥" unicode="&#xA5;" horiz-adv-x="557" d=" M373,357 L495,357 L495,301 L342,301 L333,285 L333,237 L495,237 L495,181 L333,181 L333,0 L247,0 L247,181 L85,181 L85,237 L247,237 L247,285 L238,301 L85,301 L85,357 L207,357 L23,690 L129,690 L294,359 L456,690 L557,690"/> 
            <glyph glyph-name="¦" unicode="&#xA6;" horiz-adv-x="154" d=" M154,350 L96,350 L96,690 L154,690 M154,-160 L96,-160 L96,180 L154,180"/> 
            <glyph glyph-name="§" unicode="&#xA7;" horiz-adv-x="531" d=" M531,246 Q531,198 504,160 Q477,122 432,101 Q473,55 473,-13 Q473,-90 415.5,-132 Q358,-174 275,-174 Q187,-174 131,-130.5 Q75,-87 65,0 L155,0 Q182,-108 281,-108 Q325,-108 353,-85 Q381,-62 381,-20 Q381,25 348,55 Q315,85 231,106 Q141,128 87,175.5 Q33,223 33,294 Q33,405 137,444 Q97,487 97,546 Q97,619 147.5,661.5 Q198,704 277,704 Q364,704 414,660 Q464,616 472,538 L382,538 Q373,585 345.5,611.5 Q318,638 277,638 Q238,638 213.5,616 Q189,594 189,555 Q189,513 221.5,484.5 Q254,456 324,436 Q433,406 482,361.5 Q531,317 531,246 M364,149 Q398,156 418.5,181 Q439,206 439,236 Q439,280 405,307.5 Q371,335 291,360 Q243,375 206,394 Q169,391 147,367 Q125,343 125,298 Q125,258 162.5,227.5 Q200,197 264,182 Q320,169 364,149"/> 
            <glyph glyph-name="¨" unicode="&#xA8;" horiz-adv-x="269" d=" M58,675 Q96,675 109.5,661.5 Q123,648 123,629 Q123,610 109.5,596.5 Q96,583 77,583 Q58,583 44.5,596.5 Q31,610 31,629 Q31,648 58,675 M204,675 Q242,675 255.5,661.5 Q269,648 269,629 Q269,610 255.5,596.5 Q242,583 223,583 Q204,583 190.5,596.5 Q177,610 177,629 Q177,648 204,675"/> 
            <glyph glyph-name="©" unicode="&#xA9;" horiz-adv-x="802" d=" M257,744 Q581,744 691.5,632 Q802,520 802,355 Q802,190 691.5,78 Q581,-34 419,-34 Q257,-34 146.5,78 Q36,190 36,355 Q36,520 257,744 M555,686 Q283,686 190.5,590.5 Q98,495 98,355 Q98,214 190.5,119 Q283,24 419,24 Q555,24 647.5,119 Q740,214 740,355 Q740,495 555,686 M425,586 Q505,586 556.5,542 Q608,498 623,425 L531,425 Q513,518 425,518 Q367,518 336,474.5 Q305,431 305,356 Q305,281 337.5,236.5 Q370,192 425,192 Q467,192 495.5,218.5 Q524,245 530,285 L622,285 Q604,210 553,167 Q502,124 416,124 Q324,124 266.5,187 Q209,250 209,353 Q209,460 268,523 Q327,586 425,586"/> 
            <glyph glyph-name="«" unicode="&#xAB;" horiz-adv-x="500" d=" M330,414 L193,248 L330,82 L257,82 L120,248 L257,414 M500,414 L363,248 L500,82 L427,82 L290,248 L427,414"/> 
            <glyph glyph-name="¬" unicode="&#xAC;" horiz-adv-x="469" d=" M469,210 L411,210 L411,328 L100,328 L100,384 L469,384"/> 
            <glyph glyph-name="®" unicode="&#xAE;" horiz-adv-x="464" d=" M162,764 Q346,764 405,705 Q464,646 464,554 Q464,462 405,403 Q346,344 254,344 Q162,344 103,403 Q44,462 44,554 Q44,646 162,764 M183,390 Q325,390 370.5,436 Q416,482 416,554 Q416,626 370.5,672 Q325,718 254,718 Q183,718 137.5,672 Q92,626 92,554 Q92,482 183,390 M300,553 Q328,548 332,509 Q336,475 345,455 L288,455 Q284,471 281,500 Q278,523 252,523 L229,523 L229,455 L179,455 L179,659 L249,659 Q267,659 276,658 Q343,651 343,603 Q343,567 300,553 M268,566 Q288,570 288,592 Q288,612 268,617 Q262,618 249,618 L229,618 L229,565 L249,565 Q262,565 268,566"/> 
            <glyph glyph-name="¯" unicode="&#xAF;" horiz-adv-x="270" d=" M270,604 L30,604 L30,656 L270,656"/> 
            <glyph glyph-name="°" unicode="&#xB0;" horiz-adv-x="270" d=" M96,704 Q202,704 236,671 Q270,638 270,585 Q270,532 236,499 Q202,466 149,466 Q96,466 62,499 Q28,532 28,585 Q28,638 96,704 M175,648 Q123,648 106.5,630.5 Q90,613 90,585 Q90,557 106.5,539.5 Q123,522 149,522 Q175,522 191.5,539.5 Q208,557 208,585 Q208,613 175,648"/> 
            <glyph glyph-name="±" unicode="&#xB1;" horiz-adv-x="500" d=" M319,347 L500,347 L500,291 L319,291 L319,111 L261,111 L261,291 L80,291 L80,347 L261,347 L261,523 L319,523 M500,0 L80,0 L80,56 L500,56"/> 
            <glyph glyph-name="´" unicode="&#xB4;" horiz-adv-x="257" d=" M172,580 L116,580 L177,690 L257,690"/> 
            <glyph glyph-name="¶" unicode="&#xB6;" horiz-adv-x="488" d=" M488,690 L488,-110 L430,-110 L430,634 L338,634 L338,-110 L280,-110 L280,320 L257,320 Q218,320 201,321 Q127,325 85.5,377.5 Q44,430 44,505 Q44,580 85.5,632.5 Q127,685 201,689 Q218,690 257,690"/> 
            <glyph glyph-name="·" unicode="&#xB7;" horiz-adv-x="170" d=" M72,374 Q130,374 150,354 Q170,334 170,305 Q170,276 150,256 Q130,236 101,236 Q72,236 52,256 Q32,276 32,305 Q32,334 72,374"/> 
            <glyph glyph-name="¸" unicode="&#xB8;" horiz-adv-x="239" d=" M185,9 L158,-40 Q239,-51 239,-123 Q239,-164 205.5,-187 Q172,-210 116,-210 Q87,-210 66,-201 L66,-157 Q87,-168 119,-168 Q181,-168 181,-124 Q181,-71 85,-78 L132,9"/> 
            <glyph glyph-name="»" unicode="&#xBB;" horiz-adv-x="437" d=" M267,248 L130,82 L57,82 L194,248 L57,414 L130,414 M437,248 L300,82 L227,82 L364,248 L227,414 L300,414"/> 
            <glyph glyph-name="¿" unicode="&#xBF;" horiz-adv-x="499" d=" M321,416 Q265,416 247,434 Q229,452 229,480 Q229,508 247,526 Q265,544 293,544 Q321,544 339,526 Q357,508 357,480 Q357,452 321,416 M274,-174 Q176,-174 121,-122.5 Q66,-71 66,9 Q66,108 171,213 Q216,258 232,285.5 Q248,313 250,350 L336,350 Q331,305 314.5,271.5 Q298,238 256,190 Q202,128 182,90.5 Q162,53 162,9 Q162,-43 193,-74.5 Q224,-106 277,-106 Q334,-106 369.5,-69.5 Q405,-33 409,36 L499,36 Q496,-60 434.5,-117 Q373,-174 274,-174"/> 
            <glyph glyph-name="À" unicode="&#xC0;" horiz-adv-x="631" d=" M311,736 L233,830 L313,830 L367,736 M456,244 L202,244 L121,0 L29,0 L277,690 L393,690 L631,0 L538,0 M226,314 L433,314 L333,622"/> 
            <glyph glyph-name="Á" unicode="&#xC1;" horiz-adv-x="631" d=" M358,736 L302,736 L356,830 L436,830 M456,244 L202,244 L121,0 L29,0 L277,690 L393,690 L631,0 L538,0 M226,314 L433,314 L333,622"/> 
            <glyph glyph-name="Â" unicode="&#xC2;" horiz-adv-x="631" d=" M305,736 L239,736 L306,830 L365,830 L432,736 L365,736 L335,791 M456,244 L202,244 L121,0 L29,0 L277,690 L393,690 L631,0 L538,0 M226,314 L433,314 L333,622"/> 
            <glyph glyph-name="Ã" unicode="&#xC3;" horiz-adv-x="631" d=" M283,770 Q267,770 267,750 L229,750 Q229,790 242,805.5 Q255,821 281,821 Q304,821 343,808 Q376,797 387,797 Q403,797 403,817 L441,817 Q441,777 428,761.5 Q415,746 389,746 Q366,746 327,759 Q294,770 283,770 M456,244 L202,244 L121,0 L29,0 L277,690 L393,690 L631,0 L538,0 M226,314 L433,314 L333,622"/> 
            <glyph glyph-name="Ä" unicode="&#xC4;" horiz-adv-x="631" d=" M284,737 Q246,737 232.5,750.5 Q219,764 219,783 Q219,802 232.5,815.5 Q246,829 265,829 Q284,829 297.5,815.5 Q311,802 311,783 Q311,764 284,737 M424,737 Q386,737 372.5,750.5 Q359,764 359,783 Q359,802 372.5,815.5 Q386,829 405,829 Q424,829 437.5,815.5 Q451,802 451,783 Q451,764 424,737 M456,244 L202,244 L121,0 L29,0 L277,690 L393,690 L631,0 L538,0 M226,314 L433,314 L333,622"/> 
            <glyph glyph-name="Å" unicode="&#xC5;" horiz-adv-x="631" d=" M375,716 Q295,716 269.5,738 Q244,760 244,795 Q244,830 269.5,852 Q295,874 335,874 Q375,874 400.5,852 Q426,830 426,795 Q426,760 375,716 M353,838 Q317,838 305.5,826 Q294,814 294,795 Q294,776 305.5,764 Q317,752 335,752 Q353,752 364.5,764 Q376,776 376,795 Q376,814 353,838 M456,244 L202,244 L121,0 L29,0 L277,690 L393,690 L631,0 L538,0 M226,314 L433,314 L333,622"/> 
            <glyph glyph-name="Æ" unicode="&#xC6;" horiz-adv-x="880" d=" M880,70 L880,0 L445,0 L431,244 L196,244 L58,0 L-35,0 L363,690 L870,690 L870,620 L495,620 L509,380 L840,380 L840,310 L513,310 L527,70 M426,314 L409,621 L235,314"/> 
            <glyph glyph-name="Ç" unicode="&#xC7;" horiz-adv-x="655" d=" M563,230 L649,230 L648,220 Q638,121 566,54.5 Q494,-12 368,-14 L354,-40 Q435,-51 435,-123 Q435,-164 401.5,-187 Q368,-210 312,-210 Q283,-210 262,-201 L262,-157 Q283,-168 315,-168 Q377,-168 377,-124 Q377,-71 281,-78 L317,-12 Q189,3 118,100.5 Q47,198 47,342 Q47,501 137,602.5 Q227,704 373,704 Q500,704 571.5,640 Q643,576 654,470 L655,460 L569,460 L567,470 Q533,636 371,636 Q267,636 205,554.5 Q143,473 143,346 Q143,217 203.5,135.5 Q264,54 365,54 Q527,54 561,220"/> 
            <glyph glyph-name="È" unicode="&#xC8;" horiz-adv-x="559" d=" M312,736 L234,830 L314,830 L368,736 M559,70 L559,0 L100,0 L100,690 L549,690 L549,620 L186,620 L186,380 L519,380 L519,310 L186,310 L186,70"/> 
            <glyph glyph-name="É" unicode="&#xC9;" horiz-adv-x="559" d=" M359,736 L303,736 L357,830 L437,830 M559,70 L559,0 L100,0 L100,690 L549,690 L549,620 L186,620 L186,380 L519,380 L519,310 L186,310 L186,70"/> 
            <glyph glyph-name="Ê" unicode="&#xCA;" horiz-adv-x="559" d=" M306,736 L240,736 L307,830 L366,830 L433,736 L366,736 L336,791 M559,70 L559,0 L100,0 L100,690 L549,690 L549,620 L186,620 L186,380 L519,380 L519,310 L186,310 L186,70"/> 
            <glyph glyph-name="Ë" unicode="&#xCB;" horiz-adv-x="559" d=" M285,737 Q247,737 233.5,750.5 Q220,764 220,783 Q220,802 233.5,815.5 Q247,829 266,829 Q285,829 298.5,815.5 Q312,802 312,783 Q312,764 285,737 M425,737 Q387,737 373.5,750.5 Q360,764 360,783 Q360,802 373.5,815.5 Q387,829 406,829 Q425,829 438.5,815.5 Q452,802 452,783 Q452,764 425,737 M559,70 L559,0 L100,0 L100,690 L549,690 L549,620 L186,620 L186,380 L519,380 L519,310 L186,310 L186,70"/> 
            <glyph glyph-name="Ì" unicode="&#xCC;" horiz-adv-x="186" d=" M175,736 L119,736 L41,830 L121,830 M186,0 L100,0 L100,690 L186,690"/> 
            <glyph glyph-name="Í" unicode="&#xCD;" horiz-adv-x="244" d=" M166,736 L110,736 L164,830 L244,830 M186,0 L100,0 L100,690 L186,690"/> 
            <glyph glyph-name="Î" unicode="&#xCE;" horiz-adv-x="240" d=" M113,736 L47,736 L114,830 L173,830 L240,736 L173,736 L143,791 M100,690 L186,690 L186,0 L100,0"/> 
            <glyph glyph-name="Ï" unicode="&#xCF;" horiz-adv-x="259" d=" M54,829 Q92,829 105.5,815.5 Q119,802 119,783 Q119,764 105.5,750.5 Q92,737 73,737 Q54,737 40.5,750.5 Q27,764 27,783 Q27,802 54,829 M194,829 Q232,829 245.5,815.5 Q259,802 259,783 Q259,764 245.5,750.5 Q232,737 213,737 Q194,737 180.5,750.5 Q167,764 167,783 Q167,802 194,829 M186,0 L100,0 L100,690 L186,690"/> 
            <glyph glyph-name="Ð" unicode="&#xD0;" horiz-adv-x="663" d=" M390,686 Q515,670 589,586 Q663,502 663,353 Q663,205 586,112 Q509,19 385,4 Q350,0 297,0 L92,0 L92,305 L33,305 L33,361 L92,361 L92,690 L302,690 Q355,690 390,686 M376,75 Q466,90 517.5,161.5 Q569,233 569,353 Q569,466 519.5,533.5 Q470,601 381,615 Q353,620 297,620 L178,620 L178,361 L314,361 L314,305 L178,305 L178,70 L292,70 Q348,70 376,75"/> 
            <glyph glyph-name="Ñ" unicode="&#xD1;" horiz-adv-x="640" d=" M316,821 Q339,821 378,808 Q411,797 422,797 Q438,797 438,817 L476,817 Q476,777 463,761.5 Q450,746 424,746 Q401,746 362,759 Q329,770 318,770 Q302,770 302,750 L264,750 Q264,790 277,805.5 Q290,821 316,821 M640,0 L508,0 L183,606 Q186,484 186,345 L186,0 L100,0 L100,690 L232,690 L557,84 Q554,205 554,345 L554,690 L638,690"/> 
            <glyph glyph-name="Ò" unicode="&#xD2;" horiz-adv-x="699" d=" M349,736 L271,830 L351,830 L405,736 M219,704 Q527,704 613,605.5 Q699,507 699,345 Q699,184 613,85 Q527,-14 373,-14 Q219,-14 133,85 Q47,184 47,345 Q47,507 219,704 M265,54 Q481,54 542,132 Q603,210 603,345 Q603,481 542,558.5 Q481,636 373,636 Q265,636 204,558.5 Q143,481 143,345 Q143,210 265,54"/> 
            <glyph glyph-name="Ó" unicode="&#xD3;" horiz-adv-x="699" d=" M396,736 L340,736 L394,830 L474,830 M219,704 Q527,704 613,605.5 Q699,507 699,345 Q699,184 613,85 Q527,-14 373,-14 Q219,-14 133,85 Q47,184 47,345 Q47,507 219,704 M265,54 Q481,54 542,132 Q603,210 603,345 Q603,481 542,558.5 Q481,636 373,636 Q265,636 204,558.5 Q143,481 143,345 Q143,210 265,54"/> 
            <glyph glyph-name="Ô" unicode="&#xD4;" horiz-adv-x="699" d=" M343,736 L277,736 L344,830 L403,830 L470,736 L403,736 L373,791 M219,704 Q527,704 613,605.5 Q699,507 699,345 Q699,184 613,85 Q527,-14 373,-14 Q219,-14 133,85 Q47,184 47,345 Q47,507 219,704 M265,54 Q481,54 542,132 Q603,210 603,345 Q603,481 542,558.5 Q481,636 373,636 Q265,636 204,558.5 Q143,481 143,345 Q143,210 265,54"/> 
            <glyph glyph-name="Õ" unicode="&#xD5;" horiz-adv-x="699" d=" M321,770 Q305,770 305,750 L267,750 Q267,790 280,805.5 Q293,821 319,821 Q342,821 381,808 Q414,797 425,797 Q441,797 441,817 L479,817 Q479,777 466,761.5 Q453,746 427,746 Q404,746 365,759 Q332,770 321,770 M219,704 Q527,704 613,605.5 Q699,507 699,345 Q699,184 613,85 Q527,-14 373,-14 Q219,-14 133,85 Q47,184 47,345 Q47,507 219,704 M265,54 Q481,54 542,132 Q603,210 603,345 Q603,481 542,558.5 Q481,636 373,636 Q265,636 204,558.5 Q143,481 143,345 Q143,210 265,54"/> 
            <glyph glyph-name="Ö" unicode="&#xD6;" horiz-adv-x="699" d=" M322,737 Q284,737 270.5,750.5 Q257,764 257,783 Q257,802 270.5,815.5 Q284,829 303,829 Q322,829 335.5,815.5 Q349,802 349,783 Q349,764 322,737 M462,737 Q424,737 410.5,750.5 Q397,764 397,783 Q397,802 410.5,815.5 Q424,829 443,829 Q462,829 475.5,815.5 Q489,802 489,783 Q489,764 462,737 M219,704 Q527,704 613,605.5 Q699,507 699,345 Q699,184 613,85 Q527,-14 373,-14 Q219,-14 133,85 Q47,184 47,345 Q47,507 219,704 M265,54 Q481,54 542,132 Q603,210 603,345 Q603,481 542,558.5 Q481,636 373,636 Q265,636 204,558.5 Q143,481 143,345 Q143,210 265,54"/> 
            <glyph glyph-name="×" unicode="&#xD7;" horiz-adv-x="469" d=" M331,314 L469,176 L428,135 L290,273 L152,135 L111,176 L249,314 L111,452 L152,493 L290,355 L428,493 L469,452"/> 
            <glyph glyph-name="Ø" unicode="&#xD8;" horiz-adv-x="711" d=" M711,638 L644,571 Q703,480 703,345 Q703,184 617,85 Q531,-14 377,-14 Q233,-14 147,74 L84,11 L43,52 L111,120 Q51,210 51,345 Q51,507 137,605.5 Q223,704 377,704 Q521,704 607,616 L670,679 M147,345 Q147,252 176,185 L548,557 Q486,636 377,636 Q269,636 208,558.5 Q147,481 147,345 M607,345 Q607,438 578,505 L207,134 Q267,54 377,54 Q485,54 546,132 Q607,210 607,345"/> 
            <glyph glyph-name="Ù" unicode="&#xD9;" horiz-adv-x="612" d=" M385,736 L329,736 L251,830 L331,830 M612,690 L612,255 Q612,213 610,193 Q602,101 537.5,43.5 Q473,-14 353,-14 Q233,-14 168.5,43.5 Q104,101 96,193 Q94,213 94,255 L94,690 L180,690 L180,263 Q180,220 182,202 Q188,134 232,94 Q276,54 353,54 Q430,54 474,94 Q518,134 524,202 Q526,220 526,263 L526,690"/> 
            <glyph glyph-name="Ú" unicode="&#xDA;" horiz-adv-x="612" d=" M376,736 L320,736 L374,830 L454,830 M612,690 L612,255 Q612,213 610,193 Q602,101 537.5,43.5 Q473,-14 353,-14 Q233,-14 168.5,43.5 Q104,101 96,193 Q94,213 94,255 L94,690 L180,690 L180,263 Q180,220 182,202 Q188,134 232,94 Q276,54 353,54 Q430,54 474,94 Q518,134 524,202 Q526,220 526,263 L526,690"/> 
            <glyph glyph-name="Û" unicode="&#xDB;" horiz-adv-x="612" d=" M323,736 L257,736 L324,830 L383,830 L450,736 L383,736 L353,791 M612,690 L612,255 Q612,213 610,193 Q602,101 537.5,43.5 Q473,-14 353,-14 Q233,-14 168.5,43.5 Q104,101 96,193 Q94,213 94,255 L94,690 L180,690 L180,263 Q180,220 182,202 Q188,134 232,94 Q276,54 353,54 Q430,54 474,94 Q518,134 524,202 Q526,220 526,263 L526,690"/> 
            <glyph glyph-name="Ü" unicode="&#xDC;" horiz-adv-x="612" d=" M264,829 Q302,829 315.5,815.5 Q329,802 329,783 Q329,764 315.5,750.5 Q302,737 283,737 Q264,737 250.5,750.5 Q237,764 237,783 Q237,802 264,829 M404,829 Q442,829 455.5,815.5 Q469,802 469,783 Q469,764 455.5,750.5 Q442,737 423,737 Q404,737 390.5,750.5 Q377,764 377,783 Q377,802 404,829 M612,690 L612,255 Q612,213 610,193 Q602,101 537.5,43.5 Q473,-14 353,-14 Q233,-14 168.5,43.5 Q104,101 96,193 Q94,213 94,255 L94,690 L180,690 L180,263 Q180,220 182,202 Q188,134 232,94 Q276,54 353,54 Q430,54 474,94 Q518,134 524,202 Q526,220 526,263 L526,690"/> 
            <glyph glyph-name="Ý" unicode="&#xDD;" horiz-adv-x="593" d=" M329,736 L273,736 L327,830 L407,830 M349,272 L349,0 L263,0 L263,272 L19,690 L118,690 L310,355 L496,690 L593,690"/> 
            <glyph glyph-name="Þ" unicode="&#xDE;" horiz-adv-x="583" d=" M409,598 Q487,588 535,539 Q583,490 583,408 Q583,326 535,275.5 Q487,225 409,215 Q378,211 319,211 L186,211 L186,0 L100,0 L100,690 L186,690 L186,602 L319,602 Q378,602 409,598 M396,288 Q491,309 491,406 Q491,504 396,525 Q372,530 319,530 L186,530 L186,283 L319,283 Q372,283 396,288"/> 
            <glyph glyph-name="ß" unicode="&#xDF;" horiz-adv-x="568" d=" M306,754 Q407,754 466.5,706 Q526,658 526,579 Q526,526 495,476 Q418,435 418,398 Q418,372 432,352 Q446,332 483,302 Q528,265 548,229.5 Q568,194 568,142 Q568,75 514,35.5 Q460,-4 380,-4 Q331,-4 282,6 L282,75 Q334,62 376,62 Q424,62 448,85.5 Q472,109 472,149 Q472,176 459,200 Q446,224 408,257 Q359,300 340.5,328.5 Q322,357 322,398 Q322,470 412,514 Q430,545 430,578 Q430,629 397.5,657.5 Q365,686 302,686 Q244,686 205.5,649 Q167,612 162,542 Q160,514 160,488 L160,0 L74,0 L74,480 Q74,508 76,544 Q82,647 145.5,700.5 Q209,754 306,754"/> 
            <glyph glyph-name="à" unicode="&#xE0;" horiz-adv-x="464" d=" M240,580 L155,690 L235,690 L296,580 M378,0 L369,76 L340,19 Q292,-14 207,-14 Q132,-14 84,26 Q36,66 36,137 Q36,228 108,273.5 Q180,319 334,319 L368,319 L368,333 Q368,377 366,397 Q359,478 263,478 Q158,478 149,366 L59,366 Q65,450 119.5,497 Q174,544 263,544 Q437,544 451,404 Q454,373 454,334 L454,135 Q454,74 464,0 M236,52 Q297,52 332.5,91 Q368,130 368,201 L368,255 Q130,273 130,144 Q130,52 236,52"/> 
            <glyph glyph-name="á" unicode="&#xE1;" horiz-adv-x="464" d=" M286,580 L230,580 L291,690 L371,690 M378,0 L369,76 L340,19 Q292,-14 207,-14 Q132,-14 84,26 Q36,66 36,137 Q36,228 108,273.5 Q180,319 334,319 L368,319 L368,333 Q368,377 366,397 Q359,478 263,478 Q158,478 149,366 L59,366 Q65,450 119.5,497 Q174,544 263,544 Q437,544 451,404 Q454,373 454,334 L454,135 Q454,74 464,0 M236,52 Q297,52 332.5,91 Q368,130 368,201 L368,255 Q130,273 130,144 Q130,52 236,52"/> 
            <glyph glyph-name="â" unicode="&#xE2;" horiz-adv-x="464" d=" M231,580 L168,580 L235,690 L294,690 L361,580 L297,580 L264,643 M378,0 L369,76 L340,19 Q292,-14 207,-14 Q132,-14 84,26 Q36,66 36,137 Q36,228 108,273.5 Q180,319 334,319 L368,319 L368,333 Q368,377 366,397 Q359,478 263,478 Q158,478 149,366 L59,366 Q65,450 119.5,497 Q174,544 263,544 Q437,544 451,404 Q454,373 454,334 L454,135 Q454,74 464,0 M236,52 Q297,52 332.5,91 Q368,130 368,201 L368,255 Q130,273 130,144 Q130,52 236,52"/> 
            <glyph glyph-name="ã" unicode="&#xE3;" horiz-adv-x="464" d=" M212,620 Q196,620 196,600 L158,600 Q158,640 171,655.5 Q184,671 210,671 Q233,671 272,658 Q305,647 316,647 Q332,647 332,667 L370,667 Q370,627 357,611.5 Q344,596 318,596 Q295,596 256,609 Q223,620 212,620 M378,0 L369,76 L340,19 Q292,-14 207,-14 Q132,-14 84,26 Q36,66 36,137 Q36,228 108,273.5 Q180,319 334,319 L368,319 L368,333 Q368,377 366,397 Q359,478 263,478 Q158,478 149,366 L59,366 Q65,450 119.5,497 Q174,544 263,544 Q437,544 451,404 Q454,373 454,334 L454,135 Q454,74 464,0 M236,52 Q297,52 332.5,91 Q368,130 368,201 L368,255 Q130,273 130,144 Q130,52 236,52"/> 
            <glyph glyph-name="ä" unicode="&#xE4;" horiz-adv-x="464" d=" M210,583 Q172,583 158.5,596.5 Q145,610 145,629 Q145,648 158.5,661.5 Q172,675 191,675 Q210,675 223.5,661.5 Q237,648 237,629 Q237,610 210,583 M356,583 Q318,583 304.5,596.5 Q291,610 291,629 Q291,648 304.5,661.5 Q318,675 337,675 Q356,675 369.5,661.5 Q383,648 383,629 Q383,610 356,583 M378,0 L369,76 L340,19 Q292,-14 207,-14 Q132,-14 84,26 Q36,66 36,137 Q36,228 108,273.5 Q180,319 334,319 L368,319 L368,333 Q368,377 366,397 Q359,478 263,478 Q158,478 149,366 L59,366 Q65,450 119.5,497 Q174,544 263,544 Q437,544 451,404 Q454,373 454,334 L454,135 Q454,74 464,0 M236,52 Q297,52 332.5,91 Q368,130 368,201 L368,255 Q130,273 130,144 Q130,52 236,52"/> 
            <glyph glyph-name="å" unicode="&#xE5;" horiz-adv-x="464" d=" M304,565 Q224,565 198.5,588.5 Q173,612 173,649 Q173,686 198.5,709.5 Q224,733 264,733 Q304,733 329.5,709.5 Q355,686 355,649 Q355,612 304,565 M282,697 Q246,697 234.5,684 Q223,671 223,649 Q223,627 234.5,614 Q246,601 264,601 Q282,601 293.5,614 Q305,627 305,649 Q305,671 282,697 M378,0 L369,76 L340,19 Q292,-14 207,-14 Q132,-14 84,26 Q36,66 36,137 Q36,228 108,273.5 Q180,319 334,319 L368,319 L368,333 Q368,377 366,397 Q359,478 263,478 Q158,478 149,366 L59,366 Q65,450 119.5,497 Q174,544 263,544 Q437,544 451,404 Q454,373 454,334 L454,135 Q454,74 464,0 M236,52 Q297,52 332.5,91 Q368,130 368,201 L368,255 Q130,273 130,144 Q130,52 236,52"/> 
            <glyph glyph-name="æ" unicode="&#xE6;" horiz-adv-x="848" d=" M848,280 Q848,258 846,239 L464,239 Q470,145 511,98.5 Q552,52 614,52 Q667,52 704.5,83.5 Q742,115 751,171 L841,171 Q826,80 761.5,33 Q697,-14 610,-14 Q468,-14 411,101 L384,47 Q314,-14 214,-14 Q138,-14 87,26 Q36,66 36,137 Q36,226 111,265.5 Q186,305 344,305 L378,305 L378,333 Q378,478 263,478 Q154,478 149,366 L59,366 Q61,450 115.5,497 Q170,544 263,544 Q400,544 439,448 Q502,544 621,544 Q728,544 788,471.5 Q848,399 848,280 M464,305 L761,305 Q747,478 619,478 Q554,478 513,433.5 Q472,389 464,305 M378,209 L378,239 Q251,244 190.5,224.5 Q130,205 130,144 Q130,52 236,52 Q297,52 337.5,95 Q378,138 378,209"/> 
            <glyph glyph-name="ç" unicode="&#xE7;" horiz-adv-x="503" d=" M271,52 Q324,52 359.5,82 Q395,112 408,169 L498,169 Q480,82 423,36 Q366,-10 281,-14 L267,-40 Q348,-51 348,-123 Q348,-164 314.5,-187 Q281,-210 225,-210 Q196,-210 175,-201 L175,-157 Q196,-168 228,-168 Q290,-168 290,-124 Q290,-71 194,-78 L230,-12 Q138,-1 84,68 Q30,137 30,264 Q30,393 102,468.5 Q174,544 279,544 Q373,544 432,492 Q491,440 503,352 L413,352 Q385,478 277,478 Q211,478 167.5,425 Q124,372 124,270 Q124,161 165.5,106.5 Q207,52 271,52"/> 
            <glyph glyph-name="è" unicode="&#xE8;" horiz-adv-x="509" d=" M253,580 L168,690 L248,690 L309,580 M509,280 Q509,258 507,239 L123,239 Q129,140 170,96 Q211,52 275,52 Q328,52 365.5,83.5 Q403,115 412,171 L502,171 Q487,80 422.5,33 Q358,-14 271,-14 Q163,-14 96.5,57 Q30,128 30,263 Q30,390 101,467 Q172,544 282,544 Q389,544 449,471.5 Q509,399 509,280 M280,478 Q216,478 173.5,433 Q131,388 124,305 L422,305 Q409,478 280,478"/> 
            <glyph glyph-name="é" unicode="&#xE9;" horiz-adv-x="509" d=" M299,580 L243,580 L304,690 L384,690 M509,280 Q509,258 507,239 L123,239 Q129,140 170,96 Q211,52 275,52 Q328,52 365.5,83.5 Q403,115 412,171 L502,171 Q487,80 422.5,33 Q358,-14 271,-14 Q163,-14 96.5,57 Q30,128 30,263 Q30,390 101,467 Q172,544 282,544 Q389,544 449,471.5 Q509,399 509,280 M280,478 Q216,478 173.5,433 Q131,388 124,305 L422,305 Q409,478 280,478"/> 
            <glyph glyph-name="ê" unicode="&#xEA;" horiz-adv-x="509" d=" M244,580 L181,580 L248,690 L307,690 L374,580 L310,580 L277,643 M509,280 Q509,258 507,239 L123,239 Q129,140 170,96 Q211,52 275,52 Q328,52 365.5,83.5 Q403,115 412,171 L502,171 Q487,80 422.5,33 Q358,-14 271,-14 Q163,-14 96.5,57 Q30,128 30,263 Q30,390 101,467 Q172,544 282,544 Q389,544 449,471.5 Q509,399 509,280 M280,478 Q216,478 173.5,433 Q131,388 124,305 L422,305 Q409,478 280,478"/> 
            <glyph glyph-name="ë" unicode="&#xEB;" horiz-adv-x="509" d=" M223,583 Q185,583 171.5,596.5 Q158,610 158,629 Q158,648 171.5,661.5 Q185,675 204,675 Q223,675 236.5,661.5 Q250,648 250,629 Q250,610 223,583 M369,583 Q331,583 317.5,596.5 Q304,610 304,629 Q304,648 317.5,661.5 Q331,675 350,675 Q369,675 382.5,661.5 Q396,648 396,629 Q396,610 369,583 M509,280 Q509,258 507,239 L123,239 Q129,140 170,96 Q211,52 275,52 Q328,52 365.5,83.5 Q403,115 412,171 L502,171 Q487,80 422.5,33 Q358,-14 271,-14 Q163,-14 96.5,57 Q30,128 30,263 Q30,390 101,467 Q172,544 282,544 Q389,544 449,471.5 Q509,399 509,280 M280,478 Q216,478 173.5,433 Q131,388 124,305 L422,305 Q409,478 280,478"/> 
            <glyph glyph-name="ì" unicode="&#xEC;" horiz-adv-x="160" d=" M149,580 L93,580 L8,690 L88,690 M160,0 L74,0 L74,530 L160,530"/> 
            <glyph glyph-name="í" unicode="&#xED;" horiz-adv-x="224" d=" M139,580 L83,580 L144,690 L224,690 M160,0 L74,0 L74,530 L160,530"/> 
            <glyph glyph-name="î" unicode="&#xEE;" horiz-adv-x="214" d=" M84,580 L21,580 L88,690 L147,690 L214,580 L150,580 L117,643 M74,530 L160,530 L160,0 L74,0"/> 
            <glyph glyph-name="ï" unicode="&#xEF;" horiz-adv-x="236" d=" M25,675 Q63,675 76.5,661.5 Q90,648 90,629 Q90,610 76.5,596.5 Q63,583 44,583 Q25,583 11.5,596.5 Q-2,610 -2,629 Q-2,648 25,675 M171,675 Q209,675 222.5,661.5 Q236,648 236,629 Q236,610 222.5,596.5 Q209,583 190,583 Q171,583 157.5,596.5 Q144,610 144,629 Q144,648 171,675 M160,0 L74,0 L74,530 L160,530"/> 
            <glyph glyph-name="ð" unicode="&#xF0;" horiz-adv-x="538" d=" M483,662 L441,645 Q538,533 538,307 Q538,143 464,64.5 Q390,-14 277,-14 Q157,-14 93.5,61 Q30,136 30,257 Q30,387 101,465.5 Q172,544 272,544 Q340,544 389,515 L434,455 Q427,552 366,614 L228,557 L208,609 L317,654 Q282,675 241,690 L295,745 Q352,722 396,687 L463,714 M444,260 L444,289 Q444,384 395.5,431 Q347,478 282,478 Q212,478 168,419.5 Q124,361 124,267 Q124,166 164.5,109 Q205,52 283,52 Q353,52 398.5,105 Q444,158 444,260"/> 
            <glyph glyph-name="ñ" unicode="&#xF1;" horiz-adv-x="522" d=" M253,620 Q237,620 237,600 L199,600 Q199,640 212,655.5 Q225,671 251,671 Q274,671 313,658 Q346,647 357,647 Q373,647 373,667 L411,667 Q411,627 398,611.5 Q385,596 359,596 Q336,596 297,609 Q264,620 253,620 M520,389 Q522,362 522,298 L522,0 L436,0 L436,292 Q436,341 434,368 Q425,476 313,476 Q245,476 202.5,418 Q160,360 160,233 L160,0 L74,0 L74,530 L160,530 L160,439 L193,500 Q250,544 331,544 Q416,544 465,502 Q514,460 520,389"/> 
            <glyph glyph-name="ò" unicode="&#xF2;" horiz-adv-x="556" d=" M269,580 L184,690 L264,690 L325,580 M165,544 Q421,544 488.5,464.5 Q556,385 556,265 Q556,145 488.5,65.5 Q421,-14 293,-14 Q165,-14 97.5,65.5 Q30,145 30,265 Q30,385 165,544 M214,52 Q372,52 417,111 Q462,170 462,265 Q462,361 417,419.5 Q372,478 293,478 Q214,478 169,419.5 Q124,361 124,265 Q124,170 214,52"/> 
            <glyph glyph-name="ó" unicode="&#xF3;" horiz-adv-x="556" d=" M315,580 L259,580 L320,690 L400,690 M165,544 Q421,544 488.5,464.5 Q556,385 556,265 Q556,145 488.5,65.5 Q421,-14 293,-14 Q165,-14 97.5,65.5 Q30,145 30,265 Q30,385 165,544 M214,52 Q372,52 417,111 Q462,170 462,265 Q462,361 417,419.5 Q372,478 293,478 Q214,478 169,419.5 Q124,361 124,265 Q124,170 214,52"/> 
            <glyph glyph-name="ô" unicode="&#xF4;" horiz-adv-x="556" d=" M260,580 L197,580 L264,690 L323,690 L390,580 L326,580 L293,643 M165,544 Q421,544 488.5,464.5 Q556,385 556,265 Q556,145 488.5,65.5 Q421,-14 293,-14 Q165,-14 97.5,65.5 Q30,145 30,265 Q30,385 165,544 M214,52 Q372,52 417,111 Q462,170 462,265 Q462,361 417,419.5 Q372,478 293,478 Q214,478 169,419.5 Q124,361 124,265 Q124,170 214,52"/> 
            <glyph glyph-name="õ" unicode="&#xF5;" horiz-adv-x="556" d=" M241,620 Q225,620 225,600 L187,600 Q187,640 200,655.5 Q213,671 239,671 Q262,671 301,658 Q334,647 345,647 Q361,647 361,667 L399,667 Q399,627 386,611.5 Q373,596 347,596 Q324,596 285,609 Q252,620 241,620 M165,544 Q421,544 488.5,464.5 Q556,385 556,265 Q556,145 488.5,65.5 Q421,-14 293,-14 Q165,-14 97.5,65.5 Q30,145 30,265 Q30,385 165,544 M214,52 Q372,52 417,111 Q462,170 462,265 Q462,361 417,419.5 Q372,478 293,478 Q214,478 169,419.5 Q124,361 124,265 Q124,170 214,52"/> 
            <glyph glyph-name="ö" unicode="&#xF6;" horiz-adv-x="556" d=" M239,583 Q201,583 187.5,596.5 Q174,610 174,629 Q174,648 187.5,661.5 Q201,675 220,675 Q239,675 252.5,661.5 Q266,648 266,629 Q266,610 239,583 M385,583 Q347,583 333.5,596.5 Q320,610 320,629 Q320,648 333.5,661.5 Q347,675 366,675 Q385,675 398.5,661.5 Q412,648 412,629 Q412,610 385,583 M165,544 Q421,544 488.5,464.5 Q556,385 556,265 Q556,145 488.5,65.5 Q421,-14 293,-14 Q165,-14 97.5,65.5 Q30,145 30,265 Q30,385 165,544 M214,52 Q372,52 417,111 Q462,170 462,265 Q462,361 417,419.5 Q372,478 293,478 Q214,478 169,419.5 Q124,361 124,265 Q124,170 214,52"/> 
            <glyph glyph-name="÷" unicode="&#xF7;" horiz-adv-x="500" d=" M268,533 Q316,533 332,517 Q348,501 348,477 Q348,453 332,437 Q316,421 292,421 Q268,421 252,437 Q236,453 236,477 Q236,501 268,533 M500,291 L80,291 L80,347 L500,347 M268,213 Q316,213 332,197 Q348,181 348,157 Q348,133 332,117 Q316,101 292,101 Q268,101 252,117 Q236,133 236,157 Q236,181 268,213"/> 
            <glyph glyph-name="ø" unicode="&#xF8;" horiz-adv-x="594" d=" M594,508 L520,434 Q565,363 565,265 Q565,145 497.5,65.5 Q430,-14 302,-14 Q197,-14 129,43 L67,-19 L26,22 L90,86 Q39,159 39,265 Q39,385 106.5,464.5 Q174,544 302,544 Q415,544 483,479 L553,549 M133,265 Q133,198 155,151 L425,421 Q379,478 302,478 Q223,478 178,419.5 Q133,361 133,265 M471,265 Q471,322 454,368 L187,101 Q231,52 302,52 Q381,52 426,111 Q471,170 471,265"/> 
            <glyph glyph-name="ù" unicode="&#xF9;" horiz-adv-x="514" d=" M266,580 L181,690 L261,690 L322,580 M514,530 L514,0 L428,0 L428,90 L395,28 Q338,-14 257,-14 Q178,-14 129.5,24.5 Q81,63 71,121 Q66,155 66,212 L66,530 L152,530 L152,228 Q152,191 156,155 Q162,109 194,81.5 Q226,54 279,54 Q347,54 387.5,111.5 Q428,169 428,297 L428,530"/> 
            <glyph glyph-name="ú" unicode="&#xFA;" horiz-adv-x="514" d=" M312,580 L256,580 L317,690 L397,690 M514,530 L514,0 L428,0 L428,90 L395,28 Q338,-14 257,-14 Q178,-14 129.5,24.5 Q81,63 71,121 Q66,155 66,212 L66,530 L152,530 L152,228 Q152,191 156,155 Q162,109 194,81.5 Q226,54 279,54 Q347,54 387.5,111.5 Q428,169 428,297 L428,530"/> 
            <glyph glyph-name="û" unicode="&#xFB;" horiz-adv-x="514" d=" M257,580 L194,580 L261,690 L320,690 L387,580 L323,580 L290,643 M514,530 L514,0 L428,0 L428,90 L395,28 Q338,-14 257,-14 Q178,-14 129.5,24.5 Q81,63 71,121 Q66,155 66,212 L66,530 L152,530 L152,228 Q152,191 156,155 Q162,109 194,81.5 Q226,54 279,54 Q347,54 387.5,111.5 Q428,169 428,297 L428,530"/> 
            <glyph glyph-name="ü" unicode="&#xFC;" horiz-adv-x="514" d=" M236,583 Q198,583 184.5,596.5 Q171,610 171,629 Q171,648 184.5,661.5 Q198,675 217,675 Q236,675 249.5,661.5 Q263,648 263,629 Q263,610 236,583 M382,583 Q344,583 330.5,596.5 Q317,610 317,629 Q317,648 330.5,661.5 Q344,675 363,675 Q382,675 395.5,661.5 Q409,648 409,629 Q409,610 382,583 M514,530 L514,0 L428,0 L428,90 L395,28 Q338,-14 257,-14 Q178,-14 129.5,24.5 Q81,63 71,121 Q66,155 66,212 L66,530 L152,530 L152,228 Q152,191 156,155 Q162,109 194,81.5 Q226,54 279,54 Q347,54 387.5,111.5 Q428,169 428,297 L428,530"/> 
            <glyph glyph-name="ý" unicode="&#xFD;" horiz-adv-x="507" d=" M279,580 L223,580 L284,690 L364,690 M507,530 L289,-45 Q256,-130 211.5,-170 Q167,-210 103,-210 Q72,-210 59,-208 L59,-138 Q72,-139 90,-139 Q131,-139 158,-118 Q185,-97 205,-46 L212,-27 L1,530 L98,530 L256,64 L413,530"/> 
            <glyph glyph-name="þ" unicode="&#xFE;" horiz-adv-x="581" d=" M340,544 Q453,544 517,468.5 Q581,393 581,273 Q581,134 506.5,60 Q432,-14 322,-14 Q287,-14 250.5,-4.5 Q214,5 195,21 L160,73 L160,-196 L74,-196 L74,735 L160,735 L160,445 L200,502 Q250,544 340,544 M322,52 Q395,52 441,107 Q487,162 487,263 Q487,357 445.5,417.5 Q404,478 327,478 Q254,478 207,427.5 Q160,377 160,270 L160,241 Q160,146 208.5,99 Q257,52 322,52"/> 
            <glyph glyph-name="ÿ" unicode="&#xFF;" horiz-adv-x="507" d=" M203,583 Q165,583 151.5,596.5 Q138,610 138,629 Q138,648 151.5,661.5 Q165,675 184,675 Q203,675 216.5,661.5 Q230,648 230,629 Q230,610 203,583 M349,583 Q311,583 297.5,596.5 Q284,610 284,629 Q284,648 297.5,661.5 Q311,675 330,675 Q349,675 362.5,661.5 Q376,648 376,629 Q376,610 349,583 M507,530 L289,-45 Q256,-130 211.5,-170 Q167,-210 103,-210 Q72,-210 59,-208 L59,-138 Q72,-139 90,-139 Q131,-139 158,-118 Q185,-97 205,-46 L212,-27 L1,530 L98,530 L256,64 L413,530"/> 
            <glyph glyph-name="Ā" unicode="&#x100;" horiz-adv-x="631" d=" M455,757 L215,757 L215,809 L455,809 M456,244 L202,244 L121,0 L29,0 L277,690 L393,690 L631,0 L538,0 M226,314 L433,314 L333,622"/> 
            <glyph glyph-name="ā" unicode="&#x101;" horiz-adv-x="464" d=" M384,604 L144,604 L144,656 L384,656 M378,0 L369,76 L340,19 Q292,-14 207,-14 Q132,-14 84,26 Q36,66 36,137 Q36,228 108,273.5 Q180,319 334,319 L368,319 L368,333 Q368,377 366,397 Q359,478 263,478 Q158,478 149,366 L59,366 Q65,450 119.5,497 Q174,544 263,544 Q437,544 451,404 Q454,373 454,334 L454,135 Q454,74 464,0 M236,52 Q297,52 332.5,91 Q368,130 368,201 L368,255 Q130,273 130,144 Q130,52 236,52"/> 
            <glyph glyph-name="Ă" unicode="&#x102;" horiz-adv-x="631" d=" M437,722 Q233,722 233,830 L286,830 Q287,777 335,777 Q383,777 384,830 L437,830 M456,244 L202,244 L121,0 L29,0 L277,690 L393,690 L631,0 L538,0 M226,314 L433,314 L333,622"/> 
            <glyph glyph-name="ă" unicode="&#x103;" horiz-adv-x="464" d=" M264,566 Q211,566 186.5,596.5 Q162,627 162,690 L215,690 Q216,621 264,621 Q312,621 313,690 L366,690 Q366,566 264,566 M378,0 L369,76 L340,19 Q292,-14 207,-14 Q132,-14 84,26 Q36,66 36,137 Q36,228 108,273.5 Q180,319 334,319 L368,319 L368,333 Q368,377 366,397 Q359,478 263,478 Q158,478 149,366 L59,366 Q65,450 119.5,497 Q174,544 263,544 Q437,544 451,404 Q454,373 454,334 L454,135 Q454,74 464,0 M236,52 Q297,52 332.5,91 Q368,130 368,201 L368,255 Q130,273 130,144 Q130,52 236,52"/> 
            <glyph glyph-name="Ą" unicode="&#x104;" horiz-adv-x="631" d=" M504,-119 Q504,-169 548,-169 Q578,-169 604,-149 L604,-198 Q567,-223 515,-223 Q422,-223 422,-138 Q422,-85 454,-46 Q486,-7 534,11 L456,244 L202,244 L121,0 L29,0 L277,690 L393,690 L631,0 L598,0 Q559,-7 531.5,-40 Q504,-73 504,-119 M226,314 L433,314 L333,622"/> 
            <glyph glyph-name="ą" unicode="&#x105;" horiz-adv-x="464" d=" M347,-119 Q347,-169 391,-169 Q421,-169 447,-149 L447,-198 Q410,-223 358,-223 Q265,-223 265,-138 Q265,-85 297,-46.5 Q329,-8 377,11 L369,76 L340,19 Q292,-14 207,-14 Q132,-14 84,26 Q36,66 36,137 Q36,228 108,273.5 Q180,319 334,319 L368,319 L368,333 Q368,377 366,397 Q359,478 263,478 Q158,478 149,366 L59,366 Q65,450 119.5,497 Q174,544 263,544 Q437,544 451,404 Q454,373 454,334 L454,135 Q454,74 464,0 L441,0 Q402,-7 374.5,-40 Q347,-73 347,-119 M236,52 Q297,52 332.5,91 Q368,130 368,201 L368,255 Q130,273 130,144 Q130,52 236,52"/> 
            <glyph glyph-name="Ć" unicode="&#x106;" horiz-adv-x="655" d=" M389,736 L333,736 L387,830 L467,830 M373,704 Q500,704 571.5,640 Q643,576 654,470 L655,460 L569,460 L567,470 Q533,636 371,636 Q267,636 205,554.5 Q143,473 143,346 Q143,217 203.5,135.5 Q264,54 365,54 Q527,54 561,220 L563,230 L649,230 L648,220 Q638,119 563.5,52.5 Q489,-14 360,-14 Q213,-14 130,86 Q47,186 47,342 Q47,501 137,602.5 Q227,704 373,704"/> 
            <glyph glyph-name="ć" unicode="&#x107;" horiz-adv-x="503" d=" M291,580 L235,580 L296,690 L376,690 M279,544 Q373,544 432,492 Q491,440 503,352 L413,352 Q385,478 277,478 Q211,478 167.5,425 Q124,372 124,270 Q124,161 165.5,106.5 Q207,52 271,52 Q324,52 359.5,82 Q395,112 408,169 L498,169 Q479,79 418,32.5 Q357,-14 266,-14 Q160,-14 95,55.5 Q30,125 30,264 Q30,393 102,468.5 Q174,544 279,544"/> 
            <glyph glyph-name="Ċ" unicode="&#x10A;" horiz-adv-x="655" d=" M347,829 Q385,829 398.5,815.5 Q412,802 412,783 Q412,764 398.5,750.5 Q385,737 366,737 Q347,737 333.5,750.5 Q320,764 320,783 Q320,802 347,829 M373,704 Q500,704 571.5,640 Q643,576 654,470 L655,460 L569,460 L567,470 Q533,636 371,636 Q267,636 205,554.5 Q143,473 143,346 Q143,217 203.5,135.5 Q264,54 365,54 Q527,54 561,220 L563,230 L649,230 L648,220 Q638,119 563.5,52.5 Q489,-14 360,-14 Q213,-14 130,86 Q47,186 47,342 Q47,501 137,602.5 Q227,704 373,704"/> 
            <glyph glyph-name="ċ" unicode="&#x10B;" horiz-adv-x="503" d=" M246,704 Q292,704 308,688 Q324,672 324,649 Q324,626 308,610 Q292,594 269,594 Q246,594 230,610 Q214,626 214,649 Q214,672 246,704 M279,544 Q373,544 432,492 Q491,440 503,352 L413,352 Q385,478 277,478 Q211,478 167.5,425 Q124,372 124,270 Q124,161 165.5,106.5 Q207,52 271,52 Q324,52 359.5,82 Q395,112 408,169 L498,169 Q479,79 418,32.5 Q357,-14 266,-14 Q160,-14 95,55.5 Q30,125 30,264 Q30,393 102,468.5 Q174,544 279,544"/> 
            <glyph glyph-name="Č" unicode="&#x10C;" horiz-adv-x="655" d=" M337,736 L270,830 L337,830 L367,775 L397,830 L463,830 L396,736 M563,230 L649,230 L648,220 Q638,119 563.5,52.5 Q489,-14 360,-14 Q213,-14 130,86 Q47,186 47,342 Q47,501 137,602.5 Q227,704 373,704 Q500,704 571.5,640 Q643,576 654,470 L655,460 L569,460 L567,470 Q533,636 371,636 Q267,636 205,554.5 Q143,473 143,346 Q143,217 203.5,135.5 Q264,54 365,54 Q527,54 561,220"/> 
            <glyph glyph-name="č" unicode="&#x10D;" horiz-adv-x="503" d=" M240,580 L173,690 L237,690 L270,627 L303,690 L366,690 L299,580 M271,52 Q324,52 359.5,82 Q395,112 408,169 L498,169 Q479,79 418,32.5 Q357,-14 266,-14 Q160,-14 95,55.5 Q30,125 30,264 Q30,393 102,468.5 Q174,544 279,544 Q373,544 432,492 Q491,440 503,352 L413,352 Q385,478 277,478 Q211,478 167.5,425 Q124,372 124,270 Q124,161 165.5,106.5 Q207,52 271,52"/> 
            <glyph glyph-name="Ď" unicode="&#x10E;" horiz-adv-x="671" d=" M341,736 L274,830 L341,830 L371,775 L401,830 L467,830 L400,736 M398,686 Q523,670 597,586 Q671,502 671,353 Q671,205 594,112 Q517,19 393,4 Q358,0 305,0 L100,0 L100,690 L310,690 Q363,690 398,686 M384,75 Q474,90 525.5,161.5 Q577,233 577,353 Q577,466 527.5,533.5 Q478,601 389,615 Q362,620 305,620 L186,620 L186,70 L300,70 Q356,70 384,75"/> 
            <glyph glyph-name="ď" unicode="&#x10F;" horiz-adv-x="684" d=" M451,735 L537,735 L537,0 L451,0 L451,85 L411,28 Q361,-14 271,-14 Q158,-14 94,61.5 Q30,137 30,257 Q30,396 104.5,470 Q179,544 289,544 Q324,544 360.5,534.5 Q397,525 416,509 L451,457 M684,735 L684,723 L624,591 L563,591 L615,735 M284,52 Q357,52 404,102.5 Q451,153 451,260 L451,289 Q451,384 402.5,431 Q354,478 289,478 Q216,478 170,423 Q124,368 124,267 Q124,173 165.5,112.5 Q207,52 284,52"/> 
            <glyph glyph-name="Đ" unicode="&#x110;" horiz-adv-x="663" d=" M390,686 Q515,670 589,586 Q663,502 663,353 Q663,205 586,112 Q509,19 385,4 Q350,0 297,0 L92,0 L92,305 L33,305 L33,361 L92,361 L92,690 L302,690 Q355,690 390,686 M376,75 Q466,90 517.5,161.5 Q569,233 569,353 Q569,466 519.5,533.5 Q470,601 381,615 Q353,620 297,620 L178,620 L178,361 L314,361 L314,305 L178,305 L178,70 L292,70 Q348,70 376,75"/> 
            <glyph glyph-name="đ" unicode="&#x111;" horiz-adv-x="581" d=" M581,595 L537,595 L537,0 L451,0 L451,85 L411,28 Q361,-14 271,-14 Q158,-14 94,61.5 Q30,137 30,257 Q30,396 104.5,470 Q179,544 289,544 Q324,544 360.5,534.5 Q397,525 416,509 L451,457 L451,595 L335,595 L335,651 L451,651 L451,735 L537,735 L537,651 L581,651 M284,52 Q357,52 404,102.5 Q451,153 451,260 L451,289 Q451,384 402.5,431 Q354,478 289,478 Q216,478 170,423 Q124,368 124,267 Q124,173 165.5,112.5 Q207,52 284,52"/> 
            <glyph glyph-name="Ē" unicode="&#x112;" horiz-adv-x="559" d=" M456,757 L216,757 L216,809 L456,809 M559,70 L559,0 L100,0 L100,690 L549,690 L549,620 L186,620 L186,380 L519,380 L519,310 L186,310 L186,70"/> 
            <glyph glyph-name="ē" unicode="&#x113;" horiz-adv-x="509" d=" M397,604 L157,604 L157,656 L397,656 M509,280 Q509,258 507,239 L123,239 Q129,140 170,96 Q211,52 275,52 Q328,52 365.5,83.5 Q403,115 412,171 L502,171 Q487,80 422.5,33 Q358,-14 271,-14 Q163,-14 96.5,57 Q30,128 30,263 Q30,390 101,467 Q172,544 282,544 Q389,544 449,471.5 Q509,399 509,280 M280,478 Q216,478 173.5,433 Q131,388 124,305 L422,305 Q409,478 280,478"/> 
            <glyph glyph-name="Ė" unicode="&#x116;" horiz-adv-x="559" d=" M355,737 Q317,737 303.5,750.5 Q290,764 290,783 Q290,802 303.5,815.5 Q317,829 336,829 Q355,829 368.5,815.5 Q382,802 382,783 Q382,764 355,737 M559,70 L559,0 L100,0 L100,690 L549,690 L549,620 L186,620 L186,380 L519,380 L519,310 L186,310 L186,70"/> 
            <glyph glyph-name="ė" unicode="&#x117;" horiz-adv-x="509" d=" M300,594 Q254,594 238,610 Q222,626 222,649 Q222,672 238,688 Q254,704 277,704 Q300,704 316,688 Q332,672 332,649 Q332,626 300,594 M509,280 Q509,258 507,239 L123,239 Q129,140 170,96 Q211,52 275,52 Q328,52 365.5,83.5 Q403,115 412,171 L502,171 Q487,80 422.5,33 Q358,-14 271,-14 Q163,-14 96.5,57 Q30,128 30,263 Q30,390 101,467 Q172,544 282,544 Q389,544 449,471.5 Q509,399 509,280 M280,478 Q216,478 173.5,433 Q131,388 124,305 L422,305 Q409,478 280,478"/> 
            <glyph glyph-name="Ę" unicode="&#x118;" horiz-adv-x="566" d=" M510,-169 Q540,-169 566,-149 L566,-198 Q529,-223 477,-223 Q384,-223 384,-138 Q384,-47 473,0 L100,0 L100,690 L549,690 L549,620 L186,620 L186,380 L519,380 L519,310 L186,310 L186,70 L559,70 L559,0 L560,0 Q521,-7 493.5,-40 Q466,-73 466,-119 Q466,-169 510,-169"/> 
            <glyph glyph-name="ę" unicode="&#x119;" horiz-adv-x="509" d=" M509,280 Q509,258 507,239 L123,239 Q129,140 170,96 Q211,52 275,52 Q328,52 365.5,83.5 Q403,115 412,171 L502,171 Q481,41 360,0 L339,-6 Q307,-19 286.5,-49.5 Q266,-80 266,-119 Q266,-169 310,-169 Q340,-169 366,-149 L366,-198 Q329,-223 277,-223 Q184,-223 184,-138 Q184,-62 251,-13 Q151,-7 90.5,63.5 Q30,134 30,263 Q30,390 101,467 Q172,544 282,544 Q389,544 449,471.5 Q509,399 509,280 M280,478 Q216,478 173.5,433 Q131,388 124,305 L422,305 Q409,478 280,478"/> 
            <glyph glyph-name="Ě" unicode="&#x11A;" horiz-adv-x="559" d=" M307,736 L240,830 L307,830 L337,775 L367,830 L433,830 L366,736 M559,70 L559,0 L100,0 L100,690 L549,690 L549,620 L186,620 L186,380 L519,380 L519,310 L186,310 L186,70"/> 
            <glyph glyph-name="ě" unicode="&#x11B;" horiz-adv-x="509" d=" M248,580 L181,690 L245,690 L278,627 L311,690 L374,690 L307,580 M509,280 Q509,258 507,239 L123,239 Q129,140 170,96 Q211,52 275,52 Q328,52 365.5,83.5 Q403,115 412,171 L502,171 Q487,80 422.5,33 Q358,-14 271,-14 Q163,-14 96.5,57 Q30,128 30,263 Q30,390 101,467 Q172,544 282,544 Q389,544 449,471.5 Q509,399 509,280 M280,478 Q216,478 173.5,433 Q131,388 124,305 L422,305 Q409,478 280,478"/> 
            <glyph glyph-name="Ğ" unicode="&#x11E;" horiz-adv-x="655" d=" M465,722 Q261,722 261,830 L314,830 Q315,777 363,777 Q411,777 412,830 L465,830 M399,333 L646,333 L646,0 L570,0 L570,120 L539,56 Q477,-14 360,-14 Q213,-14 130,86 Q47,186 47,342 Q47,501 137,602.5 Q227,704 373,704 Q500,704 571.5,640 Q643,576 654,470 L655,460 L569,460 L567,470 Q533,636 371,636 Q267,636 205,554.5 Q143,473 143,346 Q143,217 203.5,135.5 Q264,54 365,54 Q449,54 504.5,112.5 Q560,171 560,263 L399,263"/> 
            <glyph glyph-name="ğ" unicode="&#x11F;" horiz-adv-x="537" d=" M303,566 Q250,566 225.5,596.5 Q201,627 201,690 L254,690 Q255,621 303,621 Q351,621 352,690 L405,690 Q405,566 303,566 M537,530 L537,130 Q537,56 536,27 Q532,-88 466,-149 Q400,-210 284,-210 Q64,-210 47,-35 L46,-25 L133,-25 L134,-34 Q139,-84 178,-114 Q217,-144 284,-144 Q362,-144 404.5,-101.5 Q447,-59 450,18 Q451,43 451,76 L451,85 L411,28 Q361,-14 271,-14 Q158,-14 94,61.5 Q30,137 30,257 Q30,396 104.5,470 Q179,544 289,544 Q324,544 360.5,534.5 Q397,525 416,509 L451,457 L451,530 M284,52 Q357,52 404,102.5 Q451,153 451,260 L451,289 Q451,384 402.5,431 Q354,478 289,478 Q216,478 170,423 Q124,368 124,267 Q124,173 165.5,112.5 Q207,52 284,52"/> 
            <glyph glyph-name="Ġ" unicode="&#x120;" horiz-adv-x="655" d=" M382,737 Q344,737 330.5,750.5 Q317,764 317,783 Q317,802 330.5,815.5 Q344,829 363,829 Q382,829 395.5,815.5 Q409,802 409,783 Q409,764 382,737 M399,333 L646,333 L646,0 L570,0 L570,120 L539,56 Q477,-14 360,-14 Q213,-14 130,86 Q47,186 47,342 Q47,501 137,602.5 Q227,704 373,704 Q500,704 571.5,640 Q643,576 654,470 L655,460 L569,460 L567,470 Q533,636 371,636 Q267,636 205,554.5 Q143,473 143,346 Q143,217 203.5,135.5 Q264,54 365,54 Q449,54 504.5,112.5 Q560,171 560,263 L399,263"/> 
            <glyph glyph-name="ġ" unicode="&#x121;" horiz-adv-x="537" d=" M326,594 Q280,594 264,610 Q248,626 248,649 Q248,672 264,688 Q280,704 303,704 Q326,704 342,688 Q358,672 358,649 Q358,626 326,594 M537,530 L537,130 Q537,56 536,27 Q532,-88 466,-149 Q400,-210 284,-210 Q64,-210 47,-35 L46,-25 L133,-25 L134,-34 Q139,-84 178,-114 Q217,-144 284,-144 Q362,-144 404.5,-101.5 Q447,-59 450,18 Q451,43 451,76 L451,85 L411,28 Q361,-14 271,-14 Q158,-14 94,61.5 Q30,137 30,257 Q30,396 104.5,470 Q179,544 289,544 Q324,544 360.5,534.5 Q397,525 416,509 L451,457 L451,530 M284,52 Q357,52 404,102.5 Q451,153 451,260 L451,289 Q451,384 402.5,431 Q354,478 289,478 Q216,478 170,423 Q124,368 124,267 Q124,173 165.5,112.5 Q207,52 284,52"/> 
            <glyph glyph-name="Ģ" unicode="&#x122;" horiz-adv-x="655" d=" M399,333 L646,333 L646,0 L570,0 L570,120 L539,56 Q477,-14 360,-14 Q213,-14 130,86 Q47,186 47,342 Q47,501 137,602.5 Q227,704 373,704 Q500,704 571.5,640 Q643,576 654,470 L655,460 L569,460 L567,470 Q533,636 371,636 Q267,636 205,554.5 Q143,473 143,346 Q143,217 203.5,135.5 Q264,54 365,54 Q449,54 504.5,112.5 Q560,171 560,263 L399,263 M336,-51 L405,-51 L405,-63 L345,-195 L284,-195"/> 
            <glyph glyph-name="ģ" unicode="&#x123;" horiz-adv-x="537" d=" M334,581 L265,581 L265,593 L325,725 L386,725 M537,530 L537,130 Q537,56 536,27 Q532,-88 466,-149 Q400,-210 284,-210 Q64,-210 47,-35 L46,-25 L133,-25 L134,-34 Q139,-84 178,-114 Q217,-144 284,-144 Q362,-144 404.5,-101.5 Q447,-59 450,18 Q451,43 451,76 L451,85 L411,28 Q361,-14 271,-14 Q158,-14 94,61.5 Q30,137 30,257 Q30,396 104.5,470 Q179,544 289,544 Q324,544 360.5,534.5 Q397,525 416,509 L451,457 L451,530 M284,52 Q357,52 404,102.5 Q451,153 451,260 L451,289 Q451,384 402.5,431 Q354,478 289,478 Q216,478 170,423 Q124,368 124,267 Q124,173 165.5,112.5 Q207,52 284,52"/> 
            <glyph glyph-name="Ħ" unicode="&#x126;" horiz-adv-x="692" d=" M692,502 L652,502 L652,0 L566,0 L566,302 L186,302 L186,0 L100,0 L100,502 L60,502 L60,558 L100,558 L100,690 L186,690 L186,558 L566,558 L566,690 L652,690 L652,558 L692,558 M566,502 L186,502 L186,374 L566,374"/> 
            <glyph glyph-name="ħ" unicode="&#x127;" horiz-adv-x="538" d=" M536,389 Q538,362 538,298 L538,0 L452,0 L452,292 Q452,341 450,368 Q446,418 416.5,447.5 Q387,477 329,476 Q260,474 218,417 Q176,360 176,233 L176,0 L90,0 L90,595 L34,595 L34,651 L90,651 L90,740 L176,740 L176,651 L280,651 L280,595 L176,595 L176,439 L209,500 Q266,544 347,544 Q432,544 481,502 Q530,460 536,389"/> 
            <glyph glyph-name="Ī" unicode="&#x12A;" horiz-adv-x="263" d=" M263,757 L23,757 L23,809 L263,809 M186,0 L100,0 L100,690 L186,690"/> 
            <glyph glyph-name="ī" unicode="&#x12B;" horiz-adv-x="237" d=" M237,604 L-3,604 L-3,656 L237,656 M160,0 L74,0 L74,530 L160,530"/> 
            <glyph glyph-name="Į" unicode="&#x12E;" horiz-adv-x="186" d=" M186,0 L162,0 Q123,-7 95.5,-40 Q68,-73 68,-119 Q68,-169 112,-169 Q142,-169 168,-149 L168,-198 Q131,-223 79,-223 Q-14,-223 -14,-138 Q-14,-84 18.5,-45.5 Q51,-7 99,11 L100,11 L100,690 L186,690"/> 
            <glyph glyph-name="į" unicode="&#x12F;" horiz-adv-x="172" d=" M140,594 Q94,594 78,610 Q62,626 62,649 Q62,672 78,688 Q94,704 117,704 Q140,704 156,688 Q172,672 172,649 Q172,626 140,594 M74,530 L160,530 L160,0 L137,0 Q98,-7 70.5,-40 Q43,-73 43,-119 Q43,-169 87,-169 Q117,-169 143,-149 L143,-198 Q106,-223 54,-223 Q-39,-223 -39,-138 Q-39,-84 -6.5,-45.5 Q26,-7 74,11"/> 
            <glyph glyph-name="İ" unicode="&#x130;" horiz-adv-x="189" d=" M124,829 Q162,829 175.5,815.5 Q189,802 189,783 Q189,764 175.5,750.5 Q162,737 143,737 Q124,737 110.5,750.5 Q97,764 97,783 Q97,802 124,829 M186,0 L100,0 L100,690 L186,690"/> 
            <glyph glyph-name="ı" unicode="&#x131;" horiz-adv-x="160" d=" M160,0 L74,0 L74,530 L160,530"/> 
            <glyph glyph-name="Ĳ" unicode="&#x132;" horiz-adv-x="752" d=" M186,0 L100,0 L100,690 L186,690 M752,690 L752,264 Q752,215 750,181 Q745,90 689,38 Q633,-14 527,-14 Q431,-14 376.5,41.5 Q322,97 320,194 L319,235 L405,235 L407,194 Q414,54 539,54 Q655,54 665,186 Q666,206 666,267 L666,690"/> 
            <glyph glyph-name="ĳ" unicode="&#x133;" horiz-adv-x="405" d=" M94,704 Q140,704 156,688 Q172,672 172,649 Q172,626 156,610 Q140,594 117,594 Q94,594 78,610 Q62,626 62,649 Q62,672 94,704 M327,704 Q373,704 389,688 Q405,672 405,649 Q405,626 389,610 Q373,594 350,594 Q327,594 311,610 Q295,626 295,649 Q295,672 327,704 M160,0 L74,0 L74,530 L160,530 M393,530 L393,-46 Q393,-83 390,-110 Q379,-210 266,-210 Q238,-210 225,-208 L225,-138 Q299,-145 305,-94 Q307,-80 307,-50 L307,530"/> 
            <glyph glyph-name="Ķ" unicode="&#x136;" horiz-adv-x="628" d=" M315,353 L610,0 L489,0 L252,295 L186,224 L186,0 L100,0 L100,690 L186,690 L186,323 L527,690 L628,690 M309,-51 L378,-51 L378,-63 L318,-195 L257,-195"/> 
            <glyph glyph-name="ķ" unicode="&#x137;" horiz-adv-x="520" d=" M520,0 L403,0 L210,224 L160,169 L160,0 L74,0 L74,735 L160,735 L160,263 L407,530 L517,530 L270,280 M242,-51 L311,-51 L311,-63 L251,-195 L190,-195"/> 
            <glyph glyph-name="Ĺ" unicode="&#x139;" horiz-adv-x="559" d=" M166,736 L110,736 L164,830 L244,830 M559,70 L559,0 L100,0 L100,690 L186,690 L186,70"/> 
            <glyph glyph-name="ĺ" unicode="&#x13A;" horiz-adv-x="222" d=" M135,785 L79,785 L140,895 L220,895 M156,735 L156,152 Q156,119 157,102 Q159,76 173,67 Q187,58 222,62 L222,0 Q197,-4 161,-4 Q119,-4 96,14 Q73,32 71,79 Q70,97 70,149 L70,735"/> 
            <glyph glyph-name="Ļ" unicode="&#x13B;" horiz-adv-x="559" d=" M559,70 L559,0 L100,0 L100,690 L186,690 L186,70 M305,-51 L374,-51 L374,-63 L314,-195 L253,-195"/> 
            <glyph glyph-name="ļ" unicode="&#x13C;" horiz-adv-x="222" d=" M156,735 L156,152 Q156,119 157,102 Q159,76 173,67 Q187,58 222,62 L222,0 Q197,-4 161,-4 Q119,-4 96,14 Q73,32 71,79 Q70,97 70,149 L70,735 M161,-63 L101,-195 L40,-195 L92,-51 L161,-51"/> 
            <glyph glyph-name="Ľ" unicode="&#x13D;" horiz-adv-x="559" d=" M559,70 L559,0 L100,0 L100,690 L186,690 L186,70"/> 
            <glyph glyph-name="ľ" unicode="&#x13E;" horiz-adv-x="222" d=" M156,735 L156,152 Q156,119 157,102 Q159,76 173,67 Q187,58 222,62 L222,0 Q197,-4 161,-4 Q119,-4 96,14 Q73,32 71,79 Q70,97 70,149 L70,735"/> 
            <glyph glyph-name="Ŀ" unicode="&#x13F;" horiz-adv-x="559" d=" M559,70 L559,0 L100,0 L100,690 L186,690 L186,70 M415,345 Q369,345 353,361 Q337,377 337,400 Q337,423 353,439 Q369,455 392,455 Q415,455 431,439 Q447,423 447,400 Q447,377 415,345"/> 
            <glyph glyph-name="ŀ" unicode="&#x140;" horiz-adv-x="336" d=" M156,735 L156,152 Q156,119 157,102 Q159,76 173,67 Q187,58 222,62 L222,0 Q197,-4 161,-4 Q119,-4 96,14 Q73,32 71,79 Q70,97 70,149 L70,735 M258,455 Q304,455 320,439 Q336,423 336,400 Q336,377 320,361 Q304,345 281,345 Q258,345 242,361 Q226,377 226,400 Q226,423 258,455"/> 
            <glyph glyph-name="Ł" unicode="&#x141;" horiz-adv-x="581" d=" M581,70 L581,0 L122,0 L122,288 L14,224 L14,291 L122,355 L122,690 L208,690 L208,406 L334,481 L334,414 L208,339 L208,70"/> 
            <glyph glyph-name="ł" unicode="&#x142;" horiz-adv-x="249" d=" M184,102 Q186,76 200,67 Q214,58 249,62 L249,0 Q224,-4 188,-4 Q146,-4 123,14 Q100,32 98,79 Q97,97 97,149 L97,264 L32,225 L32,292 L97,331 L97,735 L183,735 L183,381 L248,420 L248,353 L183,314 L183,152 Q183,119 184,102"/> 
            <glyph glyph-name="Ń" unicode="&#x143;" horiz-adv-x="640" d=" M393,736 L337,736 L391,830 L471,830 M640,0 L508,0 L183,606 Q186,484 186,345 L186,0 L100,0 L100,690 L232,690 L557,84 Q554,205 554,345 L554,690 L638,690"/> 
            <glyph glyph-name="ń" unicode="&#x144;" horiz-adv-x="522" d=" M412,690 L327,580 L271,580 L332,690 M520,389 Q522,362 522,298 L522,0 L436,0 L436,292 Q436,341 434,368 Q425,476 313,476 Q245,476 202.5,418 Q160,360 160,233 L160,0 L74,0 L74,530 L160,530 L160,439 L193,500 Q250,544 331,544 Q416,544 465,502 Q514,460 520,389"/> 
            <glyph glyph-name="Ņ" unicode="&#x145;" horiz-adv-x="640" d=" M640,0 L508,0 L183,606 Q186,484 186,345 L186,0 L100,0 L100,690 L232,690 L557,84 Q554,205 554,345 L554,690 L638,690 M414,-63 L354,-195 L293,-195 L345,-51 L414,-51"/> 
            <glyph glyph-name="ņ" unicode="&#x146;" horiz-adv-x="522" d=" M520,389 Q522,362 522,298 L522,0 L436,0 L436,292 Q436,341 434,368 Q425,476 313,476 Q245,476 202.5,418 Q160,360 160,233 L160,0 L74,0 L74,530 L160,530 L160,439 L193,500 Q250,544 331,544 Q416,544 465,502 Q514,460 520,389 M213,-195 L265,-51 L334,-51 L334,-63 L274,-195"/> 
            <glyph glyph-name="Ň" unicode="&#x147;" horiz-adv-x="640" d=" M341,736 L274,830 L341,830 L371,775 L401,830 L467,830 L400,736 M508,0 L183,606 Q186,484 186,345 L186,0 L100,0 L100,690 L232,690 L557,84 Q554,205 554,345 L554,690 L638,690 L640,0"/> 
            <glyph glyph-name="ň" unicode="&#x148;" horiz-adv-x="522" d=" M335,580 L276,580 L209,690 L273,690 L306,627 L339,690 L402,690 M520,389 Q522,362 522,298 L522,0 L436,0 L436,292 Q436,341 434,368 Q425,476 313,476 Q245,476 202.5,418 Q160,360 160,233 L160,0 L74,0 L74,530 L160,530 L160,439 L193,500 Q250,544 331,544 Q416,544 465,502 Q514,460 520,389"/> 
            <glyph glyph-name="Ŋ" unicode="&#x14A;" horiz-adv-x="640" d=" M640,690 L640,-67 Q640,-94 639,-108 Q633,-171 593,-197 Q553,-223 482,-223 L482,-153 Q521,-153 537,-135.5 Q553,-118 553,-83 L553,-31 L183,598 Q186,477 186,345 L186,0 L100,0 L100,690 L232,690 L557,124 Q554,246 554,365 L554,690"/> 
            <glyph glyph-name="ŋ" unicode="&#x14B;" horiz-adv-x="522" d=" M520,389 Q522,362 522,298 L522,-54 Q522,-81 521,-95 Q516,-162 476,-186 Q436,-210 355,-210 L355,-140 Q397,-140 414.5,-129 Q432,-118 435,-87 Q436,-79 436,-60 L436,292 Q436,341 434,368 Q425,476 313,476 Q245,476 202.5,418 Q160,360 160,233 L160,0 L74,0 L74,530 L160,530 L160,439 L193,500 Q250,544 331,544 Q416,544 465,502 Q514,460 520,389"/> 
            <glyph glyph-name="Ō" unicode="&#x14C;" horiz-adv-x="699" d=" M493,757 L253,757 L253,809 L493,809 M219,704 Q527,704 613,605.5 Q699,507 699,345 Q699,184 613,85 Q527,-14 373,-14 Q219,-14 133,85 Q47,184 47,345 Q47,507 219,704 M265,54 Q481,54 542,132 Q603,210 603,345 Q603,481 542,558.5 Q481,636 373,636 Q265,636 204,558.5 Q143,481 143,345 Q143,210 265,54"/> 
            <glyph glyph-name="ō" unicode="&#x14D;" horiz-adv-x="556" d=" M413,604 L173,604 L173,656 L413,656 M165,544 Q421,544 488.5,464.5 Q556,385 556,265 Q556,145 488.5,65.5 Q421,-14 293,-14 Q165,-14 97.5,65.5 Q30,145 30,265 Q30,385 165,544 M214,52 Q372,52 417,111 Q462,170 462,265 Q462,361 417,419.5 Q372,478 293,478 Q214,478 169,419.5 Q124,361 124,265 Q124,170 214,52"/> 
            <glyph glyph-name="Ő" unicode="&#x150;" horiz-adv-x="699" d=" M325,736 L269,736 L323,830 L403,830 M378,736 L432,830 L512,830 L434,736 M219,704 Q527,704 613,605.5 Q699,507 699,345 Q699,184 613,85 Q527,-14 373,-14 Q219,-14 133,85 Q47,184 47,345 Q47,507 219,704 M265,54 Q481,54 542,132 Q603,210 603,345 Q603,481 542,558.5 Q481,636 373,636 Q265,636 204,558.5 Q143,481 143,345 Q143,210 265,54"/> 
            <glyph glyph-name="ő" unicode="&#x151;" horiz-adv-x="556" d=" M259,580 L203,580 L264,690 L344,690 M325,580 L386,690 L466,690 L381,580 M165,544 Q421,544 488.5,464.5 Q556,385 556,265 Q556,145 488.5,65.5 Q421,-14 293,-14 Q165,-14 97.5,65.5 Q30,145 30,265 Q30,385 165,544 M214,52 Q372,52 417,111 Q462,170 462,265 Q462,361 417,419.5 Q372,478 293,478 Q214,478 169,419.5 Q124,361 124,265 Q124,170 214,52"/> 
            <glyph glyph-name="Œ" unicode="&#x152;" horiz-adv-x="1062" d=" M1062,70 L1062,0 L603,0 L603,141 L576,68 Q504,-14 363,-14 Q217,-14 132,88 Q47,190 47,345 Q47,501 132,602.5 Q217,704 363,704 Q439,704 487.5,684.5 Q536,665 576,618 L603,547 L603,690 L1052,690 L1052,620 L689,620 L689,380 L1022,380 L1022,310 L689,310 L689,70 M266,54 Q480,54 541.5,134 Q603,214 603,345 Q603,477 541.5,556.5 Q480,636 373,636 Q266,636 204.5,556.5 Q143,477 143,345 Q143,214 266,54"/> 
            <glyph glyph-name="œ" unicode="&#x153;" horiz-adv-x="941" d=" M941,280 Q941,258 939,239 L557,239 Q563,145 604,98.5 Q645,52 707,52 Q760,52 797.5,83.5 Q835,115 844,171 L934,171 Q919,80 854.5,33 Q790,-14 703,-14 Q565,-14 506,112 Q444,-14 293,-14 Q165,-14 97.5,65.5 Q30,145 30,265 Q30,385 97.5,464.5 Q165,544 293,544 Q448,544 510,415 Q572,544 714,544 Q821,544 881,471.5 Q941,399 941,280 M214,52 Q372,52 417,111 Q462,170 462,265 Q462,361 417,419.5 Q372,478 293,478 Q214,478 169,419.5 Q124,361 124,265 Q124,170 214,52 M557,305 L854,305 Q840,478 712,478 Q647,478 606,433.5 Q565,389 557,305"/> 
            <glyph glyph-name="Ŕ" unicode="&#x154;" horiz-adv-x="600" d=" M345,736 L289,736 L343,830 L423,830 M554,181 Q566,45 600,0 L505,0 Q480,57 468,173 Q455,289 365,296 Q349,297 316,297 L186,297 L186,0 L100,0 L100,690 L326,690 Q385,690 416,686 Q496,676 542,630.5 Q588,585 588,502 Q588,438 553,397 Q518,356 465,339 Q543,303 554,181 M186,367 L318,367 Q366,367 385,369 Q435,374 465.5,406 Q496,438 496,494 Q496,600 395,616 Q370,620 326,620 L186,620"/> 
            <glyph glyph-name="ŕ" unicode="&#x155;" horiz-adv-x="318" d=" M206,580 L150,580 L211,690 L291,690 M282,542 Q304,542 318,535 L318,470 Q247,475 203.5,432 Q160,389 160,302 L160,0 L74,0 L74,530 L160,530 L160,447 L208,518 Q243,542 282,542"/> 
            <glyph glyph-name="Ŗ" unicode="&#x156;" horiz-adv-x="600" d=" M554,181 Q566,45 600,0 L505,0 Q480,57 468,173 Q455,289 365,296 Q349,297 316,297 L186,297 L186,0 L100,0 L100,690 L326,690 Q385,690 416,686 Q496,676 542,630.5 Q588,585 588,502 Q588,438 553,397 Q518,356 465,339 Q543,303 554,181 M186,367 L318,367 Q366,367 385,369 Q435,374 465.5,406 Q496,438 496,494 Q496,600 395,616 Q370,620 326,620 L186,620 M292,-51 L361,-51 L361,-63 L301,-195 L240,-195"/> 
            <glyph glyph-name="ŗ" unicode="&#x157;" horiz-adv-x="318" d=" M282,542 Q304,542 318,535 L318,470 Q247,475 203.5,432 Q160,389 160,302 L160,0 L74,0 L74,530 L160,530 L160,447 L208,518 Q243,542 282,542 M86,-51 L155,-51 L155,-63 L95,-195 L34,-195"/> 
            <glyph glyph-name="Ř" unicode="&#x158;" horiz-adv-x="600" d=" M293,736 L226,830 L293,830 L323,775 L353,830 L419,830 L352,736 M554,181 Q566,45 600,0 L505,0 Q480,57 468,173 Q455,289 365,296 Q349,297 316,297 L186,297 L186,0 L100,0 L100,690 L326,690 Q385,690 416,686 Q496,676 542,630.5 Q588,585 588,502 Q588,438 553,397 Q518,356 465,339 Q543,303 554,181 M186,367 L318,367 Q366,367 385,369 Q435,374 465.5,406 Q496,438 496,494 Q496,600 395,616 Q370,620 326,620 L186,620"/> 
            <glyph glyph-name="ř" unicode="&#x159;" horiz-adv-x="318" d=" M155,580 L88,690 L152,690 L185,627 L218,690 L281,690 L214,580 M282,542 Q304,542 318,535 L318,470 Q247,475 203.5,432 Q160,389 160,302 L160,0 L74,0 L74,530 L160,530 L160,447 L208,518 Q243,542 282,542"/> 
            <glyph glyph-name="Ś" unicode="&#x15A;" horiz-adv-x="552" d=" M327,736 L271,736 L325,830 L405,830 M314,704 Q417,704 476,648 Q535,592 545,499 L453,499 Q447,565 409.5,600.5 Q372,636 307,636 Q249,636 212.5,609 Q176,582 176,530 Q176,475 209.5,446 Q243,417 324,399 Q441,372 496.5,321.5 Q552,271 552,185 Q552,96 484.5,41 Q417,-14 315,-14 Q201,-14 132,41 Q63,96 52,196 L144,196 Q159,128 204,91 Q249,54 317,54 Q378,54 419,85 Q460,116 460,169 Q460,231 421.5,264.5 Q383,298 291,319 Q191,342 137.5,386 Q84,430 84,510 Q84,597 150,650.5 Q216,704 314,704"/> 
            <glyph glyph-name="ś" unicode="&#x15B;" horiz-adv-x="429" d=" M339,690 L254,580 L198,580 L259,690 M228,544 Q315,544 364.5,499 Q414,454 423,379 L333,379 Q314,478 221,478 Q178,478 155.5,456.5 Q133,435 133,399 Q133,362 161,342 Q189,322 249,306 Q342,281 385.5,241.5 Q429,202 429,136 Q429,64 374.5,25 Q320,-14 232,-14 Q146,-14 91,28 Q36,70 24,156 L114,156 Q133,52 238,52 Q283,52 312,72 Q341,92 341,129 Q341,167 312.5,190 Q284,213 216,231 Q134,253 89.5,289 Q45,325 45,389 Q45,461 95,502.5 Q145,544 228,544"/> 
            <glyph glyph-name="Ş" unicode="&#x15E;" horiz-adv-x="552" d=" M552,185 Q552,98 488,44 Q424,-10 326,-14 L312,-40 Q393,-51 393,-123 Q393,-164 359.5,-187 Q326,-210 270,-210 Q241,-210 220,-201 L220,-157 Q241,-168 273,-168 Q335,-168 335,-124 Q335,-71 239,-78 L275,-12 Q178,-2 120,51.5 Q62,105 52,196 L144,196 Q159,128 204,91 Q249,54 317,54 Q378,54 419,85 Q460,116 460,169 Q460,231 421.5,264.5 Q383,298 291,319 Q191,342 137.5,386 Q84,430 84,510 Q84,597 150,650.5 Q216,704 314,704 Q417,704 476,648 Q535,592 545,499 L453,499 Q447,565 409.5,600.5 Q372,636 307,636 Q249,636 212.5,609 Q176,582 176,530 Q176,475 209.5,446 Q243,417 324,399 Q441,372 496.5,321.5 Q552,271 552,185"/> 
            <glyph glyph-name="ş" unicode="&#x15F;" horiz-adv-x="429" d=" M429,202 Q429,70 383.5,32 Q338,-6 263,-13 L248,-40 Q329,-51 329,-123 Q329,-164 295.5,-187 Q262,-210 206,-210 Q177,-210 156,-201 L156,-157 Q177,-168 209,-168 Q271,-168 271,-124 Q271,-71 175,-78 L210,-13 Q133,-8 84,33.5 Q35,75 24,156 L114,156 Q133,52 238,52 Q283,52 312,72 Q341,92 341,129 Q341,167 312.5,190 Q284,213 216,231 Q134,253 89.5,289 Q45,325 45,389 Q45,461 95,502.5 Q145,544 228,544 Q315,544 364.5,499 Q414,454 423,379 L333,379 Q314,478 221,478 Q178,478 155.5,456.5 Q133,435 133,399 Q133,362 161,342 Q189,322 249,306 Q342,281 429,202"/> 
            <glyph glyph-name="Š" unicode="&#x160;" horiz-adv-x="552" d=" M275,736 L208,830 L275,830 L305,775 L335,830 L401,830 L334,736 M324,399 Q441,372 496.5,321.5 Q552,271 552,185 Q552,96 484.5,41 Q417,-14 315,-14 Q201,-14 132,41 Q63,96 52,196 L144,196 Q159,128 204,91 Q249,54 317,54 Q378,54 419,85 Q460,116 460,169 Q460,231 421.5,264.5 Q383,298 291,319 Q191,342 137.5,386 Q84,430 84,510 Q84,597 150,650.5 Q216,704 314,704 Q417,704 476,648 Q535,592 545,499 L453,499 Q447,565 409.5,600.5 Q372,636 307,636 Q249,636 212.5,609 Q176,582 176,530 Q176,475 209.5,446 Q243,417 324,399"/> 
            <glyph glyph-name="š" unicode="&#x161;" horiz-adv-x="429" d=" M262,580 L203,580 L136,690 L200,690 L233,627 L266,690 L329,690 M249,306 Q342,281 385.5,241.5 Q429,202 429,136 Q429,64 374.5,25 Q320,-14 232,-14 Q146,-14 91,28 Q36,70 24,156 L114,156 Q133,52 238,52 Q283,52 312,72 Q341,92 341,129 Q341,167 312.5,190 Q284,213 216,231 Q134,253 89.5,289 Q45,325 45,389 Q45,461 95,502.5 Q145,544 228,544 Q315,544 364.5,499 Q414,454 423,379 L333,379 Q314,478 221,478 Q178,478 155.5,456.5 Q133,435 133,399 Q133,362 161,342 Q189,322 249,306"/> 
            <glyph glyph-name="Ţ" unicode="&#x162;" horiz-adv-x="612" d=" M353,0 L331,-40 Q412,-51 412,-123 Q412,-164 378.5,-187 Q345,-210 289,-210 Q260,-210 239,-201 L239,-157 Q260,-168 292,-168 Q354,-168 354,-124 Q354,-71 258,-78 L300,0 L280,0 L280,620 L34,620 L34,690 L612,690 L612,620 L366,620 L366,0"/> 
            <glyph glyph-name="ţ" unicode="&#x163;" horiz-adv-x="276" d=" M177,460 L177,155 Q177,128 178,114 Q181,76 200,65 Q219,54 270,60 L270,-3 Q240,-8 200,-8 L182,-40 Q263,-51 263,-123 Q263,-164 229.5,-187 Q196,-210 140,-210 Q111,-210 90,-201 L90,-157 Q111,-168 143,-168 Q205,-168 205,-124 Q205,-71 109,-78 L150,-2 Q98,16 92,85 Q91,99 91,151 L91,460 L20,460 L20,526 L91,526 L91,649 L177,649 L177,526 L276,526 L276,460"/> 
            <glyph glyph-name="Ť" unicode="&#x164;" horiz-adv-x="612" d=" M294,736 L227,830 L294,830 L324,775 L354,830 L420,830 L353,736 M612,620 L366,620 L366,0 L280,0 L280,620 L34,620 L34,690 L612,690"/> 
            <glyph glyph-name="ť" unicode="&#x165;" horiz-adv-x="337" d=" M337,735 L337,723 L277,591 L216,591 L268,735 M177,526 L276,526 L276,460 L177,460 L177,155 Q177,128 178,114 Q181,76 200,65 Q219,54 270,60 L270,-3 Q239,-8 197,-8 Q147,-8 121.5,14 Q96,36 92,85 Q91,99 91,151 L91,460 L20,460 L20,526 L91,526 L91,649 L177,649"/> 
            <glyph glyph-name="Ŧ" unicode="&#x166;" horiz-adv-x="612" d=" M366,620 L366,361 L478,361 L478,305 L366,305 L366,0 L280,0 L280,305 L168,305 L168,361 L280,361 L280,620 L34,620 L34,690 L612,690 L612,620"/> 
            <glyph glyph-name="ŧ" unicode="&#x167;" horiz-adv-x="276" d=" M177,460 L177,348 L260,348 L260,296 L177,296 L177,155 Q177,128 178,114 Q181,76 200,65 Q219,54 270,60 L270,-3 Q239,-8 197,-8 Q147,-8 121.5,14 Q96,36 92,85 Q91,99 91,151 L91,296 L20,296 L20,348 L91,348 L91,460 L20,460 L20,526 L91,526 L91,649 L177,649 L177,526 L276,526 L276,460"/> 
            <glyph glyph-name="Ū" unicode="&#x16A;" horiz-adv-x="612" d=" M473,757 L233,757 L233,809 L473,809 M612,690 L612,255 Q612,213 610,193 Q602,101 537.5,43.5 Q473,-14 353,-14 Q233,-14 168.5,43.5 Q104,101 96,193 Q94,213 94,255 L94,690 L180,690 L180,263 Q180,220 182,202 Q188,134 232,94 Q276,54 353,54 Q430,54 474,94 Q518,134 524,202 Q526,220 526,263 L526,690"/> 
            <glyph glyph-name="ū" unicode="&#x16B;" horiz-adv-x="514" d=" M410,604 L170,604 L170,656 L410,656 M514,530 L514,0 L428,0 L428,90 L395,28 Q338,-14 257,-14 Q178,-14 129.5,24.5 Q81,63 71,121 Q66,155 66,212 L66,530 L152,530 L152,228 Q152,191 156,155 Q162,109 194,81.5 Q226,54 279,54 Q347,54 387.5,111.5 Q428,169 428,297 L428,530"/> 
            <glyph glyph-name="Ů" unicode="&#x16E;" horiz-adv-x="612" d=" M313,874 Q393,874 418.5,852 Q444,830 444,795 Q444,760 418.5,738 Q393,716 353,716 Q313,716 287.5,738 Q262,760 262,795 Q262,830 313,874 M371,838 Q335,838 323.5,826 Q312,814 312,795 Q312,776 323.5,764 Q335,752 353,752 Q371,752 382.5,764 Q394,776 394,795 Q394,814 371,838 M612,690 L612,255 Q612,213 610,193 Q602,101 537.5,43.5 Q473,-14 353,-14 Q233,-14 168.5,43.5 Q104,101 96,193 Q94,213 94,255 L94,690 L180,690 L180,263 Q180,220 182,202 Q188,134 232,94 Q276,54 353,54 Q430,54 474,94 Q518,134 524,202 Q526,220 526,263 L526,690"/> 
            <glyph glyph-name="ů" unicode="&#x16F;" horiz-adv-x="514" d=" M330,565 Q250,565 224.5,588.5 Q199,612 199,649 Q199,686 224.5,709.5 Q250,733 290,733 Q330,733 355.5,709.5 Q381,686 381,649 Q381,612 330,565 M308,697 Q272,697 260.5,684 Q249,671 249,649 Q249,627 260.5,614 Q272,601 290,601 Q308,601 319.5,614 Q331,627 331,649 Q331,671 308,697 M514,530 L514,0 L428,0 L428,90 L395,28 Q338,-14 257,-14 Q178,-14 129.5,24.5 Q81,63 71,121 Q66,155 66,212 L66,530 L152,530 L152,228 Q152,191 156,155 Q162,109 194,81.5 Q226,54 279,54 Q347,54 387.5,111.5 Q428,169 428,297 L428,530"/> 
            <glyph glyph-name="Ű" unicode="&#x170;" horiz-adv-x="612" d=" M305,736 L249,736 L303,830 L383,830 M414,736 L358,736 L412,830 L492,830 M612,690 L612,255 Q612,213 610,193 Q602,101 537.5,43.5 Q473,-14 353,-14 Q233,-14 168.5,43.5 Q104,101 96,193 Q94,213 94,255 L94,690 L180,690 L180,263 Q180,220 182,202 Q188,134 232,94 Q276,54 353,54 Q430,54 474,94 Q518,134 524,202 Q526,220 526,263 L526,690"/> 
            <glyph glyph-name="ű" unicode="&#x171;" horiz-adv-x="514" d=" M256,580 L200,580 L261,690 L341,690 M322,580 L383,690 L463,690 L378,580 M514,530 L514,0 L428,0 L428,90 L395,28 Q338,-14 257,-14 Q178,-14 129.5,24.5 Q81,63 71,121 Q66,155 66,212 L66,530 L152,530 L152,228 Q152,191 156,155 Q162,109 194,81.5 Q226,54 279,54 Q347,54 387.5,111.5 Q428,169 428,297 L428,530"/> 
            <glyph glyph-name="Ų" unicode="&#x172;" horiz-adv-x="612" d=" M612,690 L612,255 Q612,213 610,193 Q604,119 561,66.5 Q518,14 438,-5 Q405,-17 383.5,-48 Q362,-79 362,-119 Q362,-169 406,-169 Q436,-169 462,-149 L462,-198 Q425,-223 373,-223 Q280,-223 280,-138 Q280,-61 346,-14 Q229,-12 166.5,45 Q104,102 96,193 Q94,213 94,255 L94,690 L180,690 L180,263 Q180,220 182,202 Q188,134 232,94 Q276,54 353,54 Q430,54 474,94 Q518,134 524,202 Q526,220 526,263 L526,690"/> 
            <glyph glyph-name="ų" unicode="&#x173;" horiz-adv-x="514" d=" M514,0 L491,0 Q452,-7 424.5,-40 Q397,-73 397,-119 Q397,-169 441,-169 Q471,-169 497,-149 L497,-198 Q460,-223 408,-223 Q315,-223 315,-138 Q315,-84 347.5,-45.5 Q380,-7 428,11 L428,90 L395,28 Q338,-14 257,-14 Q178,-14 129.5,24.5 Q81,63 71,121 Q66,155 66,212 L66,530 L152,530 L152,228 Q152,191 156,155 Q162,109 194,81.5 Q226,54 279,54 Q347,54 387.5,111.5 Q428,169 428,297 L428,530 L514,530"/> 
            <glyph glyph-name="Ŵ" unicode="&#x174;" horiz-adv-x="945" d=" M457,736 L391,736 L458,830 L517,830 L584,736 L517,736 L487,791 M945,690 L753,0 L640,0 L484,595 L322,0 L208,0 L26,690 L124,690 L269,77 L429,680 L545,680 L701,76 L854,690"/> 
            <glyph glyph-name="ŵ" unicode="&#x175;" horiz-adv-x="779" d=" M359,580 L296,580 L363,690 L422,690 L489,580 L425,580 L392,643 M779,530 L610,0 L508,0 L390,446 L272,0 L170,0 L1,530 L100,530 L223,82 L339,530 L446,530 L564,85 L687,530"/> 
            <glyph glyph-name="Ŷ" unicode="&#x176;" horiz-adv-x="593" d=" M276,736 L210,736 L277,830 L336,830 L403,736 L336,736 L306,791 M349,272 L349,0 L263,0 L263,272 L19,690 L118,690 L310,355 L496,690 L593,690"/> 
            <glyph glyph-name="ŷ" unicode="&#x177;" horiz-adv-x="507" d=" M224,580 L161,580 L228,690 L287,690 L354,580 L290,580 L257,643 M507,530 L289,-45 Q256,-130 211.5,-170 Q167,-210 103,-210 Q72,-210 59,-208 L59,-138 Q72,-139 90,-139 Q131,-139 158,-118 Q185,-97 205,-46 L212,-27 L1,530 L98,530 L256,64 L413,530"/> 
            <glyph glyph-name="Ÿ" unicode="&#x178;" horiz-adv-x="593" d=" M255,737 Q217,737 203.5,750.5 Q190,764 190,783 Q190,802 203.5,815.5 Q217,829 236,829 Q255,829 268.5,815.5 Q282,802 282,783 Q282,764 255,737 M395,737 Q357,737 343.5,750.5 Q330,764 330,783 Q330,802 343.5,815.5 Q357,829 376,829 Q395,829 408.5,815.5 Q422,802 422,783 Q422,764 395,737 M349,272 L349,0 L263,0 L263,272 L19,690 L118,690 L310,355 L496,690 L593,690"/> 
            <glyph glyph-name="Ź" unicode="&#x179;" horiz-adv-x="569" d=" M329,736 L273,736 L327,830 L407,830 M569,70 L569,0 L46,0 L46,66 L463,620 L74,620 L74,690 L563,690 L563,621 L148,70"/> 
            <glyph glyph-name="ź" unicode="&#x17A;" horiz-adv-x="433" d=" M252,580 L196,580 L257,690 L337,690 M433,68 L433,0 L20,0 L20,66 L328,458 L42,458 L42,526 L428,526 L428,457 L122,68"/> 
            <glyph glyph-name="Ż" unicode="&#x17B;" horiz-adv-x="569" d=" M325,737 Q287,737 273.5,750.5 Q260,764 260,783 Q260,802 273.5,815.5 Q287,829 306,829 Q325,829 338.5,815.5 Q352,802 352,783 Q352,764 325,737 M569,70 L569,0 L46,0 L46,66 L463,620 L74,620 L74,690 L563,690 L563,621 L148,70"/> 
            <glyph glyph-name="ż" unicode="&#x17C;" horiz-adv-x="433" d=" M253,594 Q207,594 191,610 Q175,626 175,649 Q175,672 191,688 Q207,704 230,704 Q253,704 269,688 Q285,672 285,649 Q285,626 253,594 M433,68 L433,0 L20,0 L20,66 L328,458 L42,458 L42,526 L428,526 L428,457 L122,68"/> 
            <glyph glyph-name="Ž" unicode="&#x17D;" horiz-adv-x="569" d=" M277,736 L210,830 L277,830 L307,775 L337,830 L403,830 L336,736 M569,70 L569,0 L46,0 L46,66 L463,620 L74,620 L74,690 L563,690 L563,621 L148,70"/> 
            <glyph glyph-name="ž" unicode="&#x17E;" horiz-adv-x="433" d=" M201,580 L134,690 L198,690 L231,627 L264,690 L327,690 L260,580 M433,68 L433,0 L20,0 L20,66 L328,458 L42,458 L42,526 L428,526 L428,457 L122,68"/> 
            <glyph glyph-name="Ș" unicode="&#x218;" horiz-adv-x="552" d=" M314,704 Q417,704 476,648 Q535,592 545,499 L453,499 Q447,565 409.5,600.5 Q372,636 307,636 Q249,636 212.5,609 Q176,582 176,530 Q176,475 209.5,446 Q243,417 324,399 Q441,372 496.5,321.5 Q552,271 552,185 Q552,96 484.5,41 Q417,-14 315,-14 Q201,-14 132,41 Q63,96 52,196 L144,196 Q159,128 204,91 Q249,54 317,54 Q378,54 419,85 Q460,116 460,169 Q460,231 421.5,264.5 Q383,298 291,319 Q191,342 137.5,386 Q84,430 84,510 Q84,597 150,650.5 Q216,704 314,704 M348,-63 L288,-195 L227,-195 L279,-51 L348,-51"/> 
            <glyph glyph-name="ș" unicode="&#x219;" horiz-adv-x="429" d=" M228,544 Q315,544 364.5,499 Q414,454 423,379 L333,379 Q314,478 221,478 Q178,478 155.5,456.5 Q133,435 133,399 Q133,362 161,342 Q189,322 249,306 Q342,281 385.5,241.5 Q429,202 429,136 Q429,64 374.5,25 Q320,-14 232,-14 Q146,-14 91,28 Q36,70 24,156 L114,156 Q133,52 238,52 Q283,52 312,72 Q341,92 341,129 Q341,167 312.5,190 Q284,213 216,231 Q134,253 89.5,289 Q45,325 45,389 Q45,461 95,502.5 Q145,544 228,544 M278,-51 L278,-63 L218,-195 L157,-195 L209,-51"/> 
            <glyph glyph-name="Ț" unicode="&#x21A;" horiz-adv-x="612" d=" M612,690 L612,620 L366,620 L366,0 L280,0 L280,620 L34,620 L34,690 M298,-51 L367,-51 L367,-63 L307,-195 L246,-195"/> 
            <glyph glyph-name="ț" unicode="&#x21B;" horiz-adv-x="276" d=" M177,460 L177,155 Q177,128 178,114 Q181,76 200,65 Q219,54 270,60 L270,-3 Q239,-8 197,-8 Q147,-8 121.5,14 Q96,36 92,85 Q91,99 91,151 L91,460 L20,460 L20,526 L91,526 L91,649 L177,649 L177,526 L276,526 L276,460 M143,-51 L212,-51 L212,-63 L152,-195 L91,-195"/> 
            <glyph glyph-name="ˆ" unicode="&#x2C6;" horiz-adv-x="247" d=" M183,580 L150,643 L117,580 L54,580 L121,690 L180,690 L247,580"/> 
            <glyph glyph-name="ˇ" unicode="&#x2C7;" horiz-adv-x="247" d=" M247,690 L180,580 L121,580 L54,690 L118,690 L151,627 L184,690"/> 
            </font>
</defs>
</svg>
