<?xml version="1.0" standalone="no"?>
<!DOCTYPE svg PUBLIC "-//W3C//DTD SVG 1.1//EN" "http://www.w3.org/Graphics/SVG/1.1/DTD/svg11.dtd" >
<svg xmlns="http://www.w3.org/2000/svg">
    <defs>
        <font id="Aileron-SemiBoldItalic">
            <font-face font-family="Aileron-SemiBoldItalic"
                       units-per-em="1000"
                       ascent="970"
                       descent="-230"
                       bbox="-205 -223 1144 897"
                    />
            <missing-glyph horiz-adv-x="0" />
            
            <glyph glyph-name="!" unicode="&#x21;" horiz-adv-x="280" d=" M168,188 L75,188 L163,690 L280,690 M110,127 Q138,127 154.5,111 Q171,95 171,69 Q171,35 147.5,10.5 Q124,-14 88,-14 Q60,-14 43.5,1.5 Q27,17 27,43 Q27,78 50.5,102.5 Q74,127 110,127"/> 
            <glyph glyph-name="&quot;" unicode="&#x22;" horiz-adv-x="337" d=" M124,474 L42,474 L82,735 L184,735 M277,474 L195,474 L234,735 L337,735"/> 
            <glyph glyph-name="#" unicode="&#x23;" horiz-adv-x="569" d=" M455,410 L405,281 L505,281 L493,215 L379,215 L295,0 L226,0 L310,215 L220,215 L136,0 L67,0 L151,215 L63,215 L75,281 L177,281 L227,410 L127,410 L139,476 L253,476 L336,690 L405,690 L322,476 L412,476 L495,690 L564,690 L481,476 L569,476 L557,410 M386,410 L296,410 L246,281 L336,281"/> 
            <glyph glyph-name="$" unicode="&#x24;" horiz-adv-x="565" d=" M383,615 L344,394 Q437,360 481,312 Q525,264 525,190 Q525,99 455.5,44.5 Q386,-10 271,-14 L258,-90 L189,-90 L203,-11 Q30,13 18,190 L130,190 Q136,94 218,73 L259,305 Q174,333 132,375 Q90,417 90,493 Q90,576 152.5,637 Q215,698 329,704 L343,780 L412,780 L398,700 Q478,688 520.5,635 Q563,582 565,504 L454,504 Q452,589 383,615 M202,503 Q202,469 221,448 Q240,427 278,412 L315,622 Q260,616 231,583 Q202,550 202,503 M325,287 L286,69 Q411,77 411,183 Q411,221 390.5,245.5 Q370,270 325,287"/> 
            <glyph glyph-name="%" unicode="&#x25;" horiz-adv-x="728" d=" M214,381 Q153,381 117,417.5 Q81,454 81,514 Q81,592 127,648 Q173,704 257,704 Q318,704 354,668 Q390,632 390,571 Q390,493 344,437 Q298,381 214,381 M728,690 L161,0 L56,0 L623,690 M249,638 Q215,638 193.5,602.5 Q172,567 172,511 Q172,447 222,447 Q256,447 277.5,482.5 Q299,518 299,574 Q299,638 249,638 M569,309 Q630,309 666.5,273 Q703,237 703,176 Q703,98 657,42 Q611,-14 527,-14 Q466,-14 430,22.5 Q394,59 394,119 Q394,196 440,252.5 Q486,309 569,309 M535,52 Q569,52 590.5,87.5 Q612,123 612,179 Q612,243 562,243 Q527,243 505.5,207.5 Q484,172 484,116 Q484,52 535,52"/> 
            <glyph glyph-name="&amp;" unicode="&#x26;" horiz-adv-x="649" d=" M649,394 L633,306 L538,306 L486,9 Q381,-14 271,-14 Q25,-14 25,148 Q25,227 79,282.5 Q133,338 220,353 Q172,367 144,402.5 Q116,438 116,491 Q116,587 196.5,645.5 Q277,704 405,704 Q468,704 518,694 L503,610 Q453,620 389,620 Q317,620 276.5,585 Q236,550 236,484 Q236,400 334,395 Q352,394 395,394 L444,394 L462,497 L571,497 L554,394 M428,306 L375,306 Q336,306 316,305 Q231,298 189.5,261 Q148,224 148,164 Q148,113 182,91.5 Q216,70 289,70 Q342,70 388,79"/> 
            <glyph glyph-name="'" unicode="&#x27;" horiz-adv-x="184" d=" M124,474 L42,474 L82,735 L184,735"/> 
            <glyph glyph-name="(" unicode="&#x28;" horiz-adv-x="392" d=" M240,-80 L174,-80 Q107,38 107,209 Q107,352 162.5,506.5 Q218,661 326,780 L392,780 Q285,646 233.5,498 Q182,350 182,211 Q182,50 240,-80"/> 
            <glyph glyph-name=")" unicode="&#x29;" horiz-adv-x="260" d=" M127,780 L193,780 Q260,662 260,491 Q260,348 204.5,194 Q149,40 41,-80 L-25,-80 Q82,54 133.5,202 Q185,350 185,489 Q185,654 127,780"/> 
            <glyph glyph-name="*" unicode="&#x2A;" horiz-adv-x="468" d=" M302,306 L458,364 L468,292 L310,254 L396,123 L326,78 L260,221 L141,78 L88,123 L219,254 L75,292 L111,364 L246,306 L266,475 L342,475"/> 
            <glyph glyph-name="+" unicode="&#x2B;" horiz-adv-x="515" d=" M504,284 L324,284 L289,83 L220,83 L256,284 L76,284 L88,348 L267,348 L303,551 L371,551 L335,348 L515,348"/> 
            <glyph glyph-name="," unicode="&#x2C;" horiz-adv-x="143" d=" M141,107 L5,-121 L-91,-121 L30,118 L143,118"/> 
            <glyph glyph-name="-" unicode="&#x2D;" horiz-adv-x="258" d=" M246,250 L26,250 L38,316 L258,316"/> 
            <glyph glyph-name="." unicode="&#x2E;" horiz-adv-x="144" d=" M84,132 Q111,132 127.5,115.5 Q144,99 144,73 Q144,34 119.5,10 Q95,-14 58,-14 Q31,-14 14,2.5 Q-3,19 -3,45 Q-3,83 22,107.5 Q47,132 84,132"/> 
            <glyph glyph-name="/" unicode="&#x2F;" horiz-adv-x="395" d=" M12,-30 L-61,-30 L323,720 L395,720"/> 
            <glyph glyph-name="0" unicode="&#x30;" horiz-adv-x="575" d=" M340,704 Q457,704 516,632.5 Q575,561 575,443 Q575,394 568.5,344.5 Q562,295 548,242.5 Q534,190 509.5,145 Q485,100 452,64 Q419,28 371.5,7 Q324,-14 267,-14 Q149,-14 90.5,57.5 Q32,129 32,248 Q32,308 41,367.5 Q50,427 72.5,488.5 Q95,550 129,597 Q163,644 217.5,674 Q272,704 340,704 M268,70 Q320,70 359.5,112 Q399,154 418.5,217.5 Q438,281 447,339.5 Q456,398 456,447 Q456,528 427,574 Q398,620 339,620 Q287,620 247.5,578.5 Q208,537 188.5,473.5 Q169,410 160,352 Q151,294 151,244 Q151,163 180,116.5 Q209,70 268,70"/> 
            <glyph glyph-name="1" unicode="&#x31;" horiz-adv-x="491" d=" M491,690 L369,0 L260,0 L361,575 L146,463 L165,571 L334,664 Q382,690 430,690"/> 
            <glyph glyph-name="2" unicode="&#x32;" horiz-adv-x="591" d=" M192,88 L508,88 L493,0 L12,0 L22,56 L307,299 Q398,377 433.5,425 Q469,473 469,528 Q469,621 375,621 Q315,621 278,587 Q241,553 222,480 L220,470 L111,470 L113,480 Q170,705 401,705 Q493,705 542,660 Q591,615 591,543 Q591,476 543,409 Q495,342 370,238"/> 
            <glyph glyph-name="3" unicode="&#x33;" horiz-adv-x="588" d=" M432,366 Q546,333 546,225 Q546,118 460.5,52 Q375,-14 248,-14 Q138,-14 82,38.5 Q26,91 34,198 L35,208 L145,208 L144,198 Q140,136 174,103 Q208,70 269,70 Q336,70 380.5,109 Q425,148 425,211 Q425,308 292,309 L273,309 L287,390 L307,391 Q375,392 421,431 Q467,470 467,532 Q467,571 441.5,595.5 Q416,620 372,620 Q315,620 276,588.5 Q237,557 224,497 L222,487 L112,487 L114,497 Q135,593 208,648.5 Q281,704 400,704 Q489,704 538.5,662.5 Q588,621 588,553 Q588,484 545.5,434 Q503,384 432,366"/> 
            <glyph glyph-name="4" unicode="&#x34;" horiz-adv-x="567" d=" M552,169 L466,169 L436,0 L326,0 L356,169 L19,169 L28,226 L451,690 L564,690 L482,257 L567,257 M372,257 L430,554 Q399,512 365,475 L164,257"/> 
            <glyph glyph-name="5" unicode="&#x35;" horiz-adv-x="597" d=" M262,603 L195,385 L241,431 Q296,459 355,459 Q449,459 498.5,407.5 Q548,356 548,270 Q548,139 460,62.5 Q372,-14 248,-14 Q146,-14 89,37.5 Q32,89 40,186 L40,196 L150,196 L150,186 Q150,127 176,98.5 Q202,70 259,70 Q334,70 380.5,120.5 Q427,171 427,253 Q427,309 398,342 Q369,375 316,375 Q227,375 171,286 L68,286 L189,690 L597,690 L581,603"/> 
            <glyph glyph-name="6" unicode="&#x36;" horiz-adv-x="595" d=" M400,704 Q495,704 545,653 Q595,602 589,515 L588,505 L474,505 L474,515 Q470,620 377,620 Q304,620 248.5,552 Q193,484 172,354 L228,423 Q286,465 360,465 Q453,465 503,413.5 Q553,362 553,277 Q553,150 465,68 Q377,-14 258,-14 Q157,-14 101,45.5 Q45,105 45,222 Q45,334 74.5,427 Q104,520 153.5,579.5 Q203,639 266.5,671.5 Q330,704 400,704 M320,381 Q255,381 207,330.5 Q159,280 159,195 Q159,139 188,104.5 Q217,70 268,70 Q336,70 383.5,123.5 Q431,177 431,258 Q431,313 403.5,347 Q376,381 320,381"/> 
            <glyph glyph-name="7" unicode="&#x37;" horiz-adv-x="632" d=" M632,690 L622,635 L172,0 L47,0 L478,603 L109,603 L125,690"/> 
            <glyph glyph-name="8" unicode="&#x38;" horiz-adv-x="584" d=" M440,365 Q486,349 515,310 Q544,271 544,219 Q544,141 500,86 Q456,31 391.5,8 Q327,-15 250,-15 Q149,-15 89,27 Q29,69 29,157 Q29,235 78.5,289.5 Q128,344 199,365 Q161,381 139,413 Q117,445 117,490 Q117,585 190.5,644.5 Q264,704 384,704 Q478,704 531,661 Q584,618 584,545 Q584,478 543,431.5 Q502,385 440,365 M369,620 Q307,620 270,583 Q233,546 233,491 Q233,450 257.5,425.5 Q282,401 329,401 Q392,401 429.5,438 Q467,475 467,531 Q467,570 442,595 Q417,620 369,620 M267,69 Q344,69 385,110 Q426,151 426,215 Q426,260 397,288.5 Q368,317 310,317 Q234,317 191,274.5 Q148,232 148,171 Q148,125 178.5,97 Q209,69 267,69"/> 
            <glyph glyph-name="9" unicode="&#x39;" horiz-adv-x="575" d=" M362,704 Q463,704 519,645 Q575,586 575,469 Q575,356 545.5,263 Q516,170 466.5,110.5 Q417,51 354,18.5 Q291,-14 221,-14 Q126,-14 75.5,37 Q25,88 31,176 L32,186 L146,186 L146,176 Q150,70 243,70 Q316,70 371.5,138 Q427,206 449,337 L392,267 Q333,225 260,225 Q168,225 118,277 Q68,329 68,413 Q68,540 156,622 Q244,704 362,704 M300,309 Q365,309 413,360 Q461,411 461,496 Q461,551 432,585.5 Q403,620 352,620 Q284,620 236.5,566.5 Q189,513 189,432 Q189,377 216.5,343 Q244,309 300,309"/> 
            <glyph glyph-name=":" unicode="&#x3A;" horiz-adv-x="220" d=" M159,545 Q186,545 203,528.5 Q220,512 220,486 Q220,448 195.5,423.5 Q171,399 134,399 Q107,399 90,415.5 Q73,432 73,458 Q73,496 97.5,520.5 Q122,545 159,545 M87,132 Q114,132 131,115.5 Q148,99 148,73 Q148,35 123,10.5 Q98,-14 61,-14 Q34,-14 17.5,2.5 Q1,19 1,45 Q1,84 25.5,108 Q50,132 87,132"/> 
            <glyph glyph-name=";" unicode="&#x3B;" horiz-adv-x="220" d=" M159,545 Q186,545 203,528.5 Q220,512 220,486 Q220,448 195.5,423.5 Q171,399 134,399 Q107,399 90,415.5 Q73,432 73,458 Q73,496 97.5,520.5 Q122,545 159,545 M140,104 L5,-121 L-90,-121 L31,118 L142,118"/> 
            <glyph glyph-name="&lt;" unicode="&#x3C;" horiz-adv-x="563" d=" M549,418 L174,262 L494,106 L480,28 L96,223 L111,308 L563,503"/> 
            <glyph glyph-name="=" unicode="&#x3D;" horiz-adv-x="538" d=" M527,384 L89,384 L100,448 L538,448 M491,184 L53,184 L65,248 L502,248"/> 
            <glyph glyph-name="&gt;" unicode="&#x3E;" horiz-adv-x="502" d=" M502,308 L487,223 L34,28 L48,112 L424,268 L103,424 L117,503"/> 
            <glyph glyph-name="?" unicode="&#x3F;" horiz-adv-x="579" d=" M385,704 Q476,704 527.5,662.5 Q579,621 579,552 Q579,490 547.5,439 Q516,388 435,320 Q388,281 366.5,253 Q345,225 335,188 L234,188 Q243,233 264,266 Q285,299 339,351 Q411,420 435.5,459 Q460,498 460,539 Q460,578 435.5,599 Q411,620 368,620 Q256,620 231,489 L119,489 Q135,589 207.5,646.5 Q280,704 385,704 M274,127 Q302,127 318.5,111 Q335,95 335,69 Q335,35 311.5,10.5 Q288,-14 252,-14 Q224,-14 207.5,1.5 Q191,17 191,43 Q191,78 214.5,102.5 Q238,127 274,127"/> 
            <glyph glyph-name="@" unicode="&#x40;" horiz-adv-x="813" d=" M649,467 L593,236 Q586,203 586,184 Q586,141 624,141 Q671,141 705,191 Q739,241 739,332 Q739,463 664.5,534.5 Q590,606 472,606 Q384,606 306,565.5 Q228,525 175.5,441.5 Q123,358 123,248 Q123,109 202,32.5 Q281,-44 410,-44 Q550,-44 654,32 L681,-26 Q553,-112 404,-112 Q336,-112 273.5,-90 Q211,-68 160.5,-26 Q110,16 79.5,86 Q49,156 49,245 Q49,372 110.5,471.5 Q172,571 268.5,622.5 Q365,674 475,674 Q627,674 720,579 Q813,484 813,336 Q813,205 750,139 Q687,73 600,73 Q503,73 487,153 L463,106 Q419,69 366,69 Q309,69 268,108 Q227,147 227,232 Q227,335 286.5,410 Q346,485 436,485 Q494,485 521,455 L532,405 L550,467 M494,250 L504,297 Q517,353 501,379 Q485,405 451,405 Q400,405 369,356 Q338,307 338,239 Q338,149 398,149 Q431,149 457.5,178.5 Q484,208 494,250"/> 
            <glyph glyph-name="A" unicode="&#x41;" horiz-adv-x="612" d=" M459,228 L214,228 L98,0 L-24,0 L345,690 L495,690 L612,0 L493,0 M446,315 L403,597 L259,315"/> 
            <glyph glyph-name="B" unicode="&#x42;" horiz-adv-x="623" d=" M478,368 Q594,334 594,216 Q594,123 529,70.5 Q464,18 372,5 Q337,0 280,0 L44,0 L166,690 L389,690 Q445,690 478,686 Q548,676 585.5,639.5 Q623,603 623,544 Q623,409 478,368 M261,603 L225,399 L344,399 Q372,399 397,403 Q504,419 504,522 Q504,592 426,600 Q401,603 374,603 M349,89 Q402,94 439,129 Q476,164 476,222 Q476,299 391,311 Q372,314 340,314 L210,314 L170,88 L301,88 Q335,88 349,89"/> 
            <glyph glyph-name="C" unicode="&#x43;" horiz-adv-x="715" d=" M450,704 Q581,704 648,639 Q715,574 707,468 L706,458 L596,458 L596,468 Q596,547 556,583.5 Q516,620 435,620 Q322,620 250.5,524 Q179,428 179,282 Q179,176 223.5,123 Q268,70 346,70 Q490,70 548,224 L552,234 L662,234 L659,224 Q628,114 544,50 Q460,-14 329,-14 Q201,-14 129.5,62 Q58,138 59,271 Q58,458 170,581 Q282,704 450,704"/> 
            <glyph glyph-name="D" unicode="&#x44;" horiz-adv-x="699" d=" M451,687 Q560,677 629.5,602 Q699,527 699,393 Q699,323 676.5,257.5 Q654,192 610.5,138 Q567,84 496.5,47.5 Q426,11 338,3 Q302,0 249,0 L44,0 L166,690 L362,690 Q417,690 451,687 M339,91 Q459,107 520,191 Q581,275 581,391 Q581,486 538,538 Q495,590 424,599 Q395,603 351,603 L261,603 L170,88 L264,88 Q316,88 339,91"/> 
            <glyph glyph-name="E" unicode="&#x45;" horiz-adv-x="633" d=" M261,603 L223,389 L552,389 L537,302 L207,302 L170,88 L537,88 L521,0 L44,0 L166,690 L633,690 L617,603"/> 
            <glyph glyph-name="F" unicode="&#x46;" horiz-adv-x="633" d=" M261,603 L223,389 L542,389 L527,302 L207,302 L154,0 L44,0 L166,690 L633,690 L617,603"/> 
            <glyph glyph-name="G" unicode="&#x47;" horiz-adv-x="718" d=" M462,704 Q593,704 655.5,639.5 Q718,575 710,468 L709,458 L599,458 L599,468 Q599,549 562,584.5 Q525,620 445,620 Q331,620 255,524 Q179,428 179,283 Q179,184 222.5,127 Q266,70 343,70 Q420,70 479,120.5 Q538,171 557,254 L403,254 L419,342 L680,342 L620,0 L528,0 L544,116 L502,50 Q430,-14 316,-14 Q193,-14 125.5,63.5 Q58,141 58,269 Q58,457 175.5,580.5 Q293,704 462,704"/> 
            <glyph glyph-name="H" unicode="&#x48;" horiz-adv-x="739" d=" M739,690 L617,0 L508,0 L560,294 L206,294 L154,0 L44,0 L166,690 L276,690 L222,383 L576,383 L630,690"/> 
            <glyph glyph-name="I" unicode="&#x49;" horiz-adv-x="276" d=" M154,0 L44,0 L166,690 L276,690"/> 
            <glyph glyph-name="J" unicode="&#x4A;" horiz-adv-x="565" d=" M565,690 L491,273 Q482,224 473,184 Q427,-14 213,-14 Q109,-14 57.5,45 Q6,104 21,204 L27,242 L136,242 L132,204 Q115,70 230,70 Q336,70 366,191 Q369,202 374,227.5 Q379,253 382,268 L455,690"/> 
            <glyph glyph-name="K" unicode="&#x4B;" horiz-adv-x="727" d=" M332,348 L592,0 L458,0 L251,291 L197,243 L154,0 L44,0 L166,690 L276,690 L218,360 L594,690 L727,690"/> 
            <glyph glyph-name="L" unicode="&#x4C;" horiz-adv-x="537" d=" M537,91 L521,0 L44,0 L166,690 L276,690 L170,91"/> 
            <glyph glyph-name="M" unicode="&#x4D;" horiz-adv-x="880" d=" M880,690 L758,0 L648,0 L752,577 L468,0 L334,0 L256,588 L154,0 L44,0 L166,690 L346,690 L422,114 L698,690"/> 
            <glyph glyph-name="N" unicode="&#x4E;" horiz-adv-x="736" d=" M736,690 L614,0 L457,0 L253,571 L154,0 L44,0 L166,690 L321,690 L526,114 L627,690"/> 
            <glyph glyph-name="O" unicode="&#x4F;" horiz-adv-x="743" d=" M452,704 Q589,704 666,619 Q743,534 743,405 Q743,322 717.5,247 Q692,172 644.5,113.5 Q597,55 521.5,20.5 Q446,-14 352,-14 Q215,-14 138,71 Q61,156 61,285 Q61,398 104,491.5 Q147,585 237.5,644.5 Q328,704 452,704 M367,70 Q451,70 511.5,123.5 Q572,177 598.5,250.5 Q625,324 625,404 Q625,502 575,561 Q525,620 437,620 Q353,620 292.5,566.5 Q232,513 205.5,439.5 Q179,366 179,286 Q179,188 229,129 Q279,70 367,70"/> 
            <glyph glyph-name="P" unicode="&#x50;" horiz-adv-x="636" d=" M483,686 Q553,677 594.5,634 Q636,591 636,519 Q636,417 571,352.5 Q506,288 413,276 Q379,272 318,272 L202,272 L154,0 L44,0 L166,690 L389,690 Q451,690 483,686 M407,365 Q455,374 486.5,409.5 Q518,445 518,506 Q518,585 449,597 Q426,601 379,601 L260,601 L218,361 L337,361 Q383,361 407,365"/> 
            <glyph glyph-name="Q" unicode="&#x51;" horiz-adv-x="740" d=" M740,408 Q740,309 702,222.5 Q664,136 593,84 Q644,70 696,22 L630,-51 Q577,-17 551,-6 Q525,5 496,5 Q460,5 422,-6 Q391,-14 354,-14 Q209,-14 134.5,69 Q60,152 60,283 Q60,393 102,487 Q144,581 233.5,642.5 Q323,704 445,704 Q590,704 665,621.5 Q740,539 740,408 M178,284 Q178,186 226.5,128 Q275,70 362,70 Q426,70 478,101 Q530,132 560,182 Q590,232 606,289.5 Q622,347 622,406 Q622,504 572.5,562 Q523,620 437,620 Q373,620 321.5,589 Q270,558 240,508 Q210,458 194,400.5 Q178,343 178,284"/> 
            <glyph glyph-name="R" unicode="&#x52;" horiz-adv-x="646" d=" M646,536 Q646,453 596.5,401.5 Q547,350 470,333 Q515,322 531.5,277 Q548,232 548,117 Q548,35 567,0 L448,0 Q440,38 438,180 Q436,283 364,287 Q347,288 313,288 L205,288 L154,0 L44,0 L166,690 L404,690 Q466,690 499,686 Q567,677 606.5,640 Q646,603 646,536 M398,375 Q454,380 490,415 Q526,450 526,513 Q526,589 446,599 Q423,603 383,603 L261,603 L220,373 L335,373 Q380,373 398,375"/> 
            <glyph glyph-name="S" unicode="&#x53;" horiz-adv-x="584" d=" M365,704 Q476,704 530,646 Q584,588 579,494 L465,494 Q470,553 438.5,586.5 Q407,620 347,620 Q290,620 254,589.5 Q218,559 218,506 Q218,466 248,442.5 Q278,419 347,402 Q444,378 490.5,333 Q537,288 537,214 Q537,110 456,48 Q375,-14 252,-14 Q138,-14 74,42 Q10,98 17,200 L131,200 Q133,137 169,103.5 Q205,70 267,70 Q332,70 374.5,103 Q417,136 417,194 Q417,237 385.5,263.5 Q354,290 283,308 Q193,331 145.5,370 Q98,409 98,477 Q98,581 175.5,642.5 Q253,704 365,704"/> 
            <glyph glyph-name="T" unicode="&#x54;" horiz-adv-x="695" d=" M679,603 L440,603 L333,0 L223,0 L330,603 L89,603 L105,690 L695,690"/> 
            <glyph glyph-name="U" unicode="&#x55;" horiz-adv-x="705" d=" M705,690 L631,272 Q624,231 616,199 Q565,-14 315,-14 Q199,-14 139.5,37 Q80,88 80,181 Q80,219 91,280 L163,690 L273,690 L199,270 Q190,219 190,190 Q190,134 225,102 Q260,70 327,70 Q401,70 445,102.5 Q489,135 509,209 Q515,231 521,265 L595,690"/> 
            <glyph glyph-name="V" unicode="&#x56;" horiz-adv-x="743" d=" M374,0 L224,0 L107,690 L226,690 L314,84 L621,690 L743,690"/> 
            <glyph glyph-name="W" unicode="&#x57;" horiz-adv-x="1041" d=" M1041,690 L732,0 L587,0 L551,579 L305,0 L159,0 L101,690 L219,690 L251,102 L490,680 L646,680 L678,98 L920,690"/> 
            <glyph glyph-name="X" unicode="&#x58;" horiz-adv-x="707" d=" M404,349 L597,0 L467,0 L325,277 L96,0 L-34,0 L276,353 L105,690 L229,690 L356,425 L578,690 L707,690"/> 
            <glyph glyph-name="Y" unicode="&#x59;" horiz-adv-x="692" d=" M373,266 L327,0 L217,0 L265,269 L95,690 L212,690 L336,366 L567,690 L692,690"/> 
            <glyph glyph-name="Z" unicode="&#x5A;" horiz-adv-x="651" d=" M636,604 L155,88 L550,88 L534,0 L1,0 L16,84 L499,603 L135,603 L151,690 L651,690"/> 
            <glyph glyph-name="[" unicode="&#x5B;" horiz-adv-x="366" d=" M176,780 L366,780 L355,714 L233,714 L104,-14 L226,-14 L214,-80 L24,-80"/> 
            <glyph glyph-name="\" unicode="&#x5C;" horiz-adv-x="263" d=" M263,-30 L191,-30 L72,720 L144,720"/> 
            <glyph glyph-name="]" unicode="&#x5D;" horiz-adv-x="323" d=" M171,-80 L-20,-80 L-8,-14 L114,-14 L243,714 L121,714 L133,780 L323,780"/> 
            <glyph glyph-name="^" unicode="&#x5E;" horiz-adv-x="484" d=" M406,215 L330,550 L136,215 L55,215 L299,616 L380,616 L484,215"/> 
            <glyph glyph-name="_" unicode="&#x5F;" horiz-adv-x="456" d=" M444,-87 L44,-87 L56,-21 L456,-21"/> 
            <glyph glyph-name="`" unicode="&#x60;" horiz-adv-x="181" d=" M181,577 L115,577 L33,691 L133,691"/> 
            <glyph glyph-name="a" unicode="&#x61;" horiz-adv-x="494" d=" M314,545 Q406,545 450,509 Q494,473 494,410 Q494,381 484,321 L451,135 Q441,78 437,0 L329,0 L332,76 L296,27 Q250,-14 158,-14 Q96,-14 54,22 Q12,58 12,125 Q12,231 111.5,282 Q211,333 375,321 L377,333 Q384,378 384,397 Q384,465 308,465 Q251,465 221,439.5 Q191,414 179,363 L69,363 Q86,449 152,497 Q218,545 314,545 M353,199 L362,249 Q262,260 195.5,231.5 Q129,203 129,138 Q129,103 151,84.5 Q173,66 211,66 Q257,66 299.5,104 Q342,142 353,199"/> 
            <glyph glyph-name="b" unicode="&#x62;" horiz-adv-x="606" d=" M405,545 Q502,545 554,486.5 Q606,428 606,330 Q606,265 586.5,205 Q567,145 529.5,95.5 Q492,46 430.5,16 Q369,-14 292,-14 Q258,-14 223.5,-3 Q189,8 172,26 L147,80 L133,0 L23,0 L153,735 L263,735 L212,449 L262,505 Q316,545 405,545 M296,66 Q383,66 435.5,142 Q488,218 488,320 Q488,388 457.5,426.5 Q427,465 369,465 Q301,465 250,418 Q199,371 181,271 L176,244 Q163,169 193,117.5 Q223,66 296,66"/> 
            <glyph glyph-name="c" unicode="&#x63;" horiz-adv-x="535" d=" M334,544 Q434,544 484,491 Q534,438 535,346 L424,346 Q420,464 319,464 Q242,464 192,390 Q142,316 142,202 Q142,134 171,100 Q200,66 248,66 Q353,66 396,176 L508,176 Q432,-14 235,-14 Q140,-14 82,41 Q24,96 24,200 Q24,342 108,443 Q192,544 334,544"/> 
            <glyph glyph-name="d" unicode="&#x64;" horiz-adv-x="643" d=" M643,735 L513,0 L404,0 L419,83 L368,26 Q313,-14 225,-14 Q129,-14 76.5,45 Q24,104 24,201 Q24,266 44,326 Q64,386 101.5,435.5 Q139,485 200.5,515 Q262,545 339,545 Q373,545 407.5,534 Q442,523 459,506 L484,452 L534,735 M450,260 L455,288 Q467,362 437,413.5 Q407,465 334,465 Q247,465 194.5,389 Q142,313 142,211 Q142,144 173,105 Q204,66 262,66 Q329,66 380.5,113.5 Q432,161 450,260"/> 
            <glyph glyph-name="e" unicode="&#x65;" horiz-adv-x="537" d=" M521,235 L141,235 Q140,223 140,200 Q140,132 169.5,99 Q199,66 250,66 Q299,66 338,94.5 Q377,123 393,172 L505,172 Q474,81 401.5,33.5 Q329,-14 236,-14 Q140,-14 82,40.5 Q24,95 24,198 Q24,262 43,323 Q62,384 98,434 Q134,484 193,514.5 Q252,545 326,545 Q426,545 481.5,489 Q537,433 537,342 Q537,286 521,235 M313,465 Q251,465 211.5,422.5 Q172,380 154,312 L425,312 Q426,323 426,342 Q426,400 396,432.5 Q366,465 313,465"/> 
            <glyph glyph-name="f" unicode="&#x66;" horiz-adv-x="389" d=" M252,618 Q242,590 238,567 L231,527 L340,527 L327,450 L218,450 L139,0 L30,0 L109,450 L61,450 L75,527 L122,527 L128,561 Q136,603 143,624 Q162,687 204,720.5 Q246,754 306,754 Q359,754 389,748 L374,666 Q357,670 337,670 Q270,670 252,618"/> 
            <glyph glyph-name="g" unicode="&#x67;" horiz-adv-x="608" d=" M608,531 L537,132 Q520,40 518,29 Q467,-213 209,-213 Q104,-213 46,-166 Q-12,-119 -5,-35 L-4,-25 L105,-25 L104,-34 Q102,-78 133.5,-104 Q165,-130 225,-130 Q297,-130 343.5,-92 Q390,-54 406,17 Q408,28 412,48 Q416,68 418,78 L419,85 L368,27 Q313,-13 225,-13 Q129,-13 76.5,46 Q24,105 24,201 Q24,266 44,326 Q64,386 101.5,435.5 Q139,485 200.5,515 Q262,545 339,545 Q373,545 407.5,534 Q442,523 459,506 L484,452 L498,531 M262,68 Q330,68 381,114.5 Q432,161 450,260 L450,258 L455,289 L455,288 Q467,362 437,413.5 Q407,465 334,465 Q247,465 194.5,389 Q142,313 142,211 Q142,144 173,106 Q204,68 262,68"/> 
            <glyph glyph-name="h" unicode="&#x68;" horiz-adv-x="561" d=" M399,545 Q479,545 520,508.5 Q561,472 561,409 Q561,371 548,301 L494,0 L385,0 L436,286 Q447,345 447,376 Q447,465 352,464 Q214,460 174,237 L133,0 L23,0 L153,740 L263,740 L211,445 L258,504 Q320,545 399,545"/> 
            <glyph glyph-name="i" unicode="&#x69;" horiz-adv-x="261" d=" M205,716 Q230,716 245.5,701 Q261,686 261,663 Q261,633 240,611 Q219,589 186,589 Q161,589 145.5,604 Q130,619 130,643 Q130,673 151.5,694.5 Q173,716 205,716 M133,0 L23,0 L117,531 L227,531"/> 
            <glyph glyph-name="j" unicode="&#x6A;" horiz-adv-x="242" d=" M185,716 Q211,716 226.5,701.5 Q242,687 242,663 Q242,630 221.5,609.5 Q201,589 168,589 Q142,589 126.5,603.5 Q111,618 111,642 Q111,675 131.5,695.5 Q152,716 185,716 M211,531 L113,-31 Q103,-80 99,-95 Q83,-152 43,-181 Q3,-210 -70,-210 Q-101,-210 -115,-208 L-100,-125 Q-25,-134 -9,-80 Q-5,-68 4,-26 L102,531"/> 
            <glyph glyph-name="k" unicode="&#x6B;" horiz-adv-x="594" d=" M309,281 L508,0 L376,0 L226,224 L163,169 L133,0 L23,0 L153,735 L263,735 L183,280 L459,531 L594,531"/> 
            <glyph glyph-name="l" unicode="&#x6C;" horiz-adv-x="258" d=" M258,735 L157,162 Q150,126 150,110 Q150,86 162.5,79 Q175,72 206,74 L193,-1 Q156,-6 123,-6 Q78,-6 56,9.5 Q34,25 34,64 Q34,90 47,159 L149,735"/> 
            <glyph glyph-name="m" unicode="&#x6D;" horiz-adv-x="840" d=" M695,545 Q766,545 803,509.5 Q840,474 840,417 Q840,387 828,321 L772,0 L662,0 L712,281 Q724,356 724,384 Q724,464 643,464 Q597,464 557,412.5 Q517,361 501,276 L499,267 L452,0 L343,0 L392,281 Q405,354 405,384 Q405,464 322,464 Q274,464 235,410.5 Q196,357 180,267 L133,0 L23,0 L116,531 L226,531 L213,455 L259,514 Q305,545 378,545 Q438,545 473,518.5 Q508,492 517,447 L574,512 Q621,545 695,545"/> 
            <glyph glyph-name="n" unicode="&#x6E;" horiz-adv-x="561" d=" M399,545 Q479,545 520,508.5 Q561,472 561,409 Q561,371 548,301 L494,0 L385,0 L436,286 Q447,345 447,376 Q447,465 352,464 Q214,460 174,237 L133,0 L23,0 L116,531 L226,531 L211,445 L258,504 Q320,545 399,545"/> 
            <glyph glyph-name="o" unicode="&#x6F;" horiz-adv-x="574" d=" M339,545 Q457,545 515.5,478.5 Q574,412 574,310 Q574,252 555,196 Q536,140 500,92 Q464,44 402.5,15 Q341,-14 263,-14 Q145,-14 86,52.5 Q27,119 27,221 Q27,267 38.5,312 Q50,357 75,399.5 Q100,442 135.5,474 Q171,506 223.5,525.5 Q276,545 339,545 M274,66 Q359,66 407.5,139.5 Q456,213 456,308 Q456,378 423.5,421.5 Q391,465 327,465 Q242,465 193.5,392 Q145,319 145,224 Q145,154 177.5,110 Q210,66 274,66"/> 
            <glyph glyph-name="p" unicode="&#x70;" horiz-adv-x="606" d=" M405,545 Q502,545 554,486.5 Q606,428 606,330 Q606,265 586.5,205 Q567,145 529.5,95.5 Q492,46 430.5,16 Q369,-14 292,-14 Q258,-14 223.5,-3 Q189,8 172,26 L147,80 L98,-196 L-12,-196 L117,531 L227,531 L212,449 L262,505 Q316,545 405,545 M296,66 Q383,66 435.5,142 Q488,218 488,320 Q488,388 457.5,426.5 Q427,465 369,465 Q301,465 250,418 Q199,371 181,271 L176,244 Q163,169 193,117.5 Q223,66 296,66"/> 
            <glyph glyph-name="q" unicode="&#x71;" horiz-adv-x="608" d=" M608,531 L478,-196 L369,-196 L419,83 L368,26 Q313,-14 225,-14 Q129,-14 76.5,45 Q24,104 24,201 Q24,266 44,326 Q64,386 101.5,435.5 Q139,485 200.5,515 Q262,545 339,545 Q373,545 407.5,534 Q442,523 459,506 L484,452 L498,531 M450,260 L455,288 Q467,362 437,413.5 Q407,465 334,465 Q247,465 194.5,389 Q142,313 142,211 Q142,144 173,105 Q204,66 262,66 Q329,66 380.5,113.5 Q432,161 450,260"/> 
            <glyph glyph-name="r" unicode="&#x72;" horiz-adv-x="392" d=" M356,544 Q377,544 392,538 L377,452 Q215,464 181,276 L133,0 L23,0 L117,530 L226,530 L210,440 L269,514 Q312,544 356,544"/> 
            <glyph glyph-name="s" unicode="&#x73;" horiz-adv-x="449" d=" M260,544 Q354,544 400.5,499.5 Q447,455 449,378 L338,378 Q332,467 256,467 Q212,467 189.5,446 Q167,425 167,394 Q167,361 190.5,342 Q214,323 266,307 Q346,282 383.5,245 Q421,208 421,146 Q421,72 362,26 Q303,-20 203,-20 Q98,-20 45.5,29 Q-7,78 -11,153 L101,153 Q110,58 209,58 Q251,58 277.5,79 Q304,100 304,136 Q304,168 279.5,189 Q255,210 195,230 Q124,252 87,285 Q50,318 50,381 Q50,451 105,497.5 Q160,544 260,544"/> 
            <glyph glyph-name="t" unicode="&#x74;" horiz-adv-x="336" d=" M225,450 L176,172 Q169,134 169,115 Q169,86 190,77 Q211,68 258,75 L244,0 Q204,-10 165,-10 Q54,-10 54,74 Q54,100 65,162 L116,450 L43,450 L57,527 L130,527 L152,654 L261,654 L239,527 L336,527 L322,450"/> 
            <glyph glyph-name="u" unicode="&#x75;" horiz-adv-x="580" d=" M580,531 L487,0 L377,0 L392,86 L345,27 Q284,-14 204,-14 Q125,-14 83.5,22.5 Q42,59 42,122 Q42,160 55,231 L109,531 L219,531 L167,245 Q156,187 156,155 Q156,114 179,90.5 Q202,67 251,68 Q314,69 360.5,122 Q407,175 428,291 L429,294 L471,531"/> 
            <glyph glyph-name="v" unicode="&#x76;" horiz-adv-x="572" d=" M572,531 L275,0 L143,0 L34,531 L158,531 L225,88 L449,531"/> 
            <glyph glyph-name="w" unicode="&#x77;" horiz-adv-x="837" d=" M837,531 L574,0 L447,0 L417,428 L237,0 L109,0 L34,531 L158,531 L192,104 L367,530 L503,530 L533,102 L718,531"/> 
            <glyph glyph-name="x" unicode="&#x78;" horiz-adv-x="546" d=" M308,265 L452,0 L323,0 L230,189 L73,0 L-55,0 L181,265 L48,531 L177,531 L260,340 L417,531 L546,531"/> 
            <glyph glyph-name="y" unicode="&#x79;" horiz-adv-x="572" d=" M572,531 L275,0 Q207,-122 154.5,-166 Q102,-210 24,-210 Q-6,-210 -26,-206 L-13,-125 Q6,-128 23,-128 Q61,-128 88.5,-109 Q116,-90 141,-43 L149,-28 L34,531 L158,531 L225,85 L449,531"/> 
            <glyph glyph-name="z" unicode="&#x7A;" horiz-adv-x="501" d=" M487,448 L126,79 L428,79 L414,0 L-19,0 L-6,76 L358,448 L82,448 L96,527 L501,527"/> 
            <glyph glyph-name="{" unicode="&#x7B;" horiz-adv-x="376" d=" M376,780 L365,714 L350,714 Q313,714 295.5,704.5 Q278,695 269.5,664 Q261,633 262,570 Q264,472 238.5,416.5 Q213,361 147,350 Q219,339 219,272 Q219,222 184,130 Q153,48 153,22 Q153,-14 222,-14 L236,-14 L224,-80 L203,-80 Q83,-80 83,12 Q83,47 119,140 Q149,220 149,262 Q149,312 78,317 L90,383 Q132,387 152.5,400 Q173,413 183.5,450.5 Q194,488 193,560 Q192,690 225.5,735 Q259,780 355,780"/> 
            <glyph glyph-name="|" unicode="&#x7C;" horiz-adv-x="259" d=" M83,-200 L10,-200 L186,800 L259,800"/> 
            <glyph glyph-name="}" unicode="&#x7D;" horiz-adv-x="279" d=" M209,438 Q209,390 279,383 L268,317 Q227,314 206,300.5 Q185,287 174.5,249.5 Q164,212 165,140 Q166,10 132.5,-35 Q99,-80 2,-80 L-19,-80 L-7,-14 L8,-14 Q45,-14 62.5,-4.5 Q80,5 88.5,36 Q97,67 96,130 Q94,227 119,283.5 Q144,340 209,351 Q138,363 138,428 Q138,476 174,570 Q205,653 205,678 Q205,714 136,714 L122,714 L133,780 L154,780 Q275,780 275,688 Q275,653 239,560 Q209,480 209,438"/> 
            <glyph glyph-name="~" unicode="&#x7E;" horiz-adv-x="527" d=" M461,369 L527,369 Q501,223 385,223 Q358,223 337,231.5 Q316,240 274,264 Q217,299 187,299 Q161,299 147,280.5 Q133,262 126,223 L60,223 Q84,369 201,369 Q229,369 250.5,360.5 Q272,352 312,328 Q372,293 399,293 Q425,293 439,311.5 Q453,330 461,369"/> 
            <glyph glyph-name="¡" unicode="&#xA1;" horiz-adv-x="238" d=" M155,405 Q127,405 110.5,420.5 Q94,436 94,462 Q94,496 117.5,520.5 Q141,545 177,545 Q205,545 221.5,529.5 Q238,514 238,488 Q238,454 214,429.5 Q190,405 155,405 M97,344 L190,344 L102,-159 L-15,-159"/> 
            <glyph glyph-name="¢" unicode="&#xA2;" horiz-adv-x="545" d=" M362,460 L292,70 Q370,87 405,176 L517,176 Q446,2 278,-13 L264,-90 L195,-90 L209,-12 Q128,-2 80.5,52 Q33,106 33,200 Q33,332 106.5,430 Q180,528 307,542 L321,620 L390,620 L376,542 Q460,534 502.5,482 Q545,430 545,346 L434,346 Q431,443 362,460 M151,202 Q151,93 224,71 L292,459 Q229,442 190,372 Q151,302 151,202"/> 
            <glyph glyph-name="£" unicode="&#xA3;" horiz-adv-x="550" d=" M255,265 Q255,145 142,88 L500,88 L485,0 L-8,0 L6,78 Q79,94 110.5,143.5 Q142,193 142,250 Q142,277 133,310 L56,310 L67,374 L115,374 Q101,428 101,481 Q101,572 166.5,638 Q232,704 348,704 Q537,704 550,504 L436,504 Q433,563 409,591.5 Q385,620 335,620 Q283,620 250.5,581.5 Q218,543 218,485 Q218,439 238,374 L449,374 L438,310 L251,310 Q255,289 255,265"/> 
            <glyph glyph-name="¤" unicode="&#xA4;" horiz-adv-x="522" d=" M522,459 L452,400 Q472,363 472,318 Q472,248 425,192 L469,138 L419,96 L374,149 Q326,121 268,121 Q212,121 171,157 L104,100 L67,145 L135,203 Q116,241 116,284 Q116,355 162,411 L119,464 L170,507 L215,455 Q258,481 319,481 Q374,481 415,445 L485,504 M187,290 Q187,243 212.5,215.5 Q238,188 278,188 Q333,188 366.5,226 Q400,264 400,313 Q400,359 374,386.5 Q348,414 308,414 Q253,414 220,376 Q187,338 187,290"/> 
            <glyph glyph-name="¥" unicode="&#xA5;" horiz-adv-x="635" d=" M395,363 L511,363 L499,297 L346,297 L338,286 L329,235 L488,235 L476,169 L318,169 L288,0 L178,0 L208,169 L49,169 L61,235 L219,235 L229,292 L228,297 L71,297 L83,363 L203,363 L81,690 L205,690 L301,367 L514,690 L635,690"/> 
            <glyph glyph-name="¦" unicode="&#xA6;" horiz-adv-x="236" d=" M176,350 L107,350 L167,690 L236,690 M86,-160 L17,-160 L77,180 L146,180"/> 
            <glyph glyph-name="§" unicode="&#xA7;" horiz-adv-x="553" d=" M553,250 Q553,198 519.5,154 Q486,110 425,89 Q452,51 452,2 Q452,-78 387,-126 Q322,-174 219,-174 Q137,-174 81,-129.5 Q25,-85 18,2 L130,2 Q134,-47 162.5,-72 Q191,-97 231,-97 Q279,-97 307,-75 Q335,-53 335,-9 Q335,30 306,55.5 Q277,81 201,108 Q119,138 77.5,177.5 Q36,217 36,283 Q36,335 68.5,379.5 Q101,424 165,447 Q142,482 142,531 Q142,599 198,651.5 Q254,704 352,704 Q436,704 484,658.5 Q532,613 540,535 L428,535 Q424,579 402,603 Q380,627 342,627 Q305,627 282,601.5 Q259,576 259,535 Q259,500 286,475.5 Q313,451 373,434 Q465,407 509,362 Q553,317 553,250 M352,152 Q391,158 413.5,182 Q436,206 436,242 Q436,278 407.5,302.5 Q379,327 315,349 Q265,366 234,383 Q194,375 173.5,351 Q153,327 153,294 Q153,258 180.5,234 Q208,210 264,190 Q310,175 352,152"/> 
            <glyph glyph-name="¨" unicode="&#xA8;" horiz-adv-x="282" d=" M76,685 Q97,685 109.5,673 Q122,661 122,641 Q122,616 102.5,598 Q83,580 60,580 Q39,580 26.5,592 Q14,604 14,624 Q14,649 33.5,667 Q53,685 76,685 M236,685 Q256,685 269,672.5 Q282,660 282,641 Q282,616 262.5,598 Q243,580 220,580 Q199,580 186.5,592 Q174,604 174,624 Q174,649 193.5,667 Q213,685 236,685"/> 
            <glyph glyph-name="©" unicode="&#xA9;" horiz-adv-x="813" d=" M255,748 Q589,748 701,635.5 Q813,523 813,355 Q813,187 701,74.5 Q589,-38 422,-38 Q255,-38 143,74.5 Q31,187 31,355 Q31,523 255,748 M422,680 Q286,680 195.5,587 Q105,494 105,355 Q105,216 195.5,123 Q286,30 422,30 Q557,30 648,123 Q739,216 739,355 Q739,494 648,587 Q557,680 422,680 M429,585 Q512,585 564.5,539.5 Q617,494 630,417 L524,417 Q510,509 427,509 Q375,509 347.5,468 Q320,427 320,356 Q320,284 349,242.5 Q378,201 428,201 Q467,201 492.5,226 Q518,251 523,292 L629,292 Q612,214 560.5,169.5 Q509,125 420,125 Q326,125 267.5,187.5 Q209,250 209,354 Q209,460 269,522.5 Q329,585 429,585"/> 
            <glyph glyph-name="«" unicode="&#xAB;" horiz-adv-x="556" d=" M202,240 L305,82 L221,82 L113,248 L279,414 L376,414 M382,240 L485,82 L401,82 L293,248 L459,414 L556,414"/> 
            <glyph glyph-name="¬" unicode="&#xAC;" horiz-adv-x="484" d=" M452,201 L383,201 L404,322 L93,322 L105,388 L484,388"/> 
            <glyph glyph-name="®" unicode="&#xAE;" horiz-adv-x="469" d=" M276,764 Q364,764 416.5,710.5 Q469,657 469,577 Q469,482 402.5,413 Q336,344 228,344 Q140,344 87.5,397.5 Q35,451 35,531 Q35,626 101.5,695 Q168,764 276,764 M237,393 Q320,393 369,446 Q418,499 418,577 Q418,639 377.5,677.5 Q337,716 268,716 Q185,716 135.5,662.5 Q86,609 86,531 Q86,469 126.5,431 Q167,393 237,393 M290,660 Q347,654 347,605 Q347,562 297,550 Q324,541 322,509 Q320,478 330,455 L271,455 Q266,482 267,503 Q267,523 243,523 L222,523 L210,455 L158,455 L194,661 L263,661 Q281,661 290,660 M230,566 L247,566 Q259,566 265,567 Q292,570 292,595 Q292,615 273,618 Q267,619 256,619 L239,619"/> 
            <glyph glyph-name="¯" unicode="&#xAF;" horiz-adv-x="283" d=" M272,599 L17,599 L28,662 L283,662"/> 
            <glyph glyph-name="°" unicode="&#xB0;" horiz-adv-x="345" d=" M231,749 Q283,749 314,719 Q345,689 345,642 Q345,583 306.5,543 Q268,503 204,503 Q153,503 121.5,533.5 Q90,564 90,610 Q90,670 128.5,709.5 Q167,749 231,749 M225,685 Q197,685 179,667 Q161,649 161,616 Q161,593 174.5,580 Q188,567 210,567 Q238,567 256,585.5 Q274,604 274,636 Q274,660 260.5,672.5 Q247,685 225,685"/> 
            <glyph glyph-name="±" unicode="&#xB1;" horiz-adv-x="516" d=" M516,352 L504,286 L330,286 L300,115 L232,115 L262,286 L89,286 L101,352 L274,352 L303,519 L372,519 L342,352 M50,64 L465,64 L454,0 L39,0"/> 
            <glyph glyph-name="´" unicode="&#xB4;" horiz-adv-x="290" d=" M167,577 L101,577 L190,691 L290,691"/> 
            <glyph glyph-name="¶" unicode="&#xB6;" horiz-adv-x="580" d=" M580,690 L438,-110 L369,-110 L499,624 L402,624 L272,-110 L203,-110 L279,320 L262,320 Q223,320 206,321 Q146,325 112,371.5 Q78,418 78,480 Q78,554 127.5,618.5 Q177,683 271,689 Q289,690 328,690"/> 
            <glyph glyph-name="·" unicode="&#xB7;" horiz-adv-x="196" d=" M132,382 Q160,382 178,365 Q196,348 196,321 Q196,282 169.5,255 Q143,228 105,228 Q76,228 58,245 Q40,262 40,290 Q40,329 67,355.5 Q94,382 132,382"/> 
            <glyph glyph-name="¸" unicode="&#xB8;" horiz-adv-x="230" d=" M194,9 L158,-41 Q230,-53 230,-114 Q230,-162 191,-186 Q152,-210 90,-210 Q52,-210 28,-202 L38,-154 Q55,-161 90,-161 Q159,-161 159,-118 Q159,-97 135,-86.5 Q111,-76 70,-81 L132,9"/> 
            <glyph glyph-name="»" unicode="&#xBB;" horiz-adv-x="454" d=" M274,248 L108,82 L10,82 L184,256 L81,414 L166,414 M454,248 L288,82 L190,82 L364,256 L261,414 L346,414"/> 
            <glyph glyph-name="¿" unicode="&#xBF;" horiz-adv-x="469" d=" M313,405 Q285,405 268.5,420.5 Q252,436 252,462 Q252,496 275.5,520.5 Q299,545 335,545 Q363,545 379.5,529.5 Q396,514 396,488 Q396,454 372,429.5 Q348,405 313,405 M202,-173 Q111,-173 59.5,-131.5 Q8,-90 8,-21 Q8,42 39.5,92.5 Q71,143 153,211 Q200,251 221,279 Q242,307 252,344 L353,344 Q345,298 323.5,265.5 Q302,233 248,181 Q176,112 151.5,72.5 Q127,33 127,-8 Q127,-47 152,-68 Q177,-89 220,-89 Q272,-89 308,-56 Q344,-23 356,42 L469,42 Q452,-58 379.5,-115.5 Q307,-173 202,-173"/> 
            <glyph glyph-name="À" unicode="&#xC0;" horiz-adv-x="612" d=" M406,736 L326,838 L426,838 L472,736 M459,228 L214,228 L98,0 L-24,0 L345,690 L495,690 L612,0 L493,0 M446,315 L403,597 L259,315"/> 
            <glyph glyph-name="Á" unicode="&#xC1;" horiz-adv-x="612" d=" M460,736 L394,736 L475,838 L575,838 M459,228 L214,228 L98,0 L-24,0 L345,690 L495,690 L612,0 L493,0 M446,315 L403,597 L259,315"/> 
            <glyph glyph-name="Â" unicode="&#xC2;" horiz-adv-x="612" d=" M401,736 L326,736 L409,838 L491,838 L539,736 L463,736 L442,795 M459,228 L214,228 L98,0 L-24,0 L345,690 L495,690 L612,0 L493,0 M446,315 L403,597 L259,315"/> 
            <glyph glyph-name="Ã" unicode="&#xC3;" horiz-adv-x="612" d=" M386,771 Q370,771 366,748 L313,748 Q322,796 339.5,815.5 Q357,835 388,835 Q413,835 453,820 Q484,808 496,808 Q512,808 517,831 L569,831 Q560,783 542.5,763.5 Q525,744 494,744 Q470,744 429,759 Q400,771 386,771 M459,228 L214,228 L98,0 L-24,0 L345,690 L495,690 L612,0 L493,0 M446,315 L403,597 L259,315"/> 
            <glyph glyph-name="Ä" unicode="&#xC4;" horiz-adv-x="612" d=" M355,733 Q334,733 321,745.5 Q308,758 308,778 Q308,803 327.5,821 Q347,839 370,839 Q391,839 403.5,826.5 Q416,814 416,794 Q416,769 397,751 Q378,733 355,733 M510,733 Q489,733 476,745.5 Q463,758 463,778 Q463,803 482.5,821 Q502,839 525,839 Q546,839 558.5,826.5 Q571,814 571,794 Q571,769 552,751 Q533,733 510,733 M459,228 L214,228 L98,0 L-24,0 L345,690 L495,690 L612,0 L493,0 M446,315 L403,597 L259,315"/> 
            <glyph glyph-name="Å" unicode="&#xC5;" horiz-adv-x="612" d=" M432,718 Q392,718 368.5,738.5 Q345,759 345,791 Q345,836 377,862.5 Q409,889 456,889 Q496,889 519.5,868 Q543,847 543,815 Q543,771 511,744.5 Q479,718 432,718 M452,845 Q432,845 417.5,831.5 Q403,818 403,795 Q403,780 412,770.5 Q421,761 436,761 Q456,761 470.5,775 Q485,789 485,811 Q485,826 476,835.5 Q467,845 452,845 M459,228 L214,228 L98,0 L-24,0 L345,690 L495,690 L612,0 L493,0 M446,315 L403,597 L259,315"/> 
            <glyph glyph-name="Æ" unicode="&#xC6;" horiz-adv-x="977" d=" M585,603 L563,389 L896,389 L881,302 L555,302 L533,88 L881,88 L865,0 L415,0 L440,235 L219,235 L47,0 L-82,0 L436,690 L977,690 L961,603 M477,587 L284,323 L450,323"/> 
            <glyph glyph-name="Ç" unicode="&#xC7;" horiz-adv-x="715" d=" M450,704 Q581,704 648,639 Q715,574 707,468 L706,458 L596,458 L596,468 Q596,547 556,583.5 Q516,620 435,620 Q322,620 250.5,524 Q179,428 179,282 Q179,176 223.5,123 Q268,70 346,70 Q490,70 548,224 L552,234 L662,234 L659,224 Q628,114 544,50 Q460,-14 329,-14 Q270,-14 226,2 L195,-41 Q267,-53 267,-114 Q267,-162 228,-186 Q189,-210 127,-210 Q89,-210 65,-202 L75,-154 Q92,-161 127,-161 Q196,-161 196,-118 Q196,-97 172,-86.5 Q148,-76 107,-81 L169,9 L206,9 Q135,40 96.5,107.5 Q58,175 59,271 Q58,458 170,581 Q282,704 450,704"/> 
            <glyph glyph-name="È" unicode="&#xC8;" horiz-adv-x="633" d=" M390,736 L310,838 L410,838 L456,736 M261,603 L223,389 L552,389 L537,302 L207,302 L170,88 L537,88 L521,0 L44,0 L166,690 L633,690 L617,603"/> 
            <glyph glyph-name="É" unicode="&#xC9;" horiz-adv-x="633" d=" M444,736 L378,736 L459,838 L559,838 M261,603 L223,389 L552,389 L537,302 L207,302 L170,88 L537,88 L521,0 L44,0 L166,690 L633,690 L617,603"/> 
            <glyph glyph-name="Ê" unicode="&#xCA;" horiz-adv-x="633" d=" M386,736 L311,736 L394,838 L476,838 L524,736 L448,736 L427,795 M261,603 L223,389 L552,389 L537,302 L207,302 L170,88 L537,88 L521,0 L44,0 L166,690 L633,690 L617,603"/> 
            <glyph glyph-name="Ë" unicode="&#xCB;" horiz-adv-x="633" d=" M340,733 Q319,733 306,745.5 Q293,758 293,778 Q293,803 312.5,821 Q332,839 355,839 Q376,839 388.5,826.5 Q401,814 401,794 Q401,769 382,751 Q363,733 340,733 M495,733 Q474,733 461,745.5 Q448,758 448,778 Q448,803 467.5,821 Q487,839 510,839 Q531,839 543.5,826.5 Q556,814 556,794 Q556,769 537,751 Q518,733 495,733 M261,603 L223,389 L552,389 L537,302 L207,302 L170,88 L537,88 L521,0 L44,0 L166,690 L633,690 L617,603"/> 
            <glyph glyph-name="Ì" unicode="&#xCC;" horiz-adv-x="276" d=" M269,736 L203,736 L123,838 L223,838 M154,0 L44,0 L166,690 L276,690"/> 
            <glyph glyph-name="Í" unicode="&#xCD;" horiz-adv-x="372" d=" M257,736 L191,736 L272,838 L372,838 M154,0 L44,0 L166,690 L276,690"/> 
            <glyph glyph-name="Î" unicode="&#xCE;" horiz-adv-x="336" d=" M198,736 L123,736 L206,838 L288,838 L336,736 L260,736 L239,795 M166,690 L276,690 L154,0 L44,0"/> 
            <glyph glyph-name="Ï" unicode="&#xCF;" horiz-adv-x="369" d=" M168,839 Q189,839 201.5,826.5 Q214,814 214,794 Q214,769 195,751 Q176,733 153,733 Q132,733 119,745.5 Q106,758 106,778 Q106,803 125.5,821 Q145,839 168,839 M323,839 Q344,839 356.5,826.5 Q369,814 369,794 Q369,769 350,751 Q331,733 308,733 Q287,733 274,745.5 Q261,758 261,778 Q261,803 280.5,821 Q300,839 323,839 M154,0 L44,0 L166,690 L276,690"/> 
            <glyph glyph-name="Ð" unicode="&#xD0;" horiz-adv-x="699" d=" M451,687 Q560,677 629.5,602 Q699,527 699,393 Q699,323 676.5,257.5 Q654,192 610.5,138 Q567,84 496.5,47.5 Q426,11 338,3 Q302,0 249,0 L44,0 L97,302 L12,302 L23,368 L109,368 L166,690 L362,690 Q417,690 451,687 M339,91 Q459,107 520,191 Q581,275 581,391 Q581,486 538,538 Q495,590 424,599 Q395,603 351,603 L261,603 L220,368 L336,368 L325,302 L208,302 L170,88 L264,88 Q316,88 339,91"/> 
            <glyph glyph-name="Ñ" unicode="&#xD1;" horiz-adv-x="736" d=" M415,771 Q399,771 395,748 L342,748 Q351,796 368.5,815.5 Q386,835 417,835 Q442,835 482,820 Q513,808 525,808 Q541,808 546,831 L598,831 Q589,783 571.5,763.5 Q554,744 523,744 Q499,744 458,759 Q429,771 415,771 M736,690 L614,0 L457,0 L253,571 L154,0 L44,0 L166,690 L321,690 L526,114 L627,690"/> 
            <glyph glyph-name="Ò" unicode="&#xD2;" horiz-adv-x="743" d=" M441,736 L361,838 L461,838 L507,736 M452,704 Q589,704 666,619 Q743,534 743,405 Q743,322 717.5,247 Q692,172 644.5,113.5 Q597,55 521.5,20.5 Q446,-14 352,-14 Q215,-14 138,71 Q61,156 61,285 Q61,398 104,491.5 Q147,585 237.5,644.5 Q328,704 452,704 M367,70 Q451,70 511.5,123.5 Q572,177 598.5,250.5 Q625,324 625,404 Q625,502 575,561 Q525,620 437,620 Q353,620 292.5,566.5 Q232,513 205.5,439.5 Q179,366 179,286 Q179,188 229,129 Q279,70 367,70"/> 
            <glyph glyph-name="Ó" unicode="&#xD3;" horiz-adv-x="743" d=" M495,736 L429,736 L510,838 L610,838 M452,704 Q589,704 666,619 Q743,534 743,405 Q743,322 717.5,247 Q692,172 644.5,113.5 Q597,55 521.5,20.5 Q446,-14 352,-14 Q215,-14 138,71 Q61,156 61,285 Q61,398 104,491.5 Q147,585 237.5,644.5 Q328,704 452,704 M367,70 Q451,70 511.5,123.5 Q572,177 598.5,250.5 Q625,324 625,404 Q625,502 575,561 Q525,620 437,620 Q353,620 292.5,566.5 Q232,513 205.5,439.5 Q179,366 179,286 Q179,188 229,129 Q279,70 367,70"/> 
            <glyph glyph-name="Ô" unicode="&#xD4;" horiz-adv-x="743" d=" M437,736 L362,736 L445,838 L527,838 L575,736 L499,736 L478,795 M452,704 Q589,704 666,619 Q743,534 743,405 Q743,322 717.5,247 Q692,172 644.5,113.5 Q597,55 521.5,20.5 Q446,-14 352,-14 Q215,-14 138,71 Q61,156 61,285 Q61,398 104,491.5 Q147,585 237.5,644.5 Q328,704 452,704 M367,70 Q451,70 511.5,123.5 Q572,177 598.5,250.5 Q625,324 625,404 Q625,502 575,561 Q525,620 437,620 Q353,620 292.5,566.5 Q232,513 205.5,439.5 Q179,366 179,286 Q179,188 229,129 Q279,70 367,70"/> 
            <glyph glyph-name="Õ" unicode="&#xD5;" horiz-adv-x="743" d=" M422,771 Q406,771 402,748 L349,748 Q358,796 375.5,815.5 Q393,835 424,835 Q449,835 489,820 Q520,808 532,808 Q548,808 553,831 L605,831 Q596,783 578.5,763.5 Q561,744 530,744 Q506,744 465,759 Q436,771 422,771 M452,704 Q589,704 666,619 Q743,534 743,405 Q743,322 717.5,247 Q692,172 644.5,113.5 Q597,55 521.5,20.5 Q446,-14 352,-14 Q215,-14 138,71 Q61,156 61,285 Q61,398 104,491.5 Q147,585 237.5,644.5 Q328,704 452,704 M367,70 Q451,70 511.5,123.5 Q572,177 598.5,250.5 Q625,324 625,404 Q625,502 575,561 Q525,620 437,620 Q353,620 292.5,566.5 Q232,513 205.5,439.5 Q179,366 179,286 Q179,188 229,129 Q279,70 367,70"/> 
            <glyph glyph-name="Ö" unicode="&#xD6;" horiz-adv-x="743" d=" M391,733 Q370,733 357,745.5 Q344,758 344,778 Q344,803 363.5,821 Q383,839 406,839 Q427,839 439.5,826.5 Q452,814 452,794 Q452,769 433,751 Q414,733 391,733 M546,733 Q525,733 512,745.5 Q499,758 499,778 Q499,803 518.5,821 Q538,839 561,839 Q582,839 594.5,826.5 Q607,814 607,794 Q607,769 588,751 Q569,733 546,733 M452,704 Q589,704 666,619 Q743,534 743,405 Q743,322 717.5,247 Q692,172 644.5,113.5 Q597,55 521.5,20.5 Q446,-14 352,-14 Q215,-14 138,71 Q61,156 61,285 Q61,398 104,491.5 Q147,585 237.5,644.5 Q328,704 452,704 M367,70 Q451,70 511.5,123.5 Q572,177 598.5,250.5 Q625,324 625,404 Q625,502 575,561 Q525,620 437,620 Q353,620 292.5,566.5 Q232,513 205.5,439.5 Q179,366 179,286 Q179,188 229,129 Q279,70 367,70"/> 
            <glyph glyph-name="×" unicode="&#xD7;" horiz-adv-x="511" d=" M347,314 L459,178 L401,130 L290,265 L126,126 L79,183 L243,322 L132,457 L189,506 L300,371 L464,510 L511,453"/> 
            <glyph glyph-name="Ø" unicode="&#xD8;" horiz-adv-x="791" d=" M791,637 L708,567 Q747,496 747,405 Q747,322 721.5,247 Q696,172 648.5,113.5 Q601,55 525,20.5 Q449,-14 355,-14 Q213,-14 134,78 L48,5 L8,53 L99,130 Q64,200 64,285 Q64,398 107,491.5 Q150,585 240.5,644.5 Q331,704 456,704 Q592,704 672,618 L751,685 M182,286 Q182,245 191,209 L589,547 Q538,620 441,620 Q377,620 326,589.5 Q275,559 244.5,509 Q214,459 198,401.5 Q182,344 182,286 M629,404 Q629,451 617,489 L217,149 Q268,70 370,70 Q421,70 464.5,90.5 Q508,111 538,144.5 Q568,178 589,221.5 Q610,265 619.5,311.5 Q629,358 629,404"/> 
            <glyph glyph-name="Ù" unicode="&#xD9;" horiz-adv-x="705" d=" M482,736 L416,736 L336,838 L436,838 M705,690 L631,272 Q624,231 616,199 Q565,-14 315,-14 Q199,-14 139.5,37 Q80,88 80,181 Q80,219 91,280 L163,690 L273,690 L199,270 Q190,219 190,190 Q190,134 225,102 Q260,70 327,70 Q401,70 445,102.5 Q489,135 509,209 Q515,231 521,265 L595,690"/> 
            <glyph glyph-name="Ú" unicode="&#xDA;" horiz-adv-x="705" d=" M470,736 L404,736 L485,838 L585,838 M705,690 L631,272 Q624,231 616,199 Q565,-14 315,-14 Q199,-14 139.5,37 Q80,88 80,181 Q80,219 91,280 L163,690 L273,690 L199,270 Q190,219 190,190 Q190,134 225,102 Q260,70 327,70 Q401,70 445,102.5 Q489,135 509,209 Q515,231 521,265 L595,690"/> 
            <glyph glyph-name="Û" unicode="&#xDB;" horiz-adv-x="705" d=" M411,736 L336,736 L419,838 L501,838 L549,736 L473,736 L452,795 M705,690 L631,272 Q624,231 616,199 Q565,-14 315,-14 Q199,-14 139.5,37 Q80,88 80,181 Q80,219 91,280 L163,690 L273,690 L199,270 Q190,219 190,190 Q190,134 225,102 Q260,70 327,70 Q401,70 445,102.5 Q489,135 509,209 Q515,231 521,265 L595,690"/> 
            <glyph glyph-name="Ü" unicode="&#xDC;" horiz-adv-x="705" d=" M381,839 Q402,839 414.5,826.5 Q427,814 427,794 Q427,769 408,751 Q389,733 366,733 Q345,733 332,745.5 Q319,758 319,778 Q319,803 338.5,821 Q358,839 381,839 M536,839 Q557,839 569.5,826.5 Q582,814 582,794 Q582,769 563,751 Q544,733 521,733 Q500,733 487,745.5 Q474,758 474,778 Q474,803 493.5,821 Q513,839 536,839 M705,690 L631,272 Q624,231 616,199 Q565,-14 315,-14 Q199,-14 139.5,37 Q80,88 80,181 Q80,219 91,280 L163,690 L273,690 L199,270 Q190,219 190,190 Q190,134 225,102 Q260,70 327,70 Q401,70 445,102.5 Q489,135 509,209 Q515,231 521,265 L595,690"/> 
            <glyph glyph-name="Ý" unicode="&#xDD;" horiz-adv-x="692" d=" M430,736 L364,736 L445,838 L545,838 M373,266 L327,0 L217,0 L265,269 L95,690 L212,690 L336,366 L567,690 L692,690"/> 
            <glyph glyph-name="Þ" unicode="&#xDE;" horiz-adv-x="622" d=" M476,598 Q542,589 582,550 Q622,511 622,445 Q622,423 618,403 Q603,318 545,267 Q487,216 407,206 Q373,202 311,202 L190,202 L154,0 L44,0 L166,690 L276,690 L260,602 L382,602 Q444,602 476,598 M502,402 Q504,420 504,426 Q504,495 431,509 Q408,513 362,513 L244,513 L205,291 L323,291 Q369,291 393,295 Q485,312 502,402"/> 
            <glyph glyph-name="ß" unicode="&#xDF;" horiz-adv-x="596" d=" M391,754 Q490,754 543,710 Q596,666 596,596 Q596,530 551,473 Q502,450 484,430 Q466,410 466,384 Q466,346 507,304 Q570,241 570,166 Q570,95 512,45.5 Q454,-4 348,-4 Q288,-4 242,7 L257,92 Q307,79 348,79 Q402,79 427,105 Q452,131 452,167 Q452,214 409,260 Q376,297 363,321.5 Q350,346 350,382 Q350,461 454,514 Q478,550 478,591 Q478,628 453,649 Q428,670 378,670 Q306,670 269,618.5 Q232,567 216,476 L133,0 L23,0 L106,468 Q115,521 127.5,561 Q140,601 162,639 Q184,677 214,701 Q244,725 288.5,739.5 Q333,754 391,754"/> 
            <glyph glyph-name="à" unicode="&#xE0;" horiz-adv-x="494" d=" M302,577 L220,691 L320,691 L368,577 M314,545 Q406,545 450,509 Q494,473 494,410 Q494,381 484,321 L451,135 Q441,78 437,0 L329,0 L332,76 L296,27 Q250,-14 158,-14 Q96,-14 54,22 Q12,58 12,125 Q12,231 111.5,282 Q211,333 375,321 L377,333 Q384,378 384,397 Q384,465 308,465 Q251,465 221,439.5 Q191,414 179,363 L69,363 Q86,449 152,497 Q218,545 314,545 M353,199 L362,249 Q262,260 195.5,231.5 Q129,203 129,138 Q129,103 151,84.5 Q173,66 211,66 Q257,66 299.5,104 Q342,142 353,199"/> 
            <glyph glyph-name="á" unicode="&#xE1;" horiz-adv-x="494" d=" M354,577 L288,577 L377,691 L477,691 M314,545 Q406,545 450,509 Q494,473 494,410 Q494,381 484,321 L451,135 Q441,78 437,0 L329,0 L332,76 L296,27 Q250,-14 158,-14 Q96,-14 54,22 Q12,58 12,125 Q12,231 111.5,282 Q211,333 375,321 L377,333 Q384,378 384,397 Q384,465 308,465 Q251,465 221,439.5 Q191,414 179,363 L69,363 Q86,449 152,497 Q218,545 314,545 M353,199 L362,249 Q262,260 195.5,231.5 Q129,203 129,138 Q129,103 151,84.5 Q173,66 211,66 Q257,66 299.5,104 Q342,142 353,199"/> 
            <glyph glyph-name="â" unicode="&#xE2;" horiz-adv-x="494" d=" M295,577 L222,577 L309,691 L390,691 L435,577 L361,577 L340,642 M314,545 Q406,545 450,509 Q494,473 494,410 Q494,381 484,321 L451,135 Q441,78 437,0 L329,0 L332,76 L296,27 Q250,-14 158,-14 Q96,-14 54,22 Q12,58 12,125 Q12,231 111.5,282 Q211,333 375,321 L377,333 Q384,378 384,397 Q384,465 308,465 Q251,465 221,439.5 Q191,414 179,363 L69,363 Q86,449 152,497 Q218,545 314,545 M353,199 L362,249 Q262,260 195.5,231.5 Q129,203 129,138 Q129,103 151,84.5 Q173,66 211,66 Q257,66 299.5,104 Q342,142 353,199"/> 
            <glyph glyph-name="ã" unicode="&#xE3;" horiz-adv-x="494" d=" M282,616 Q266,616 262,593 L209,593 Q218,641 235.5,660.5 Q253,680 284,680 Q309,680 349,665 Q380,653 392,653 Q408,653 413,676 L465,676 Q456,628 438.5,608.5 Q421,589 390,589 Q366,589 325,604 Q296,616 282,616 M314,545 Q406,545 450,509 Q494,473 494,410 Q494,381 484,321 L451,135 Q441,78 437,0 L329,0 L332,76 L296,27 Q250,-14 158,-14 Q96,-14 54,22 Q12,58 12,125 Q12,231 111.5,282 Q211,333 375,321 L377,333 Q384,378 384,397 Q384,465 308,465 Q251,465 221,439.5 Q191,414 179,363 L69,363 Q86,449 152,497 Q218,545 314,545 M353,199 L362,249 Q262,260 195.5,231.5 Q129,203 129,138 Q129,103 151,84.5 Q173,66 211,66 Q257,66 299.5,104 Q342,142 353,199"/> 
            <glyph glyph-name="ä" unicode="&#xE4;" horiz-adv-x="494" d=" M247,580 Q226,580 213.5,592 Q201,604 201,624 Q201,649 220.5,667 Q240,685 263,685 Q284,685 296.5,673 Q309,661 309,641 Q309,616 289.5,598 Q270,580 247,580 M407,580 Q386,580 373.5,592 Q361,604 361,624 Q361,649 380.5,667 Q400,685 423,685 Q443,685 456,672.5 Q469,660 469,641 Q469,616 449.5,598 Q430,580 407,580 M314,545 Q406,545 450,509 Q494,473 494,410 Q494,381 484,321 L451,135 Q441,78 437,0 L329,0 L332,76 L296,27 Q250,-14 158,-14 Q96,-14 54,22 Q12,58 12,125 Q12,231 111.5,282 Q211,333 375,321 L377,333 Q384,378 384,397 Q384,465 308,465 Q251,465 221,439.5 Q191,414 179,363 L69,363 Q86,449 152,497 Q218,545 314,545 M353,199 L362,249 Q262,260 195.5,231.5 Q129,203 129,138 Q129,103 151,84.5 Q173,66 211,66 Q257,66 299.5,104 Q342,142 353,199"/> 
            <glyph glyph-name="å" unicode="&#xE5;" horiz-adv-x="494" d=" M325,566 Q286,566 263,586 Q240,606 240,640 Q240,685 273,715 Q306,745 356,745 Q394,745 417,725 Q440,705 440,671 Q440,626 407,596 Q374,566 325,566 M348,702 Q327,702 313,685 Q299,668 299,644 Q299,609 332,609 Q353,609 367,626 Q381,643 381,667 Q381,702 348,702 M314,545 Q406,545 450,509 Q494,473 494,410 Q494,381 484,321 L451,135 Q441,78 437,0 L329,0 L332,76 L296,27 Q250,-14 158,-14 Q96,-14 54,22 Q12,58 12,125 Q12,231 111.5,282 Q211,333 375,321 L377,333 Q384,378 384,397 Q384,465 308,465 Q251,465 221,439.5 Q191,414 179,363 L69,363 Q86,449 152,497 Q218,545 314,545 M353,199 L362,249 Q262,260 195.5,231.5 Q129,203 129,138 Q129,103 151,84.5 Q173,66 211,66 Q257,66 299.5,104 Q342,142 353,199"/> 
            <glyph glyph-name="æ" unicode="&#xE6;" horiz-adv-x="883" d=" M867,235 L487,235 Q485,209 485,199 Q485,131 514.5,98.5 Q544,66 595,66 Q644,66 683,94 Q722,122 739,172 L850,172 Q818,81 743.5,33.5 Q669,-14 578,-14 Q433,-14 394,101 L349,41 Q310,11 271,-1.5 Q232,-14 176,-14 Q103,-14 57,22.5 Q11,59 11,120 Q11,207 91.5,259.5 Q172,312 347,312 L386,312 Q395,361 395,378 Q395,464 308,464 Q208,464 185,362 L75,362 Q92,448 158.5,496 Q225,544 321,544 Q460,544 485,454 Q567,544 689,544 Q784,544 833.5,489 Q883,434 883,342 Q883,286 867,235 M669,464 Q612,464 568,425 Q524,386 503,312 L771,312 Q782,464 669,464 M369,208 L374,235 Q356,236 323,236 Q227,236 178.5,212 Q130,188 130,133 Q130,101 152,83.5 Q174,66 214,66 Q271,66 314.5,105 Q358,144 369,208"/> 
            <glyph glyph-name="ç" unicode="&#xE7;" horiz-adv-x="535" d=" M248,66 Q353,66 396,176 L508,176 Q435,-7 251,-14 L231,-41 Q303,-53 303,-114 Q303,-162 264,-186 Q225,-210 163,-210 Q125,-210 101,-202 L111,-154 Q128,-161 163,-161 Q232,-161 232,-118 Q232,-97 208,-86.5 Q184,-76 143,-81 L191,-11 Q114,1 69,54.5 Q24,108 24,200 Q24,342 108,443 Q192,544 334,544 Q434,544 484,491 Q534,438 535,346 L424,346 Q420,464 319,464 Q242,464 192,390 Q142,316 142,202 Q142,134 171,100 Q200,66 248,66"/> 
            <glyph glyph-name="è" unicode="&#xE8;" horiz-adv-x="537" d=" M317,577 L235,691 L335,691 L383,577 M521,235 L141,235 Q140,223 140,200 Q140,132 169.5,99 Q199,66 250,66 Q299,66 338,94.5 Q377,123 393,172 L505,172 Q474,81 401.5,33.5 Q329,-14 236,-14 Q140,-14 82,40.5 Q24,95 24,198 Q24,262 43,323 Q62,384 98,434 Q134,484 193,514.5 Q252,545 326,545 Q426,545 481.5,489 Q537,433 537,342 Q537,286 521,235 M313,465 Q251,465 211.5,422.5 Q172,380 154,312 L425,312 Q426,323 426,342 Q426,400 396,432.5 Q366,465 313,465"/> 
            <glyph glyph-name="é" unicode="&#xE9;" horiz-adv-x="537" d=" M369,577 L303,577 L392,691 L492,691 M521,235 L141,235 Q140,223 140,200 Q140,132 169.5,99 Q199,66 250,66 Q299,66 338,94.5 Q377,123 393,172 L505,172 Q474,81 401.5,33.5 Q329,-14 236,-14 Q140,-14 82,40.5 Q24,95 24,198 Q24,262 43,323 Q62,384 98,434 Q134,484 193,514.5 Q252,545 326,545 Q426,545 481.5,489 Q537,433 537,342 Q537,286 521,235 M313,465 Q251,465 211.5,422.5 Q172,380 154,312 L425,312 Q426,323 426,342 Q426,400 396,432.5 Q366,465 313,465"/> 
            <glyph glyph-name="ê" unicode="&#xEA;" horiz-adv-x="537" d=" M310,577 L237,577 L324,691 L405,691 L450,577 L376,577 L355,642 M521,235 L141,235 Q140,223 140,200 Q140,132 169.5,99 Q199,66 250,66 Q299,66 338,94.5 Q377,123 393,172 L505,172 Q474,81 401.5,33.5 Q329,-14 236,-14 Q140,-14 82,40.5 Q24,95 24,198 Q24,262 43,323 Q62,384 98,434 Q134,484 193,514.5 Q252,545 326,545 Q426,545 481.5,489 Q537,433 537,342 Q537,286 521,235 M313,465 Q251,465 211.5,422.5 Q172,380 154,312 L425,312 Q426,323 426,342 Q426,400 396,432.5 Q366,465 313,465"/> 
            <glyph glyph-name="ë" unicode="&#xEB;" horiz-adv-x="537" d=" M262,580 Q241,580 228.5,592 Q216,604 216,624 Q216,649 235.5,667 Q255,685 278,685 Q299,685 311.5,673 Q324,661 324,641 Q324,616 304.5,598 Q285,580 262,580 M422,580 Q401,580 388.5,592 Q376,604 376,624 Q376,649 395.5,667 Q415,685 438,685 Q458,685 471,672.5 Q484,660 484,641 Q484,616 464.5,598 Q445,580 422,580 M521,235 L141,235 Q140,223 140,200 Q140,132 169.5,99 Q199,66 250,66 Q299,66 338,94.5 Q377,123 393,172 L505,172 Q474,81 401.5,33.5 Q329,-14 236,-14 Q140,-14 82,40.5 Q24,95 24,198 Q24,262 43,323 Q62,384 98,434 Q134,484 193,514.5 Q252,545 326,545 Q426,545 481.5,489 Q537,433 537,342 Q537,286 521,235 M313,465 Q251,465 211.5,422.5 Q172,380 154,312 L425,312 Q426,323 426,342 Q426,400 396,432.5 Q366,465 313,465"/> 
            <glyph glyph-name="ì" unicode="&#xEC;" horiz-adv-x="227" d=" M222,577 L156,577 L74,691 L174,691 M133,0 L23,0 L117,531 L227,531"/> 
            <glyph glyph-name="í" unicode="&#xED;" horiz-adv-x="331" d=" M208,577 L142,577 L231,691 L331,691 M133,0 L23,0 L117,531 L227,531"/> 
            <glyph glyph-name="î" unicode="&#xEE;" horiz-adv-x="289" d=" M149,577 L76,577 L163,691 L244,691 L289,577 L215,577 L194,642 M117,531 L227,531 L133,0 L23,0"/> 
            <glyph glyph-name="ï" unicode="&#xEF;" horiz-adv-x="323" d=" M117,685 Q138,685 150.5,673 Q163,661 163,641 Q163,616 143.5,598 Q124,580 101,580 Q80,580 67.5,592 Q55,604 55,624 Q55,649 74.5,667 Q94,685 117,685 M277,685 Q297,685 310,672.5 Q323,660 323,641 Q323,616 303.5,598 Q284,580 261,580 Q240,580 227.5,592 Q215,604 215,624 Q215,649 234.5,667 Q254,685 277,685 M133,0 L23,0 L117,531 L227,531"/> 
            <glyph glyph-name="ð" unicode="&#xF0;" horiz-adv-x="581" d=" M581,655 L516,634 Q562,545 562,373 Q562,300 544.5,234 Q527,168 491.5,111 Q456,54 393.5,20 Q331,-14 248,-14 Q140,-14 82,48 Q24,110 24,207 Q24,265 42.5,323 Q61,381 95.5,431.5 Q130,482 188,513.5 Q246,545 317,545 Q382,545 425,516 L456,462 Q452,553 422,604 L288,561 L271,615 L382,651 Q355,675 314,694 L398,745 Q450,720 482,683 L565,710 M256,69 Q306,69 344,93 Q382,117 403,157 Q424,197 434.5,241 Q445,285 445,331 Q445,395 409.5,429 Q374,463 323,463 Q261,463 218,420 Q175,377 158,322.5 Q141,268 141,212 Q141,69 256,69"/> 
            <glyph glyph-name="ñ" unicode="&#xF1;" horiz-adv-x="561" d=" M319,616 Q303,616 299,593 L246,593 Q255,641 272.5,660.5 Q290,680 321,680 Q346,680 386,665 Q417,653 429,653 Q445,653 450,676 L502,676 Q493,628 475.5,608.5 Q458,589 427,589 Q403,589 362,604 Q333,616 319,616 M399,545 Q479,545 520,508.5 Q561,472 561,409 Q561,371 548,301 L494,0 L385,0 L436,286 Q447,345 447,376 Q447,465 352,464 Q214,460 174,237 L133,0 L23,0 L116,531 L226,531 L211,445 L258,504 Q320,545 399,545"/> 
            <glyph glyph-name="ò" unicode="&#xF2;" horiz-adv-x="574" d=" M331,577 L249,691 L349,691 L397,577 M339,545 Q457,545 515.5,478.5 Q574,412 574,310 Q574,252 555,196 Q536,140 500,92 Q464,44 402.5,15 Q341,-14 263,-14 Q145,-14 86,52.5 Q27,119 27,221 Q27,267 38.5,312 Q50,357 75,399.5 Q100,442 135.5,474 Q171,506 223.5,525.5 Q276,545 339,545 M274,66 Q359,66 407.5,139.5 Q456,213 456,308 Q456,378 423.5,421.5 Q391,465 327,465 Q242,465 193.5,392 Q145,319 145,224 Q145,154 177.5,110 Q210,66 274,66"/> 
            <glyph glyph-name="ó" unicode="&#xF3;" horiz-adv-x="574" d=" M383,577 L317,577 L406,691 L506,691 M339,545 Q457,545 515.5,478.5 Q574,412 574,310 Q574,252 555,196 Q536,140 500,92 Q464,44 402.5,15 Q341,-14 263,-14 Q145,-14 86,52.5 Q27,119 27,221 Q27,267 38.5,312 Q50,357 75,399.5 Q100,442 135.5,474 Q171,506 223.5,525.5 Q276,545 339,545 M274,66 Q359,66 407.5,139.5 Q456,213 456,308 Q456,378 423.5,421.5 Q391,465 327,465 Q242,465 193.5,392 Q145,319 145,224 Q145,154 177.5,110 Q210,66 274,66"/> 
            <glyph glyph-name="ô" unicode="&#xF4;" horiz-adv-x="574" d=" M324,577 L251,577 L338,691 L419,691 L464,577 L390,577 L369,642 M339,545 Q457,545 515.5,478.5 Q574,412 574,310 Q574,252 555,196 Q536,140 500,92 Q464,44 402.5,15 Q341,-14 263,-14 Q145,-14 86,52.5 Q27,119 27,221 Q27,267 38.5,312 Q50,357 75,399.5 Q100,442 135.5,474 Q171,506 223.5,525.5 Q276,545 339,545 M274,66 Q359,66 407.5,139.5 Q456,213 456,308 Q456,378 423.5,421.5 Q391,465 327,465 Q242,465 193.5,392 Q145,319 145,224 Q145,154 177.5,110 Q210,66 274,66"/> 
            <glyph glyph-name="õ" unicode="&#xF5;" horiz-adv-x="574" d=" M311,616 Q295,616 291,593 L238,593 Q247,641 264.5,660.5 Q282,680 313,680 Q338,680 378,665 Q409,653 421,653 Q437,653 442,676 L494,676 Q485,628 467.5,608.5 Q450,589 419,589 Q395,589 354,604 Q325,616 311,616 M339,545 Q457,545 515.5,478.5 Q574,412 574,310 Q574,252 555,196 Q536,140 500,92 Q464,44 402.5,15 Q341,-14 263,-14 Q145,-14 86,52.5 Q27,119 27,221 Q27,267 38.5,312 Q50,357 75,399.5 Q100,442 135.5,474 Q171,506 223.5,525.5 Q276,545 339,545 M274,66 Q359,66 407.5,139.5 Q456,213 456,308 Q456,378 423.5,421.5 Q391,465 327,465 Q242,465 193.5,392 Q145,319 145,224 Q145,154 177.5,110 Q210,66 274,66"/> 
            <glyph glyph-name="ö" unicode="&#xF6;" horiz-adv-x="574" d=" M276,580 Q255,580 242.5,592 Q230,604 230,624 Q230,649 249.5,667 Q269,685 292,685 Q313,685 325.5,673 Q338,661 338,641 Q338,616 318.5,598 Q299,580 276,580 M436,580 Q415,580 402.5,592 Q390,604 390,624 Q390,649 409.5,667 Q429,685 452,685 Q472,685 485,672.5 Q498,660 498,641 Q498,616 478.5,598 Q459,580 436,580 M339,545 Q457,545 515.5,478.5 Q574,412 574,310 Q574,252 555,196 Q536,140 500,92 Q464,44 402.5,15 Q341,-14 263,-14 Q145,-14 86,52.5 Q27,119 27,221 Q27,267 38.5,312 Q50,357 75,399.5 Q100,442 135.5,474 Q171,506 223.5,525.5 Q276,545 339,545 M274,66 Q359,66 407.5,139.5 Q456,213 456,308 Q456,378 423.5,421.5 Q391,465 327,465 Q242,465 193.5,392 Q145,319 145,224 Q145,154 177.5,110 Q210,66 274,66"/> 
            <glyph glyph-name="÷" unicode="&#xF7;" horiz-adv-x="520" d=" M337,546 Q360,546 374.5,532 Q389,518 389,496 Q389,465 367,443.5 Q345,422 315,422 Q292,422 277.5,436 Q263,450 263,473 Q263,503 285.5,524.5 Q308,546 337,546 M509,286 L71,286 L83,352 L520,352 M279,212 Q303,212 317,198 Q331,184 331,161 Q331,131 309,109.5 Q287,88 257,88 Q234,88 219.5,102 Q205,116 205,138 Q205,169 227,190.5 Q249,212 279,212"/> 
            <glyph glyph-name="ø" unicode="&#xF8;" horiz-adv-x="643" d=" M643,504 L557,431 Q583,379 583,310 Q583,264 571.5,219 Q560,174 535,131.5 Q510,89 474.5,57 Q439,25 386.5,5.5 Q334,-14 271,-14 Q163,-14 102,44 L23,-23 L-17,26 L64,95 Q35,149 35,221 Q35,267 46.5,312 Q58,357 83,399.5 Q108,442 143.5,474 Q179,506 231.5,525.5 Q284,545 347,545 Q459,545 520,482 L603,553 M153,224 Q153,200 158,175 L438,413 Q404,465 336,465 Q251,465 202,392 Q153,319 153,224 M465,308 Q465,333 461,350 L183,113 Q217,66 283,66 Q368,66 416.5,139.5 Q465,213 465,308"/> 
            <glyph glyph-name="ù" unicode="&#xF9;" horiz-adv-x="580" d=" M335,577 L253,691 L353,691 L401,577 M580,531 L487,0 L377,0 L392,86 L345,27 Q284,-14 204,-14 Q125,-14 83.5,22.5 Q42,59 42,122 Q42,160 55,231 L109,531 L219,531 L167,245 Q156,187 156,155 Q156,114 179,90.5 Q202,67 251,68 Q314,69 360.5,122 Q407,175 428,291 L429,294 L471,531"/> 
            <glyph glyph-name="ú" unicode="&#xFA;" horiz-adv-x="580" d=" M387,577 L321,577 L410,691 L510,691 M580,531 L487,0 L377,0 L392,86 L345,27 Q284,-14 204,-14 Q125,-14 83.5,22.5 Q42,59 42,122 Q42,160 55,231 L109,531 L219,531 L167,245 Q156,187 156,155 Q156,114 179,90.5 Q202,67 251,68 Q314,69 360.5,122 Q407,175 428,291 L429,294 L471,531"/> 
            <glyph glyph-name="û" unicode="&#xFB;" horiz-adv-x="580" d=" M328,577 L255,577 L342,691 L423,691 L468,577 L394,577 L373,642 M580,531 L487,0 L377,0 L392,86 L345,27 Q284,-14 204,-14 Q125,-14 83.5,22.5 Q42,59 42,122 Q42,160 55,231 L109,531 L219,531 L167,245 Q156,187 156,155 Q156,114 179,90.5 Q202,67 251,68 Q314,69 360.5,122 Q407,175 428,291 L429,294 L471,531"/> 
            <glyph glyph-name="ü" unicode="&#xFC;" horiz-adv-x="580" d=" M280,580 Q259,580 246.5,592 Q234,604 234,624 Q234,649 253.5,667 Q273,685 296,685 Q317,685 329.5,673 Q342,661 342,641 Q342,616 322.5,598 Q303,580 280,580 M440,580 Q419,580 406.5,592 Q394,604 394,624 Q394,649 413.5,667 Q433,685 456,685 Q476,685 489,672.5 Q502,660 502,641 Q502,616 482.5,598 Q463,580 440,580 M580,531 L487,0 L377,0 L392,86 L345,27 Q284,-14 204,-14 Q125,-14 83.5,22.5 Q42,59 42,122 Q42,160 55,231 L109,531 L219,531 L167,245 Q156,187 156,155 Q156,114 179,90.5 Q202,67 251,68 Q314,69 360.5,122 Q407,175 428,291 L429,294 L471,531"/> 
            <glyph glyph-name="ý" unicode="&#xFD;" horiz-adv-x="572" d=" M336,577 L270,577 L359,691 L459,691 M572,531 L275,0 Q207,-122 154.5,-166 Q102,-210 24,-210 Q-6,-210 -26,-206 L-13,-125 Q6,-128 23,-128 Q61,-128 88.5,-109 Q116,-90 141,-43 L149,-28 L34,531 L158,531 L225,85 L449,531"/> 
            <glyph glyph-name="þ" unicode="&#xFE;" horiz-adv-x="606" d=" M405,545 Q502,545 554,485.5 Q606,426 606,328 Q606,240 573,164 Q540,88 467,37 Q394,-14 292,-14 Q258,-14 223.5,-3 Q189,8 172,26 L147,80 L98,-196 L-12,-196 L154,735 L264,735 L213,449 L262,505 Q316,545 405,545 M296,66 Q384,66 436.5,141.5 Q489,217 489,320 Q489,388 458.5,426.5 Q428,465 369,465 Q302,465 250.5,418.5 Q199,372 181,273 L181,271 L176,244 Q163,169 193,117.5 Q223,66 296,66"/> 
            <glyph glyph-name="ÿ" unicode="&#xFF;" horiz-adv-x="572" d=" M229,580 Q208,580 195.5,592 Q183,604 183,624 Q183,649 202.5,667 Q222,685 245,685 Q266,685 278.5,673 Q291,661 291,641 Q291,616 271.5,598 Q252,580 229,580 M389,580 Q368,580 355.5,592 Q343,604 343,624 Q343,649 362.5,667 Q382,685 405,685 Q425,685 438,672.5 Q451,660 451,641 Q451,616 431.5,598 Q412,580 389,580 M572,531 L275,0 Q207,-122 154.5,-166 Q102,-210 24,-210 Q-6,-210 -26,-206 L-13,-125 Q6,-128 23,-128 Q61,-128 88.5,-109 Q116,-90 141,-43 L149,-28 L34,531 L158,531 L225,85 L449,531"/> 
            <glyph glyph-name="Ā" unicode="&#x100;" horiz-adv-x="612" d=" M563,758 L308,758 L319,821 L574,821 M459,228 L214,228 L98,0 L-24,0 L345,690 L495,690 L612,0 L493,0 M446,315 L403,597 L259,315"/> 
            <glyph glyph-name="ā" unicode="&#x101;" horiz-adv-x="494" d=" M458,599 L203,599 L214,662 L469,662 M314,545 Q406,545 450,509 Q494,473 494,410 Q494,381 484,321 L451,135 Q441,78 437,0 L329,0 L332,76 L296,27 Q250,-14 158,-14 Q96,-14 54,22 Q12,58 12,125 Q12,231 111.5,282 Q211,333 375,321 L377,333 Q384,378 384,397 Q384,465 308,465 Q251,465 221,439.5 Q191,414 179,363 L69,363 Q86,449 152,497 Q218,545 314,545 M353,199 L362,249 Q262,260 195.5,231.5 Q129,203 129,138 Q129,103 151,84.5 Q173,66 211,66 Q257,66 299.5,104 Q342,142 353,199"/> 
            <glyph glyph-name="Ă" unicode="&#x102;" horiz-adv-x="612" d=" M430,724 Q374,724 353,757 Q332,790 340,838 L403,838 Q395,786 441,786 Q487,786 499,838 L561,838 Q540,724 430,724 M459,228 L214,228 L98,0 L-24,0 L345,690 L495,690 L612,0 L493,0 M446,315 L403,597 L259,315"/> 
            <glyph glyph-name="ă" unicode="&#x103;" horiz-adv-x="494" d=" M325,566 Q214,566 237,692 L299,692 Q295,662 302,645.5 Q309,629 336,629 Q383,629 395,692 L458,692 Q434,566 325,566 M314,545 Q406,545 450,509 Q494,473 494,410 Q494,381 484,321 L451,135 Q441,78 437,0 L329,0 L332,76 L296,27 Q250,-14 158,-14 Q96,-14 54,22 Q12,58 12,125 Q12,231 111.5,282 Q211,333 375,321 L377,333 Q384,378 384,397 Q384,465 308,465 Q251,465 221,439.5 Q191,414 179,363 L69,363 Q86,449 152,497 Q218,545 314,545 M353,199 L362,249 Q262,260 195.5,231.5 Q129,203 129,138 Q129,103 151,84.5 Q173,66 211,66 Q257,66 299.5,104 Q342,142 353,199"/> 
            <glyph glyph-name="Ą" unicode="&#x104;" horiz-adv-x="612" d=" M612,0 L571,0 Q529,-6 499,-43.5 Q469,-81 469,-116 Q469,-157 505,-157 Q535,-157 561,-138 L551,-190 Q508,-223 445,-223 Q407,-223 383.5,-205 Q360,-187 360,-149 Q360,-101 394.5,-59 Q429,-17 492,9 L459,228 L214,228 L98,0 L-24,0 L345,690 L495,690 M446,315 L403,597 L259,315"/> 
            <glyph glyph-name="ą" unicode="&#x105;" horiz-adv-x="494" d=" M314,545 Q406,545 450,509 Q494,473 494,410 Q494,381 484,321 L451,135 Q441,78 437,0 L407,0 Q365,-6 335,-43.5 Q305,-81 305,-116 Q305,-157 341,-157 Q371,-157 397,-138 L387,-190 Q344,-223 281,-223 Q243,-223 219.5,-205 Q196,-187 196,-149 Q196,-100 230.5,-58 Q265,-16 329,9 L332,76 L296,27 Q250,-14 158,-14 Q96,-14 54,22 Q12,58 12,125 Q12,231 111.5,282 Q211,333 375,321 L377,333 Q384,378 384,397 Q384,465 308,465 Q251,465 221,439.5 Q191,414 179,363 L69,363 Q86,449 152,497 Q218,545 314,545 M211,66 Q257,66 299.5,104 Q342,142 353,199 L362,249 Q262,260 195.5,231.5 Q129,203 129,138 Q129,103 151,84.5 Q173,66 211,66"/> 
            <glyph glyph-name="Ć" unicode="&#x106;" horiz-adv-x="715" d=" M450,704 Q581,704 648,639 Q715,574 707,468 L706,458 L596,458 L596,468 Q596,547 556,583.5 Q516,620 435,620 L431,620 L367,563 L301,563 L322,589 Q256,550 217.5,468 Q179,386 179,282 Q179,176 223.5,123 Q268,70 346,70 Q490,70 548,224 L552,234 L662,234 L659,224 Q628,114 544,50 Q460,-14 329,-14 Q201,-14 129.5,62 Q58,138 59,271 Q58,458 170,581 Q282,704 450,704"/> 
            <glyph glyph-name="ć" unicode="&#x107;" horiz-adv-x="535" d=" M363,577 L297,577 L386,691 L486,691 M334,544 Q434,544 484,491 Q534,438 535,346 L424,346 Q420,464 319,464 Q242,464 192,390 Q142,316 142,202 Q142,134 171,100 Q200,66 248,66 Q353,66 396,176 L508,176 Q432,-14 235,-14 Q140,-14 82,41 Q24,96 24,200 Q24,342 108,443 Q192,544 334,544"/> 
            <glyph glyph-name="Ċ" unicode="&#x10A;" horiz-adv-x="715" d=" M450,704 Q581,704 648,639 Q715,574 707,468 L706,458 L596,458 L596,468 Q596,547 556,583.5 Q516,620 435,620 Q426,620 408,618 Q405,595 385.5,577.5 Q366,560 340,560 Q316,560 302,576 Q244,533 211.5,456 Q179,379 179,282 Q179,176 223.5,123 Q268,70 346,70 Q490,70 548,224 L552,234 L662,234 L659,224 Q628,114 544,50 Q460,-14 329,-14 Q201,-14 129.5,62 Q58,138 59,271 Q58,458 170,581 Q282,704 450,704"/> 
            <glyph glyph-name="ċ" unicode="&#x10B;" horiz-adv-x="535" d=" M360,716 Q385,716 400.5,701 Q416,686 416,663 Q416,633 395,611 Q374,589 341,589 Q316,589 300.5,604 Q285,619 285,643 Q285,673 306.5,694.5 Q328,716 360,716 M334,544 Q434,544 484,491 Q534,438 535,346 L424,346 Q420,464 319,464 Q242,464 192,390 Q142,316 142,202 Q142,134 171,100 Q200,66 248,66 Q353,66 396,176 L508,176 Q432,-14 235,-14 Q140,-14 82,41 Q24,96 24,200 Q24,342 108,443 Q192,544 334,544"/> 
            <glyph glyph-name="Č" unicode="&#x10C;" horiz-adv-x="715" d=" M450,704 Q581,704 648,639 Q715,574 707,468 L706,458 L596,458 L596,468 Q596,547 556,583.5 Q516,620 435,620 L429,620 L383,563 L300,563 L296,571 Q241,527 210,451.5 Q179,376 179,282 Q179,176 223.5,123 Q268,70 346,70 Q490,70 548,224 L552,234 L662,234 L659,224 Q628,114 544,50 Q460,-14 329,-14 Q201,-14 129.5,62 Q58,138 59,271 Q58,397 111.5,497.5 Q165,598 258,653 L252,665 L281,665 Q361,704 450,704"/> 
            <glyph glyph-name="č" unicode="&#x10D;" horiz-adv-x="535" d=" M296,577 L250,691 L324,691 L346,626 L390,691 L463,691 L377,577 M248,66 Q353,66 396,176 L508,176 Q432,-14 235,-14 Q140,-14 82,41 Q24,96 24,200 Q24,342 108,443 Q192,544 334,544 Q434,544 484,491 Q534,438 535,346 L424,346 Q420,464 319,464 Q242,464 192,390 Q142,316 142,202 Q142,134 171,100 Q200,66 248,66"/> 
            <glyph glyph-name="Ď" unicode="&#x10E;" horiz-adv-x="699" d=" M365,736 L317,838 L393,838 L413,778 L454,838 L531,838 L448,736 M451,687 Q560,677 629.5,602 Q699,527 699,393 Q699,323 676.5,257.5 Q654,192 610.5,138 Q567,84 496.5,47.5 Q426,11 338,3 Q302,0 249,0 L44,0 L166,690 L362,690 Q417,690 451,687 M339,91 Q459,107 520,191 Q581,275 581,391 Q581,486 538,538 Q495,590 424,599 Q395,603 351,603 L261,603 L170,88 L264,88 Q316,88 339,91"/> 
            <glyph glyph-name="ď" unicode="&#x10F;" horiz-adv-x="798" d=" M798,736 L798,728 L707,583 L647,583 L716,736 M534,735 L643,735 L513,0 L404,0 L419,83 L368,26 Q313,-14 225,-14 Q129,-14 76.5,45 Q24,104 24,201 Q24,266 44,326 Q64,386 101.5,435.5 Q139,485 200.5,515 Q262,545 339,545 Q373,545 407.5,534 Q442,523 459,506 L484,452 M450,260 L455,288 Q467,362 437,413.5 Q407,465 334,465 Q247,465 194.5,389 Q142,313 142,211 Q142,144 173,105 Q204,66 262,66 Q329,66 380.5,113.5 Q432,161 450,260"/> 
            <glyph glyph-name="Đ" unicode="&#x110;" horiz-adv-x="699" d=" M451,687 Q560,677 629.5,602 Q699,527 699,393 Q699,323 676.5,257.5 Q654,192 610.5,138 Q567,84 496.5,47.5 Q426,11 338,3 Q302,0 249,0 L44,0 L97,302 L12,302 L23,368 L109,368 L166,690 L362,690 Q417,690 451,687 M339,91 Q459,107 520,191 Q581,275 581,391 Q581,486 538,538 Q495,590 424,599 Q395,603 351,603 L261,603 L220,368 L336,368 L325,302 L208,302 L170,88 L264,88 Q316,88 339,91"/> 
            <glyph glyph-name="đ" unicode="&#x111;" horiz-adv-x="671" d=" M659,590 L617,590 L513,0 L404,0 L419,83 L368,26 Q313,-14 225,-14 Q129,-14 76.5,45 Q24,104 24,201 Q24,266 44,326 Q64,386 101.5,435.5 Q139,485 200.5,515 Q262,545 339,545 Q373,545 407.5,534 Q442,523 459,506 L484,452 L508,590 L390,590 L401,656 L520,656 L534,735 L643,735 L629,656 L671,656 M450,260 L455,288 Q467,362 437,413.5 Q407,465 334,465 Q247,465 194.5,389 Q142,313 142,211 Q142,144 173,105 Q204,66 262,66 Q329,66 380.5,113.5 Q432,161 450,260"/> 
            <glyph glyph-name="Ē" unicode="&#x112;" horiz-adv-x="633" d=" M548,758 L293,758 L304,821 L559,821 M261,603 L223,389 L552,389 L537,302 L207,302 L170,88 L537,88 L521,0 L44,0 L166,690 L633,690 L617,603"/> 
            <glyph glyph-name="ē" unicode="&#x113;" horiz-adv-x="537" d=" M474,599 L219,599 L230,662 L485,662 M521,235 L141,235 Q140,223 140,200 Q140,132 169.5,99 Q199,66 250,66 Q299,66 338,94.5 Q377,123 393,172 L505,172 Q474,81 401.5,33.5 Q329,-14 236,-14 Q140,-14 82,40.5 Q24,95 24,198 Q24,262 43,323 Q62,384 98,434 Q134,484 193,514.5 Q252,545 326,545 Q426,545 481.5,489 Q537,433 537,342 Q537,286 521,235 M313,465 Q251,465 211.5,422.5 Q172,380 154,312 L425,312 Q426,323 426,342 Q426,400 396,432.5 Q366,465 313,465"/> 
            <glyph glyph-name="Ė" unicode="&#x116;" horiz-adv-x="633" d=" M417,733 Q395,733 381.5,746.5 Q368,760 368,781 Q368,807 387.5,826.5 Q407,846 435,846 Q458,846 471.5,833 Q485,820 485,798 Q485,773 465,753 Q445,733 417,733 M261,603 L223,389 L552,389 L537,302 L207,302 L170,88 L537,88 L521,0 L44,0 L166,690 L633,690 L617,603"/> 
            <glyph glyph-name="ė" unicode="&#x117;" horiz-adv-x="537" d=" M347,589 Q322,589 306.5,604 Q291,619 291,643 Q291,673 312.5,694.5 Q334,716 366,716 Q391,716 406.5,701 Q422,686 422,663 Q422,633 401,611 Q380,589 347,589 M521,235 L141,235 Q140,223 140,200 Q140,132 169.5,99 Q199,66 250,66 Q299,66 338,94.5 Q377,123 393,172 L505,172 Q474,81 401.5,33.5 Q329,-14 236,-14 Q140,-14 82,40.5 Q24,95 24,198 Q24,262 43,323 Q62,384 98,434 Q134,484 193,514.5 Q252,545 326,545 Q426,545 481.5,489 Q537,433 537,342 Q537,286 521,235 M313,465 Q251,465 211.5,422.5 Q172,380 154,312 L425,312 Q426,323 426,342 Q426,400 396,432.5 Q366,465 313,465"/> 
            <glyph glyph-name="Ę" unicode="&#x118;" horiz-adv-x="633" d=" M261,603 L223,389 L552,389 L537,302 L207,302 L170,88 L537,88 L521,0 L509,0 Q467,-6 437,-43.5 Q407,-81 407,-116 Q407,-157 443,-157 Q473,-157 499,-138 L489,-190 Q446,-223 383,-223 Q345,-223 321.5,-205 Q298,-187 298,-149 Q298,-105 327,-65.5 Q356,-26 410,0 L44,0 L166,690 L633,690 L617,603"/> 
            <glyph glyph-name="ę" unicode="&#x119;" horiz-adv-x="537" d=" M521,235 L141,235 Q140,223 140,200 Q140,132 169.5,99 Q199,66 250,66 Q299,66 338,94.5 Q377,123 393,172 L505,172 Q477,91 417,44.5 Q357,-2 278,-11 Q248,-28 229,-58.5 Q210,-89 210,-116 Q210,-157 246,-157 Q276,-157 302,-138 L292,-190 Q249,-223 186,-223 Q148,-223 124.5,-205 Q101,-187 101,-149 Q101,-65 193,-11 Q115,1 69.5,54.5 Q24,108 24,198 Q24,262 43,323 Q62,384 98,434 Q134,484 193,514.5 Q252,545 326,545 Q426,545 481.5,489 Q537,433 537,342 Q537,286 521,235 M313,465 Q251,465 211.5,422.5 Q172,380 154,312 L425,312 Q426,323 426,342 Q426,400 396,432.5 Q366,465 313,465"/> 
            <glyph glyph-name="Ě" unicode="&#x11A;" horiz-adv-x="633" d=" M377,736 L329,838 L405,838 L425,778 L466,838 L543,838 L460,736 M261,603 L223,389 L552,389 L537,302 L207,302 L170,88 L537,88 L521,0 L44,0 L166,690 L633,690 L617,603"/> 
            <glyph glyph-name="ě" unicode="&#x11B;" horiz-adv-x="537" d=" M302,577 L256,691 L330,691 L352,626 L396,691 L469,691 L383,577 M521,235 L141,235 Q140,223 140,200 Q140,132 169.5,99 Q199,66 250,66 Q299,66 338,94.5 Q377,123 393,172 L505,172 Q474,81 401.5,33.5 Q329,-14 236,-14 Q140,-14 82,40.5 Q24,95 24,198 Q24,262 43,323 Q62,384 98,434 Q134,484 193,514.5 Q252,545 326,545 Q426,545 481.5,489 Q537,433 537,342 Q537,286 521,235 M313,465 Q251,465 211.5,422.5 Q172,380 154,312 L425,312 Q426,323 426,342 Q426,400 396,432.5 Q366,465 313,465"/> 
            <glyph glyph-name="Ğ" unicode="&#x11E;" horiz-adv-x="718" d=" M528,724 Q472,724 451,757 Q430,790 438,838 L501,838 Q493,786 539,786 Q585,786 597,838 L659,838 Q638,724 528,724 M462,704 Q593,704 655.5,639.5 Q718,575 710,468 L709,458 L599,458 L599,468 Q599,549 562,584.5 Q525,620 445,620 Q331,620 255,524 Q179,428 179,283 Q179,184 222.5,127 Q266,70 343,70 Q420,70 479,120.5 Q538,171 557,254 L403,254 L419,342 L680,342 L620,0 L528,0 L544,116 L502,50 Q430,-14 316,-14 Q193,-14 125.5,63.5 Q58,141 58,269 Q58,457 175.5,580.5 Q293,704 462,704"/> 
            <glyph glyph-name="ğ" unicode="&#x11F;" horiz-adv-x="608" d=" M372,566 Q261,566 284,692 L346,692 Q342,662 349,645.5 Q356,629 383,629 Q430,629 442,692 L505,692 Q481,566 372,566 M608,531 L537,132 Q520,40 518,29 Q467,-213 209,-213 Q104,-213 46,-166 Q-12,-119 -5,-35 L-4,-25 L105,-25 L104,-34 Q102,-78 133.5,-104 Q165,-130 225,-130 Q297,-130 343.5,-92 Q390,-54 406,17 Q408,28 412,48 Q416,68 418,78 L419,85 L368,27 Q313,-13 225,-13 Q129,-13 76.5,46 Q24,105 24,201 Q24,266 44,326 Q64,386 101.5,435.5 Q139,485 200.5,515 Q262,545 339,545 Q373,545 407.5,534 Q442,523 459,506 L484,452 L498,531 M262,68 Q330,68 381,114.5 Q432,161 450,260 L450,258 L455,289 L455,288 Q467,362 437,413.5 Q407,465 334,465 Q247,465 194.5,389 Q142,313 142,211 Q142,144 173,106 Q204,68 262,68"/> 
            <glyph glyph-name="Ġ" unicode="&#x120;" horiz-adv-x="718" d=" M531,733 Q509,733 495.5,746.5 Q482,760 482,781 Q482,807 501.5,826.5 Q521,846 549,846 Q572,846 585.5,833 Q599,820 599,798 Q599,773 579,753 Q559,733 531,733 M462,704 Q593,704 655.5,639.5 Q718,575 710,468 L709,458 L599,458 L599,468 Q599,549 562,584.5 Q525,620 445,620 Q331,620 255,524 Q179,428 179,283 Q179,184 222.5,127 Q266,70 343,70 Q420,70 479,120.5 Q538,171 557,254 L403,254 L419,342 L680,342 L620,0 L528,0 L544,116 L502,50 Q430,-14 316,-14 Q193,-14 125.5,63.5 Q58,141 58,269 Q58,457 175.5,580.5 Q293,704 462,704"/> 
            <glyph glyph-name="ġ" unicode="&#x121;" horiz-adv-x="608" d=" M379,589 Q354,589 338.5,604 Q323,619 323,643 Q323,673 344.5,694.5 Q366,716 398,716 Q423,716 438.5,701 Q454,686 454,663 Q454,633 433,611 Q412,589 379,589 M608,531 L537,132 Q520,40 518,29 Q467,-213 209,-213 Q104,-213 46,-166 Q-12,-119 -5,-35 L-4,-25 L105,-25 L104,-34 Q102,-78 133.5,-104 Q165,-130 225,-130 Q297,-130 343.5,-92 Q390,-54 406,17 Q408,28 412,48 Q416,68 418,78 L419,85 L368,27 Q313,-13 225,-13 Q129,-13 76.5,46 Q24,105 24,201 Q24,266 44,326 Q64,386 101.5,435.5 Q139,485 200.5,515 Q262,545 339,545 Q373,545 407.5,534 Q442,523 459,506 L484,452 L498,531 M262,68 Q330,68 381,114.5 Q432,161 450,260 L450,258 L455,289 L455,288 Q467,362 437,413.5 Q407,465 334,465 Q247,465 194.5,389 Q142,313 142,211 Q142,144 173,106 Q204,68 262,68"/> 
            <glyph glyph-name="Ģ" unicode="&#x122;" horiz-adv-x="718" d=" M462,704 Q593,704 655.5,639.5 Q718,575 710,468 L709,458 L599,458 L599,468 Q599,549 562,584.5 Q525,620 445,620 Q331,620 255,524 Q179,428 179,283 Q179,184 222.5,127 Q266,70 343,70 Q420,70 479,120.5 Q538,171 557,254 L403,254 L419,342 L680,342 L620,0 L528,0 L544,116 L502,50 Q430,-14 316,-14 Q193,-14 125.5,63.5 Q58,141 58,269 Q58,457 175.5,580.5 Q293,704 462,704 M262,-48 L344,-48 L344,-55 L253,-200 L193,-200"/> 
            <glyph glyph-name="ģ" unicode="&#x123;" horiz-adv-x="608" d=" M406,578 L323,578 L323,585 L415,730 L475,730 M608,531 L537,132 Q520,40 518,29 Q467,-213 209,-213 Q104,-213 46,-166 Q-12,-119 -5,-35 L-4,-25 L105,-25 L104,-34 Q102,-78 133.5,-104 Q165,-130 225,-130 Q297,-130 343.5,-92 Q390,-54 406,17 Q408,28 412,48 Q416,68 418,78 L419,85 L368,27 Q313,-13 225,-13 Q129,-13 76.5,46 Q24,105 24,201 Q24,266 44,326 Q64,386 101.5,435.5 Q139,485 200.5,515 Q262,545 339,545 Q373,545 407.5,534 Q442,523 459,506 L484,452 L498,531 M262,68 Q330,68 381,114.5 Q432,161 450,260 L450,258 L455,289 L455,288 Q467,362 437,413.5 Q407,465 334,465 Q247,465 194.5,389 Q142,313 142,211 Q142,144 173,106 Q204,68 262,68"/> 
            <glyph glyph-name="Ħ" unicode="&#x126;" horiz-adv-x="757" d=" M745,497 L705,497 L617,0 L508,0 L560,294 L206,294 L154,0 L44,0 L132,497 L92,497 L104,563 L144,563 L166,690 L276,690 L254,563 L608,563 L630,690 L739,690 L717,563 L757,563 M596,497 L242,497 L222,383 L576,383"/> 
            <glyph glyph-name="ħ" unicode="&#x127;" horiz-adv-x="578" d=" M416,545 Q495,545 536.5,508.5 Q578,472 578,409 Q578,371 565,301 L511,0 L401,0 L453,286 Q464,345 464,376 Q464,465 369,464 Q306,462 258.5,408 Q211,354 191,237 L149,0 L40,0 L144,590 L86,590 L98,656 L155,656 L170,740 L279,740 L264,656 L367,656 L355,590 L253,590 L227,445 L275,504 Q336,545 416,545"/> 
            <glyph glyph-name="Ī" unicode="&#x12A;" horiz-adv-x="371" d=" M360,758 L105,758 L116,821 L371,821 M154,0 L44,0 L166,690 L276,690"/> 
            <glyph glyph-name="ī" unicode="&#x12B;" horiz-adv-x="323" d=" M312,599 L57,599 L68,662 L323,662 M133,0 L23,0 L117,531 L227,531"/> 
            <glyph glyph-name="Į" unicode="&#x12E;" horiz-adv-x="276" d=" M276,690 L154,0 L121,0 Q79,-6 49,-43.5 Q19,-81 19,-116 Q19,-157 55,-157 Q85,-157 111,-138 L101,-190 Q58,-223 -5,-223 Q-43,-223 -66.5,-205 Q-90,-187 -90,-149 Q-90,-100 -55,-57.5 Q-20,-15 46,10 L166,690"/> 
            <glyph glyph-name="į" unicode="&#x12F;" horiz-adv-x="261" d=" M205,716 Q230,716 245.5,701 Q261,686 261,663 Q261,633 240,611 Q219,589 186,589 Q161,589 145.5,604 Q130,619 130,643 Q130,673 151.5,694.5 Q173,716 205,716 M117,531 L227,531 L133,0 L101,0 Q59,-6 29,-43.5 Q-1,-81 -1,-116 Q-1,-157 35,-157 Q65,-157 91,-138 L81,-190 Q38,-223 -25,-223 Q-63,-223 -86.5,-205 Q-110,-187 -110,-149 Q-110,-100 -75,-57.5 Q-40,-15 25,10"/> 
            <glyph glyph-name="İ" unicode="&#x130;" horiz-adv-x="298" d=" M248,846 Q271,846 284.5,833 Q298,820 298,798 Q298,773 278,753 Q258,733 230,733 Q208,733 194.5,746.5 Q181,760 181,781 Q181,807 200.5,826.5 Q220,846 248,846 M154,0 L44,0 L166,690 L276,690"/> 
            <glyph glyph-name="ı" unicode="&#x131;" horiz-adv-x="227" d=" M133,0 L23,0 L117,531 L227,531"/> 
            <glyph glyph-name="Ĳ" unicode="&#x132;" horiz-adv-x="839" d=" M154,0 L44,0 L166,690 L276,690 M839,690 L765,273 Q756,224 747,184 Q701,-14 487,-14 Q383,-14 331.5,45 Q280,104 295,204 L301,242 L410,242 L406,204 Q389,70 504,70 Q610,70 640,191 Q643,202 648,227.5 Q653,253 656,268 L729,690"/> 
            <glyph glyph-name="ĳ" unicode="&#x133;" horiz-adv-x="490" d=" M205,716 Q230,716 245.5,701 Q261,686 261,663 Q261,633 240,611 Q219,589 186,589 Q161,589 145.5,604 Q130,619 130,643 Q130,673 151.5,694.5 Q173,716 205,716 M433,716 Q459,716 474.5,701.5 Q490,687 490,663 Q490,630 469.5,609.5 Q449,589 416,589 Q390,589 374.5,603.5 Q359,618 359,642 Q359,675 379.5,695.5 Q400,716 433,716 M133,0 L23,0 L117,531 L227,531 M459,531 L361,-31 Q351,-80 347,-95 Q331,-152 291,-181 Q251,-210 178,-210 Q147,-210 133,-208 L148,-125 Q222,-134 240,-80 Q247,-55 252,-26 L350,531"/> 
            <glyph glyph-name="Ķ" unicode="&#x136;" horiz-adv-x="727" d=" M332,348 L592,0 L458,0 L251,291 L197,243 L154,0 L44,0 L166,690 L276,690 L218,360 L594,690 L727,690 M252,-48 L334,-48 L334,-55 L243,-200 L183,-200"/> 
            <glyph glyph-name="ķ" unicode="&#x137;" horiz-adv-x="594" d=" M309,281 L508,0 L376,0 L226,224 L163,169 L133,0 L23,0 L153,735 L263,735 L183,280 L459,531 L594,531 M200,-48 L282,-48 L282,-55 L191,-200 L131,-200"/> 
            <glyph glyph-name="Ĺ" unicode="&#x139;" horiz-adv-x="537" d=" M257,736 L191,736 L272,838 L372,838 M537,91 L521,0 L44,0 L166,690 L276,690 L170,91"/> 
            <glyph glyph-name="ĺ" unicode="&#x13A;" horiz-adv-x="360" d=" M237,783 L171,783 L260,897 L360,897 M258,735 L157,162 Q150,126 150,110 Q150,86 162.5,79 Q175,72 206,74 L193,-1 Q156,-6 123,-6 Q78,-6 56,9.5 Q34,25 34,64 Q34,90 47,159 L149,735"/> 
            <glyph glyph-name="Ļ" unicode="&#x13B;" horiz-adv-x="537" d=" M537,91 L521,0 L44,0 L166,690 L276,690 L170,91 M243,-48 L325,-48 L325,-55 L234,-200 L174,-200"/> 
            <glyph glyph-name="ļ" unicode="&#x13C;" horiz-adv-x="258" d=" M258,735 L157,162 Q150,126 150,110 Q150,86 162.5,79 Q175,72 206,74 L193,-1 Q156,-6 123,-6 Q78,-6 56,9.5 Q34,25 34,64 Q34,90 47,159 L149,735 M130,-55 L39,-200 L-22,-200 L48,-48 L130,-48"/> 
            <glyph glyph-name="Ľ" unicode="&#x13D;" horiz-adv-x="537" d=" M537,91 L521,0 L44,0 L166,690 L276,690 L170,91"/> 
            <glyph glyph-name="ľ" unicode="&#x13E;" horiz-adv-x="258" d=" M258,735 L157,162 Q150,126 150,110 Q150,86 162.5,79 Q175,72 206,74 L193,-1 Q156,-6 123,-6 Q78,-6 56,9.5 Q34,25 34,64 Q34,90 47,159 L149,735"/> 
            <glyph glyph-name="Ŀ" unicode="&#x13F;" horiz-adv-x="537" d=" M537,91 L521,0 L44,0 L166,690 L276,690 L170,91 M398,337 Q373,337 358,352 Q343,367 343,390 Q343,421 365,442 Q387,463 419,463 Q444,463 459,448 Q474,433 474,410 Q474,379 452,358 Q430,337 398,337"/> 
            <glyph glyph-name="ŀ" unicode="&#x140;" horiz-adv-x="387" d=" M258,735 L157,162 Q150,126 150,110 Q150,86 162.5,79 Q175,72 206,74 L193,-1 Q156,-6 123,-6 Q78,-6 56,9.5 Q34,25 34,64 Q34,90 47,159 L149,735 M331,467 Q356,467 371.5,452 Q387,437 387,413 Q387,379 364.5,356.5 Q342,334 309,334 Q284,334 268,349 Q252,364 252,388 Q252,422 274.5,444.5 Q297,467 331,467"/> 
            <glyph glyph-name="Ł" unicode="&#x141;" horiz-adv-x="576" d=" M576,91 L559,0 L83,0 L135,292 L11,227 L25,305 L148,370 L205,690 L314,690 L268,432 L388,495 L374,417 L255,355 L208,91"/> 
            <glyph glyph-name="ł" unicode="&#x142;" horiz-adv-x="294" d=" M209,315 L182,162 Q175,126 175,110 Q175,86 187.5,79 Q200,72 232,74 L218,-1 Q181,-6 148,-6 Q104,-6 81.5,9.5 Q59,25 59,64 Q59,90 72,159 L88,249 L18,211 L32,291 L102,329 L174,735 L283,735 L223,395 L294,434 L280,354"/> 
            <glyph glyph-name="Ń" unicode="&#x143;" horiz-adv-x="736" d=" M488,736 L422,736 L503,838 L603,838 M736,690 L614,0 L457,0 L253,571 L154,0 L44,0 L166,690 L321,690 L526,114 L627,690"/> 
            <glyph glyph-name="ń" unicode="&#x144;" horiz-adv-x="561" d=" M392,577 L326,577 L415,691 L515,691 M399,545 Q479,545 520,508.5 Q561,472 561,409 Q561,371 548,301 L494,0 L385,0 L436,286 Q447,345 447,376 Q447,465 352,464 Q214,460 174,237 L133,0 L23,0 L116,531 L226,531 L211,445 L258,504 Q320,545 399,545"/> 
            <glyph glyph-name="Ņ" unicode="&#x145;" horiz-adv-x="736" d=" M736,690 L614,0 L457,0 L253,571 L154,0 L44,0 L166,690 L321,690 L526,114 L627,690 M292,-48 L374,-48 L374,-55 L283,-200 L223,-200"/> 
            <glyph glyph-name="ņ" unicode="&#x146;" horiz-adv-x="561" d=" M399,545 Q479,545 520,508.5 Q561,472 561,409 Q561,371 548,301 L494,0 L385,0 L436,286 Q447,345 447,376 Q447,465 352,464 Q214,460 174,237 L133,0 L23,0 L116,531 L226,531 L211,445 L258,504 Q320,545 399,545 M217,-48 L299,-48 L299,-55 L208,-200 L148,-200"/> 
            <glyph glyph-name="Ň" unicode="&#x147;" horiz-adv-x="736" d=" M421,736 L373,838 L449,838 L469,778 L510,838 L587,838 L504,736 M736,690 L614,0 L457,0 L253,571 L154,0 L44,0 L166,690 L321,690 L526,114 L627,690"/> 
            <glyph glyph-name="ň" unicode="&#x148;" horiz-adv-x="561" d=" M325,577 L279,691 L353,691 L375,626 L419,691 L492,691 L406,577 M399,545 Q479,545 520,508.5 Q561,472 561,409 Q561,371 548,301 L494,0 L385,0 L436,286 Q447,345 447,376 Q447,465 352,464 Q214,460 174,237 L133,0 L23,0 L116,531 L226,531 L211,445 L258,504 Q320,545 399,545"/> 
            <glyph glyph-name="Ŋ" unicode="&#x14A;" horiz-adv-x="736" d=" M736,690 L604,-65 Q587,-162 547,-192.5 Q507,-223 394,-223 L409,-138 Q449,-137 467.5,-120.5 Q486,-104 492,-71 L500,-28 L252,563 L155,0 L45,0 L166,690 L321,690 L535,157 L627,690"/> 
            <glyph glyph-name="ŋ" unicode="&#x14B;" horiz-adv-x="561" d=" M399,545 Q479,545 520,508.5 Q561,472 561,409 Q561,371 548,301 L491,-18 Q485,-49 478,-68 Q455,-134 413,-154 Q371,-174 283,-174 L297,-89 Q338,-89 356,-74.5 Q374,-60 380,-26 L436,286 Q447,345 447,376 Q447,465 352,464 Q214,460 174,237 L133,0 L23,0 L116,531 L226,531 L211,445 L258,504 Q320,545 399,545"/> 
            <glyph glyph-name="Ō" unicode="&#x14C;" horiz-adv-x="743" d=" M599,758 L344,758 L355,821 L610,821 M452,704 Q589,704 666,619 Q743,534 743,405 Q743,322 717.5,247 Q692,172 644.5,113.5 Q597,55 521.5,20.5 Q446,-14 352,-14 Q215,-14 138,71 Q61,156 61,285 Q61,398 104,491.5 Q147,585 237.5,644.5 Q328,704 452,704 M367,70 Q451,70 511.5,123.5 Q572,177 598.5,250.5 Q625,324 625,404 Q625,502 575,561 Q525,620 437,620 Q353,620 292.5,566.5 Q232,513 205.5,439.5 Q179,366 179,286 Q179,188 229,129 Q279,70 367,70"/> 
            <glyph glyph-name="ō" unicode="&#x14D;" horiz-adv-x="574" d=" M487,599 L232,599 L243,662 L498,662 M339,545 Q457,545 515.5,478.5 Q574,412 574,310 Q574,252 555,196 Q536,140 500,92 Q464,44 402.5,15 Q341,-14 263,-14 Q145,-14 86,52.5 Q27,119 27,221 Q27,267 38.5,312 Q50,357 75,399.5 Q100,442 135.5,474 Q171,506 223.5,525.5 Q276,545 339,545 M274,66 Q359,66 407.5,139.5 Q456,213 456,308 Q456,378 423.5,421.5 Q391,465 327,465 Q242,465 193.5,392 Q145,319 145,224 Q145,154 177.5,110 Q210,66 274,66"/> 
            <glyph glyph-name="Ő" unicode="&#x150;" horiz-adv-x="743" d=" M410,736 L344,736 L425,838 L525,838 M478,736 L559,838 L659,838 L544,736 M452,704 Q589,704 666,619 Q743,534 743,405 Q743,322 717.5,247 Q692,172 644.5,113.5 Q597,55 521.5,20.5 Q446,-14 352,-14 Q215,-14 138,71 Q61,156 61,285 Q61,398 104,491.5 Q147,585 237.5,644.5 Q328,704 452,704 M367,70 Q451,70 511.5,123.5 Q572,177 598.5,250.5 Q625,324 625,404 Q625,502 575,561 Q525,620 437,620 Q353,620 292.5,566.5 Q232,513 205.5,439.5 Q179,366 179,286 Q179,188 229,129 Q279,70 367,70"/> 
            <glyph glyph-name="ő" unicode="&#x151;" horiz-adv-x="576" d=" M309,577 L243,577 L332,691 L432,691 M387,577 L476,691 L576,691 L453,577 M339,545 Q457,545 515.5,478.5 Q574,412 574,310 Q574,252 555,196 Q536,140 500,92 Q464,44 402.5,15 Q341,-14 263,-14 Q145,-14 86,52.5 Q27,119 27,221 Q27,267 38.5,312 Q50,357 75,399.5 Q100,442 135.5,474 Q171,506 223.5,525.5 Q276,545 339,545 M274,66 Q359,66 407.5,139.5 Q456,213 456,308 Q456,378 423.5,421.5 Q391,465 327,465 Q242,465 193.5,392 Q145,319 145,224 Q145,154 177.5,110 Q210,66 274,66"/> 
            <glyph glyph-name="Œ" unicode="&#x152;" horiz-adv-x="1144" d=" M772,603 L734,389 L1063,389 L1048,302 L718,302 L681,88 L1048,88 L1032,0 L555,0 L578,129 L538,60 Q453,-14 321,-14 Q196,-14 127,60.5 Q58,135 58,275 Q58,333 72.5,392 Q87,451 118,507.5 Q149,564 193.5,607.5 Q238,651 303.5,677.5 Q369,704 447,704 Q520,704 563,687 Q606,670 638,628 L654,559 L677,690 L1144,690 L1128,603 M353,70 Q453,70 523,145 Q593,220 616,345 Q627,393 622,442 Q617,491 601.5,530.5 Q586,570 547,595 Q508,620 450,620 Q381,620 326.5,587.5 Q272,555 240.5,503.5 Q209,452 192.5,394 Q176,336 176,278 Q176,178 222,124 Q268,70 353,70"/> 
            <glyph glyph-name="œ" unicode="&#x153;" horiz-adv-x="957" d=" M941,235 L561,235 Q560,222 560,200 Q560,66 669,66 Q718,66 757,94 Q796,122 813,172 L924,172 Q891,81 818,33.5 Q745,-14 653,-14 Q519,-14 478,102 Q396,-14 250,-14 Q139,-14 81,45.5 Q23,105 23,204 Q23,246 33.5,291 Q44,336 69,381.5 Q94,427 130,463 Q166,499 222,521.5 Q278,544 345,544 Q495,544 539,426 Q623,544 763,544 Q858,544 907.5,489 Q957,434 957,342 Q957,285 941,235 M263,66 Q313,66 352,92 Q391,118 413,158 Q435,198 446,240.5 Q457,283 457,323 Q457,388 425.5,426 Q394,464 334,464 Q269,464 223,420 Q177,376 159,320.5 Q141,265 141,210 Q141,143 172.5,104.5 Q204,66 263,66 M743,464 Q686,464 642.5,425 Q599,386 578,312 L845,312 Q847,324 847,344 Q847,464 743,464"/> 
            <glyph glyph-name="Ŕ" unicode="&#x154;" horiz-adv-x="646" d=" M428,736 L362,736 L443,838 L543,838 M646,536 Q646,453 596.5,401.5 Q547,350 470,333 Q515,322 531.5,277 Q548,232 548,117 Q548,35 567,0 L448,0 Q440,38 438,180 Q436,283 364,287 Q347,288 313,288 L205,288 L154,0 L44,0 L166,690 L404,690 Q466,690 499,686 Q567,677 606.5,640 Q646,603 646,536 M398,375 Q454,380 490,415 Q526,450 526,513 Q526,589 446,599 Q423,603 383,603 L261,603 L220,373 L335,373 Q380,373 398,375"/> 
            <glyph glyph-name="ŕ" unicode="&#x155;" horiz-adv-x="392" d=" M263,577 L197,577 L286,691 L386,691 M356,544 Q377,544 392,538 L377,452 Q215,464 181,276 L133,0 L23,0 L117,530 L226,530 L210,440 L269,514 Q312,544 356,544"/> 
            <glyph glyph-name="Ŗ" unicode="&#x156;" horiz-adv-x="646" d=" M646,536 Q646,453 596.5,401.5 Q547,350 470,333 Q515,322 531.5,277 Q548,232 548,117 Q548,35 567,0 L448,0 Q440,38 438,180 Q436,283 364,287 Q347,288 313,288 L205,288 L154,0 L44,0 L166,690 L404,690 Q466,690 499,686 Q567,677 606.5,640 Q646,603 646,536 M398,375 Q454,380 490,415 Q526,450 526,513 Q526,589 446,599 Q423,603 383,603 L261,603 L220,373 L335,373 Q380,373 398,375 M225,-48 L307,-48 L307,-55 L216,-200 L156,-200"/> 
            <glyph glyph-name="ŗ" unicode="&#x157;" horiz-adv-x="392" d=" M356,544 Q377,544 392,538 L377,452 Q215,464 181,276 L133,0 L23,0 L117,530 L226,530 L210,440 L269,514 Q312,544 356,544 M39,-48 L121,-48 L121,-55 L30,-200 L-31,-200"/> 
            <glyph glyph-name="Ř" unicode="&#x158;" horiz-adv-x="646" d=" M361,736 L313,838 L389,838 L409,778 L450,838 L527,838 L444,736 M646,536 Q646,453 596.5,401.5 Q547,350 470,333 Q515,322 531.5,277 Q548,232 548,117 Q548,35 567,0 L448,0 Q440,38 438,180 Q436,283 364,287 Q347,288 313,288 L205,288 L154,0 L44,0 L166,690 L404,690 Q466,690 499,686 Q567,677 606.5,640 Q646,603 646,536 M398,375 Q454,380 490,415 Q526,450 526,513 Q526,589 446,599 Q423,603 383,603 L261,603 L220,373 L335,373 Q380,373 398,375"/> 
            <glyph glyph-name="ř" unicode="&#x159;" horiz-adv-x="392" d=" M196,577 L150,691 L224,691 L246,626 L290,691 L363,691 L277,577 M356,544 Q377,544 392,538 L377,452 Q215,464 181,276 L133,0 L23,0 L117,530 L226,530 L210,440 L269,514 Q312,544 356,544"/> 
            <glyph glyph-name="Ś" unicode="&#x15A;" horiz-adv-x="584" d=" M396,736 L330,736 L411,838 L511,838 M365,704 Q476,704 530,646 Q584,588 579,494 L465,494 Q470,553 438.5,586.5 Q407,620 347,620 Q290,620 254,589.5 Q218,559 218,506 Q218,466 248,442.5 Q278,419 347,402 Q444,378 490.5,333 Q537,288 537,214 Q537,110 456,48 Q375,-14 252,-14 Q138,-14 74,42 Q10,98 17,200 L131,200 Q133,137 169,103.5 Q205,70 267,70 Q332,70 374.5,103 Q417,136 417,194 Q417,237 385.5,263.5 Q354,290 283,308 Q193,331 145.5,370 Q98,409 98,477 Q98,581 175.5,642.5 Q253,704 365,704"/> 
            <glyph glyph-name="ś" unicode="&#x15B;" horiz-adv-x="449" d=" M310,577 L244,577 L333,691 L433,691 M260,544 Q354,544 400.5,499.5 Q447,455 449,378 L338,378 Q332,467 256,467 Q212,467 189.5,446 Q167,425 167,394 Q167,361 190.5,342 Q214,323 266,307 Q346,282 383.5,245 Q421,208 421,146 Q421,72 362,26 Q303,-20 203,-20 Q98,-20 45.5,29 Q-7,78 -11,153 L101,153 Q110,58 209,58 Q251,58 277.5,79 Q304,100 304,136 Q304,168 279.5,189 Q255,210 195,230 Q124,252 87,285 Q50,318 50,381 Q50,451 105,497.5 Q160,544 260,544"/> 
            <glyph glyph-name="Ş" unicode="&#x15E;" horiz-adv-x="584" d=" M579,494 L465,494 Q470,553 438.5,586.5 Q407,620 347,620 Q290,620 254,589.5 Q218,559 218,506 Q218,466 248,442.5 Q278,419 347,402 Q444,378 490.5,333 Q537,288 537,214 Q537,117 465,56 Q393,-5 282,-13 L262,-41 Q297,-47 315,-66.5 Q333,-86 333,-114 Q333,-162 294,-186 Q255,-210 193,-210 Q155,-210 131,-202 L141,-154 Q158,-161 193,-161 Q262,-161 262,-118 Q262,-97 238,-86.5 Q214,-76 173,-81 L220,-13 Q120,-5 65,50 Q10,105 17,200 L131,200 Q133,137 169,103.5 Q205,70 267,70 Q332,70 374.5,103 Q417,136 417,194 Q417,237 385.5,263.5 Q354,290 283,308 Q193,331 145.5,370 Q98,409 98,477 Q98,581 175.5,642.5 Q253,704 365,704 Q476,704 530,646 Q584,588 579,494"/> 
            <glyph glyph-name="ş" unicode="&#x15F;" horiz-adv-x="449" d=" M266,307 Q346,282 383.5,245 Q421,208 421,146 Q421,72 362,26 Q303,-20 202,-20 L187,-41 Q259,-53 259,-114 Q259,-162 220,-186 Q181,-210 119,-210 Q81,-210 57,-202 L67,-154 Q84,-161 119,-161 Q188,-161 188,-118 Q188,-97 164,-86.5 Q140,-76 99,-81 L144,-15 Q69,-2 30.5,44 Q-8,90 -11,153 L101,153 Q110,58 209,58 Q251,58 277.5,79 Q304,100 304,136 Q304,168 279.5,189 Q255,210 195,230 Q124,252 87,285 Q50,318 50,381 Q50,451 105,497.5 Q160,544 260,544 Q354,544 400.5,499.5 Q447,455 449,378 L338,378 Q332,467 256,467 Q212,467 189.5,446 Q167,425 167,394 Q167,361 190.5,342 Q214,323 266,307"/> 
            <glyph glyph-name="Š" unicode="&#x160;" horiz-adv-x="584" d=" M328,736 L280,838 L356,838 L376,778 L417,838 L494,838 L411,736 M579,494 L465,494 Q470,553 438.5,586.5 Q407,620 347,620 Q290,620 254,589.5 Q218,559 218,506 Q218,466 248,442.5 Q278,419 347,402 Q444,378 490.5,333 Q537,288 537,214 Q537,110 456,48 Q375,-14 252,-14 Q138,-14 74,42 Q10,98 17,200 L131,200 Q133,137 169,103.5 Q205,70 267,70 Q332,70 374.5,103 Q417,136 417,194 Q417,237 385.5,263.5 Q354,290 283,308 Q193,331 145.5,370 Q98,409 98,477 Q98,581 175.5,642.5 Q253,704 365,704 Q476,704 530,646 Q584,588 579,494"/> 
            <glyph glyph-name="š" unicode="&#x161;" horiz-adv-x="449" d=" M243,577 L197,691 L271,691 L293,626 L337,691 L410,691 L324,577 M266,307 Q346,282 383.5,245 Q421,208 421,146 Q421,72 362,26 Q303,-20 203,-20 Q98,-20 45.5,29 Q-7,78 -11,153 L101,153 Q110,58 209,58 Q251,58 277.5,79 Q304,100 304,136 Q304,168 279.5,189 Q255,210 195,230 Q124,252 87,285 Q50,318 50,381 Q50,451 105,497.5 Q160,544 260,544 Q354,544 400.5,499.5 Q447,455 449,378 L338,378 Q332,467 256,467 Q212,467 189.5,446 Q167,425 167,394 Q167,361 190.5,342 Q214,323 266,307"/> 
            <glyph glyph-name="Ţ" unicode="&#x162;" horiz-adv-x="695" d=" M309,0 L279,-41 Q351,-53 351,-114 Q351,-162 312,-186 Q273,-210 211,-210 Q173,-210 149,-202 L159,-154 Q176,-161 211,-161 Q280,-161 280,-118 Q280,-97 256,-86.5 Q232,-76 191,-81 L247,0 L223,0 L330,603 L89,603 L105,690 L695,690 L679,603 L440,603 L333,0"/> 
            <glyph glyph-name="ţ" unicode="&#x163;" horiz-adv-x="336" d=" M225,450 L176,172 Q169,134 169,115 Q169,86 190,77 Q211,68 258,75 L244,0 Q204,-10 165,-10 L159,-10 L137,-41 Q209,-53 209,-114 Q209,-162 170,-186 Q131,-210 69,-210 Q31,-210 7,-202 L17,-154 Q35,-161 69,-161 Q138,-161 138,-118 Q138,-97 114,-86.5 Q90,-76 49,-81 L104,-1 Q54,15 54,74 Q54,100 65,162 L116,450 L43,450 L57,527 L130,527 L152,654 L261,654 L239,527 L336,527 L322,450"/> 
            <glyph glyph-name="Ť" unicode="&#x164;" horiz-adv-x="695" d=" M368,736 L320,838 L396,838 L416,778 L457,838 L534,838 L451,736 M679,603 L440,603 L333,0 L223,0 L330,603 L89,603 L105,690 L695,690"/> 
            <glyph glyph-name="ť" unicode="&#x165;" horiz-adv-x="436" d=" M436,739 L436,731 L344,586 L284,586 L353,739 M239,527 L336,527 L322,450 L225,450 L176,172 Q169,134 169,115 Q169,86 190,77 Q211,68 258,75 L244,0 Q204,-10 165,-10 Q54,-10 54,74 Q54,100 65,162 L116,450 L43,450 L57,527 L130,527 L152,654 L261,654"/> 
            <glyph glyph-name="Ŧ" unicode="&#x166;" horiz-adv-x="695" d=" M440,603 L398,368 L508,368 L496,302 L386,302 L333,0 L223,0 L276,302 L174,302 L186,368 L288,368 L330,603 L89,603 L105,690 L695,690 L679,603"/> 
            <glyph glyph-name="ŧ" unicode="&#x167;" horiz-adv-x="336" d=" M225,450 L207,346 L286,346 L275,283 L196,283 L176,172 Q169,134 169,115 Q169,86 190,77 Q211,68 258,75 L244,0 Q204,-10 165,-10 Q54,-10 54,74 Q54,100 65,162 L86,283 L20,283 L31,346 L98,346 L116,450 L43,450 L57,527 L130,527 L152,654 L261,654 L239,527 L336,527 L322,450"/> 
            <glyph glyph-name="Ū" unicode="&#x16A;" horiz-adv-x="705" d=" M573,758 L318,758 L329,821 L584,821 M705,690 L631,272 Q624,231 616,199 Q565,-14 315,-14 Q199,-14 139.5,37 Q80,88 80,181 Q80,219 91,280 L163,690 L273,690 L199,270 Q190,219 190,190 Q190,134 225,102 Q260,70 327,70 Q401,70 445,102.5 Q489,135 509,209 Q515,231 521,265 L595,690"/> 
            <glyph glyph-name="ū" unicode="&#x16B;" horiz-adv-x="580" d=" M491,599 L236,599 L247,662 L502,662 M580,531 L487,0 L377,0 L392,86 L345,27 Q284,-14 204,-14 Q125,-14 83.5,22.5 Q42,59 42,122 Q42,160 55,231 L109,531 L219,531 L167,245 Q156,187 156,155 Q156,114 179,90.5 Q202,67 251,68 Q314,69 360.5,122 Q407,175 428,291 L429,294 L471,531"/> 
            <glyph glyph-name="Ů" unicode="&#x16E;" horiz-adv-x="705" d=" M466,889 Q506,889 529.5,868 Q553,847 553,815 Q553,771 521,744.5 Q489,718 442,718 Q402,718 378.5,738.5 Q355,759 355,791 Q355,836 387,862.5 Q419,889 466,889 M462,845 Q442,845 427.5,831.5 Q413,818 413,795 Q413,780 422,770.5 Q431,761 446,761 Q466,761 480.5,775 Q495,789 495,811 Q495,826 486,835.5 Q477,845 462,845 M705,690 L631,272 Q624,231 616,199 Q565,-14 315,-14 Q199,-14 139.5,37 Q80,88 80,181 Q80,219 91,280 L163,690 L273,690 L199,270 Q190,219 190,190 Q190,134 225,102 Q260,70 327,70 Q401,70 445,102.5 Q489,135 509,209 Q515,231 521,265 L595,690"/> 
            </font>
</defs>
</svg>
