<svg xmlns="http://www.w3.org/2000/svg" width="50" height="50" viewBox="0 0 50 50">
  <g fill="none" fill-rule="evenodd">
    <path fill="#FF8C71" d="M26,36.4117647 L34.9606987,45.2895928 C37.2838428,47.5701357 40.9344978,47.5701357 43.2576419,45.2895928 L43.2576419,45.2895928 C45.580786,43.0090498 45.580786,39.4253394 43.2576419,37.1447964 L34.9606987,29"/>
    <path fill="#FFDF7B" d="M44.5244439,17.3873695 L39.7149673,22.3294143 L33.927292,16.3822079 L38.7367686,11.4401631 C37.6770534,11.1051093 36.4543051,10.9375823 35.2315568,11.0213458 C30.6666298,11.4401631 26.9983849,15.6283367 27.0799015,20.319091 C27.0799015,21.2404892 27.2429346,22.1618873 27.4874842,22.9995221 L11.8363059,37.239312 C9.47232588,39.3333988 9.39080933,43.102755 11.5917563,45.3643687 L11.5917563,45.3643687 C13.7927032,47.6259824 17.3794316,47.5422189 19.498862,45.1130783 L33.3566761,29.0304919 C34.7424575,29.4493093 36.291272,29.6168362 37.9216031,29.2817823 C41.1822652,28.6116746 43.8723115,26.0987705 44.7689936,22.8319951 C45.1765764,20.8216718 45.0135433,18.9788755 44.5244439,17.3873695 Z"/>
    <polygon fill="#FF8C71" points="14.46 21 17.885 19.885 19 16.54 14.46 12 10 16.54"/>
    <path stroke="#111" stroke-width="2" d="M22 32.4117647L30.9606987 41.2895928C33.2838428 43.5701357 36.9344978 43.5701357 39.2576419 41.2895928L39.2576419 41.2895928C41.580786 39.0090498 41.580786 35.4253394 39.2576419 33.1447964L30.9606987 25M19 22L14 17"/>
    <path stroke="#111" stroke-linecap="square" stroke-width="2" d="M40.5244439,13.3873695 L35.7149673,18.3294143 L29.927292,12.3822079 L34.7367686,7.44016313 C33.6770534,7.10510925 32.4543051,6.93758231 31.2315568,7.02134578 C26.6666298,7.44016313 22.9983849,11.6283367 23.0799015,16.319091 C23.0799015,17.2404892 23.2429346,18.1618873 23.4874842,18.9995221 L7.83630594,33.239312 C5.47232588,35.3333988 5.39080933,39.102755 7.59175627,41.3643687 L7.59175627,41.3643687 C9.79270322,43.6259824 13.3794316,43.5422189 15.498862,41.1130783 L29.3566761,25.0304919 C30.7424575,25.4493093 32.291272,25.6168362 33.9216031,25.2817823 C37.1822652,24.6116746 39.8723115,22.0987705 40.7689936,18.8319951 C41.1765764,16.8216718 41.0135433,14.9788755 40.5244439,13.3873695 Z"/>
    <polygon stroke="#111" stroke-linecap="square" stroke-width="2" points="10.46 17 13.885 15.885 15 12.54 10.46 8 6 12.54"/>
    <path stroke="#111" stroke-linecap="square" stroke-width="2" d="M31,33 L34,36"/>
  </g>
</svg>
