<svg xmlns="http://www.w3.org/2000/svg" width="98" height="98" viewBox="0 0 98 98">
  <g fill="none" fill-rule="evenodd">
    <path stroke="#FFF" stroke-width="2" d="M54 35L64 45M50 36.1493101C45.0607251 33.9303375 39.1119511 34.9242891 35.0781817 39.1329288 34.25046 39.9963526 33.5681603 40.9497347 33 41.9542696L38.7957428 48M62.8128147 49C65.081938 53.9360269 64.0965102 59.8888889 59.8714889 63.9309764 59.0101195 64.7550505 58.0590058 65.4343434 57.056861 66L51 60.2053872"/>
    <path stroke="#FFF" stroke-linecap="square" stroke-width="2" d="M45.8462877 63L36 53.1537123C36 53.1537123 44.4103345 32.2305684 68 31 66.6667392 54.4869731 45.8462877 63 45.8462877 63zM30 64.5C30 62.0151 32.0151 60 34.5 60 36.9849 60 39 62.0151 39 64.5 39 66.9849 36.9849 69 34.5 69 33.4875 69 30 69 30 69 30 69 30 65.9733 30 64.5z"/>
    <circle cx="51.5" cy="47.5" r="3.5" stroke="#FFF" stroke-linecap="square" stroke-width="2"/>
  </g>
</svg>
