<svg xmlns="http://www.w3.org/2000/svg" width="123" height="31" viewBox="0 0 123 31">
  <g fill="none" fill-rule="evenodd">
    <path fill="#FC5C42" fill-rule="nonzero" d="M32.2826087,13.7940759 L30.9913043,13.7940759 C29.7,13.0630219 24.5347826,4.43658421 24.3913043,2.68205451 L25.323913,1.14684103 C25.5391304,0.781314007 25.3956522,0.342681582 25.1086957,0.123365369 C24.75,-0.0959508429 24.3195652,0.0502599653 24.1043478,0.342681582 L23.3152174,1.73168426 C23.3152174,1.73168426 23.2434783,1.80478966 23.2434783,1.80478966 C22.6695652,2.09721128 20.373913,2.4627383 16.5,2.4627383 C12.626087,2.4627383 10.3304348,2.09721128 9.82826087,1.80478966 C9.82826087,1.80478966 9.75652174,1.73168426 9.75652174,1.73168426 L8.9673913,0.342681582 C8.75217391,-0.0228454388 8.32173913,-0.0959508429 7.96304348,0.123365369 C7.60434783,0.342681582 7.5326087,0.781314007 7.74782609,1.14684103 L8.60869565,2.68205451 C8.46521739,4.43658421 3.3,13.0630219 2.00869565,13.7940759 L0.717391304,13.7940759 C0.286956522,13.7940759 0,14.0864976 0,14.52513 C0,14.9637624 0.286956522,15.256184 0.717391304,15.256184 L2.00869565,15.256184 C3.3,15.9872381 8.46521739,24.6136758 8.60869565,26.3682055 L7.67608696,27.9034189 C7.46086957,28.268946 7.60434783,28.7075784 7.89130435,28.9268946 C8.03478261,29 8.10652174,29 8.25,29 C8.46521739,29 8.75217391,28.8537892 8.89565217,28.634473 L9.68478261,27.2454703 C9.68478261,27.2454703 9.75652174,27.1723649 9.75652174,27.1723649 C10.1869565,26.8799433 12.4826087,26.5875217 16.4282609,26.5875217 C20.373913,26.5875217 22.5978261,26.9530487 23.1,27.1723649 C23.1,27.1723649 23.1717391,27.2454703 23.1717391,27.2454703 L23.9608696,28.634473 C24.1043478,28.8537892 24.3195652,29 24.6065217,29 C24.75,29 24.8934783,29 24.9652174,28.9268946 C25.323913,28.7075784 25.3956522,28.268946 25.1804348,27.9034189 L24.3913043,26.3682055 C24.5347826,24.6136758 29.7,15.9141327 30.9913043,15.256184 L32.2826087,15.256184 C32.7130435,15.256184 33,14.9637624 33,14.52513 C33,14.0864976 32.7130435,13.7940759 32.2826087,13.7940759 Z M25.1804348,7.94564361 C25.826087,9.11533008 27.476087,11.9664408 28.9826087,13.7940759 L25.2521739,13.7940759 C24.3913043,13.2092327 21.6652174,8.89601386 21.3065217,7.7263274 L23.3152174,4.2903734 C23.7456522,5.16763825 24.3195652,6.33732472 25.1804348,7.94564361 Z M20.4456522,19.7887191 L17.7913043,15.256184 L23.3152174,15.256184 C22.0956522,16.7182921 20.9478261,18.8383488 20.876087,18.9845596 C20.7326087,19.2769813 20.5891304,19.5694029 20.4456522,19.7887191 Z M12.123913,18.9845596 C12.0521739,18.8383488 10.8326087,16.7182921 9.68478261,15.256184 L15.2086957,15.256184 L12.5543478,19.7887191 C12.4108696,19.5694029 12.2673913,19.2769813 12.123913,18.9845596 Z M12.5543478,9.26154089 L15.2086957,13.7940759 L9.68478261,13.7940759 C10.9043478,12.3319679 12.0521739,10.2119111 12.123913,10.0657003 C12.2673913,9.77327871 12.4108696,9.4808571 12.5543478,9.26154089 Z M13.8456522,8.60359225 C14.4913043,8.67669765 15.3521739,8.74980306 16.5,8.74980306 C17.6478261,8.74980306 18.5086957,8.67669765 19.1543478,8.60359225 L16.5,13.1361273 L13.8456522,8.60359225 Z M16.5,15.9141327 L19.1543478,20.4466677 C18.5086957,20.3735623 17.6478261,20.3004569 16.5,20.3004569 C15.3521739,20.3004569 14.4913043,20.3735623 13.8456522,20.4466677 L16.5,15.9141327 Z M17.7913043,13.7940759 L20.4456522,9.26154089 C20.5891304,9.4808571 20.7326087,9.77327871 20.876087,10.0657003 C20.9478261,10.2119111 22.1673913,12.3319679 23.3152174,13.7940759 L17.7913043,13.7940759 Z M16.5,3.92484638 C19.226087,3.92484638 21.0195652,3.77863558 22.1673913,3.63242477 L20.1586957,6.99527336 C20.1586957,6.99527336 20.1586957,6.99527336 20.1586957,6.99527336 C19.8,7.14148417 18.5086957,7.28769497 16.5,7.28769497 C14.4913043,7.28769497 13.2,7.14148417 12.8413043,6.99527336 C12.8413043,6.99527336 12.8413043,6.99527336 12.8413043,6.99527336 L10.8326087,3.55931936 C11.9804348,3.77863558 13.773913,3.92484638 16.5,3.92484638 Z M7.81956522,7.94564361 C8.75217391,6.33732472 9.25434783,5.16763825 9.61304348,4.2903734 L11.6217391,7.7263274 C11.3347826,8.89601386 8.53695652,13.2092327 7.67608696,13.7940759 L4.0173913,13.7940759 C5.52391304,12.0395462 7.17391304,9.11533008 7.81956522,7.94564361 Z M7.81956522,21.1046164 C7.17391304,19.9349299 5.52391304,17.0838191 4.0173913,15.256184 L7.74782609,15.256184 C8.60869565,15.8410273 11.3347826,20.1542461 11.6934783,21.3239326 L9.61304348,24.7598866 C9.25434783,23.8826217 8.68043478,22.7129352 7.81956522,21.1046164 Z M16.5,25.1254136 C13.773913,25.1254136 11.9804348,25.2716244 10.8326087,25.4178352 L12.8413043,22.0549866 C12.8413043,22.0549866 12.8413043,22.0549866 12.8413043,22.0549866 C13.2,21.9087758 14.4913043,21.762565 16.5,21.762565 C18.5086957,21.762565 19.8,21.9087758 20.1586957,22.0549866 C20.1586957,22.0549866 20.1586957,22.0549866 20.1586957,22.0549866 L22.1673913,25.4178352 C21.0195652,25.2716244 19.226087,25.1254136 16.5,25.1254136 Z M25.1804348,21.1046164 C24.2478261,22.7129352 23.7456522,23.8826217 23.3869565,24.7598866 L21.3782609,21.3239326 C21.6652174,20.1542461 24.4630435,15.8410273 25.323913,15.256184 L29.0543478,15.256184 C27.476087,17.0107137 25.826087,19.9349299 25.1804348,21.1046164 Z" transform="translate(0 2)"/>
    <text fill="#2C2E30" font-family="Aileron-Bold, Aileron" font-size="26" font-weight="bold">
      <tspan x="44" y="25">xPider</tspan>
    </text>
  </g>
</svg>
