<svg xmlns="http://www.w3.org/2000/svg" width="47" height="41" viewBox="0 0 47 41">
  <path fill="#FC5C42" d="M45.9782609,19.5019694 L44.1391304,19.5019694 C42.3,18.4684103 34.9434783,6.27241216 34.7391304,3.79187017 L36.0673913,1.62139594 C36.373913,1.10461635 36.1695652,0.484480857 35.7608696,0.174413109 C35.25,-0.13565464 34.6369565,0.0710571924 34.3304348,0.484480857 L33.2065217,2.44824326 C33.2065217,2.44824326 33.1043478,2.55159918 33.1043478,2.55159918 C32.2869565,2.96502285 29.0173913,3.48180243 23.5,3.48180243 C17.9826087,3.48180243 14.7130435,2.96502285 13.9978261,2.55159918 C13.9978261,2.55159918 13.8956522,2.44824326 13.8956522,2.44824326 L12.7717391,0.484480857 C12.4652174,-0.0322987238 11.8521739,-0.13565464 11.3413043,0.174413109 C10.8304348,0.484480857 10.7282609,1.10461635 11.0347826,1.62139594 L12.2608696,3.79187017 C12.0565217,6.27241216 4.7,18.4684103 2.86086957,19.5019694 L1.02173913,19.5019694 C0.408695652,19.5019694 0,19.9153931 0,20.5355286 C0,21.1556641 0.408695652,21.5690878 1.02173913,21.5690878 L2.86086957,21.5690878 C4.7,22.6026469 12.0565217,34.798645 12.2608696,37.279187 L10.9326087,39.4496613 C10.626087,39.9664408 10.8304348,40.5865763 11.2391304,40.8966441 C11.4434783,41 11.5456522,41 11.75,41 C12.0565217,41 12.4652174,40.7932882 12.6695652,40.4832204 L13.7934783,38.519458 C13.7934783,38.519458 13.8956522,38.4161021 13.8956522,38.4161021 C14.5086957,38.0026784 17.7782609,37.5892548 23.3978261,37.5892548 C29.0173913,37.5892548 32.1847826,38.1060343 32.9,38.4161021 C32.9,38.4161021 33.0021739,38.519458 33.0021739,38.519458 L34.126087,40.4832204 C34.3304348,40.7932882 34.6369565,41 35.0456522,41 C35.25,41 35.4543478,41 35.5565217,40.8966441 C36.0673913,40.5865763 36.1695652,39.9664408 35.8630435,39.4496613 L34.7391304,37.279187 C34.9434783,34.798645 42.3,22.499291 44.1391304,21.5690878 L45.9782609,21.5690878 C46.5913043,21.5690878 47,21.1556641 47,20.5355286 C47,19.9153931 46.5913043,19.5019694 45.9782609,19.5019694 Z M35.8630435,11.2334961 C36.7826087,12.8871908 39.1326087,16.9180715 41.2782609,19.5019694 L35.9652174,19.5019694 C34.7391304,18.6751221 30.8565217,12.5771231 30.3456522,10.9234284 L33.2065217,6.06570033 C33.8195652,7.30597133 34.6369565,8.95966598 35.8630435,11.2334961 Z M29.1195652,27.9771546 L25.3391304,21.5690878 L33.2065217,21.5690878 C31.4695652,23.6362061 29.8347826,26.6335277 29.7326087,26.8402395 C29.5282609,27.2536631 29.323913,27.6670868 29.1195652,27.9771546 Z M17.2673913,26.8402395 C17.1652174,26.6335277 15.4282609,23.6362061 13.7934783,21.5690878 L21.6608696,21.5690878 L17.8804348,27.9771546 C17.676087,27.6670868 17.4717391,27.2536631 17.2673913,26.8402395 Z M17.8804348,13.0939026 L21.6608696,19.5019694 L13.7934783,19.5019694 C15.5304348,17.4348511 17.1652174,14.4375295 17.2673913,14.2308177 C17.4717391,13.817394 17.676087,13.4039704 17.8804348,13.0939026 Z M19.7195652,12.1636994 C20.6391304,12.2670553 21.8652174,12.3704112 23.5,12.3704112 C25.1347826,12.3704112 26.3608696,12.2670553 27.2804348,12.1636994 L23.5,18.5717662 L19.7195652,12.1636994 Z M23.5,22.499291 L27.2804348,28.9073578 C26.3608696,28.8040019 25.1347826,28.700646 23.5,28.700646 C21.8652174,28.700646 20.6391304,28.8040019 19.7195652,28.9073578 L23.5,22.499291 Z M25.3391304,19.5019694 L29.1195652,13.0939026 C29.323913,13.4039704 29.5282609,13.817394 29.7326087,14.2308177 C29.8347826,14.4375295 31.5717391,17.4348511 33.2065217,19.5019694 L25.3391304,19.5019694 Z M23.5,5.54892075 C27.3826087,5.54892075 29.9369565,5.34220892 31.5717391,5.13549709 L28.7108696,9.88986923 C28.7108696,9.88986923 28.7108696,9.88986923 28.7108696,9.88986923 C28.2,10.0965811 26.3608696,10.3032929 23.5,10.3032929 C20.6391304,10.3032929 18.8,10.0965811 18.2891304,9.88986923 C18.2891304,9.88986923 18.2891304,9.88986923 18.2891304,9.88986923 L15.4282609,5.03214117 C17.0630435,5.34220892 19.6173913,5.54892075 23.5,5.54892075 Z M11.1369565,11.2334961 C12.4652174,8.95966598 13.1804348,7.30597133 13.6913043,6.06570033 L16.5521739,10.9234284 C16.1434783,12.5771231 12.1586957,18.6751221 10.9326087,19.5019694 L5.72173913,19.5019694 C7.8673913,17.0214274 10.2173913,12.8871908 11.1369565,11.2334961 Z M11.1369565,29.8375611 C10.2173913,28.1838664 7.8673913,24.1529857 5.72173913,21.5690878 L11.0347826,21.5690878 C12.2608696,22.3959351 16.1434783,28.4939341 16.6543478,30.1476288 L13.6913043,35.0053569 C13.1804348,33.7650859 12.3630435,32.1113912 11.1369565,29.8375611 Z M23.5,35.5221364 C19.6173913,35.5221364 17.0630435,35.7288483 15.4282609,35.9355601 L18.2891304,31.181188 C18.2891304,31.181188 18.2891304,31.181188 18.2891304,31.181188 C18.8,30.9744761 20.6391304,30.7677643 23.5,30.7677643 C26.3608696,30.7677643 28.2,30.9744761 28.7108696,31.181188 C28.7108696,31.181188 28.7108696,31.181188 28.7108696,31.181188 L31.5717391,35.9355601 C29.9369565,35.7288483 27.3826087,35.5221364 23.5,35.5221364 Z M35.8630435,29.8375611 C34.5347826,32.1113912 33.8195652,33.7650859 33.3086957,35.0053569 L30.4478261,30.1476288 C30.8565217,28.4939341 34.8413043,22.3959351 36.0673913,21.5690878 L41.3804348,21.5690878 C39.1326087,24.0496297 36.7826087,28.1838664 35.8630435,29.8375611 Z"/>
</svg>
