<svg xmlns="http://www.w3.org/2000/svg" width="691" height="602" viewBox="0 0 691 602">
  <path fill="#F6F8F9" d="M675.978261,286.34599 L648.93913,286.34599 C621.9,271.170317 513.743478,92.0973688 510.73913,55.6757523 L530.267391,23.8068379 C534.773913,16.2190011 531.769565,7.11359697 525.76087,2.56089491 C518.25,-1.99180715 509.236957,1.04332756 504.730435,7.11359697 L488.206522,35.9473767 C488.206522,35.9473767 486.704348,37.4649441 486.704348,37.4649441 C474.686957,43.5352135 426.617391,51.1230503 345.5,51.1230503 C264.382609,51.1230503 216.313043,43.5352135 205.797826,37.4649441 C205.797826,37.4649441 204.295652,35.9473767 204.295652,35.9473767 L187.771739,7.11359697 C183.265217,-0.474239798 174.252174,-1.99180715 166.741304,2.56089491 C159.230435,7.11359697 157.728261,16.2190011 162.234783,23.8068379 L180.26087,55.6757523 C177.256522,92.0973688 69.1,271.170317 42.0608696,286.34599 L15.0217391,286.34599 C6.00869565,286.34599 0,292.41626 0,301.521664 C0,310.627068 6.00869565,316.697337 15.0217391,316.697337 L42.0608696,316.697337 C69.1,331.873011 177.256522,510.945959 180.26087,547.367575 L160.732609,579.23649 C156.226087,586.824326 159.230435,595.929731 165.23913,600.482433 C168.243478,602 169.745652,602 172.75,602 C177.256522,602 183.265217,598.964865 186.269565,594.412163 L202.793478,565.578383 C202.793478,565.578383 204.295652,564.060816 204.295652,564.060816 C213.308696,557.990547 261.378261,551.920277 343.997826,551.920277 C426.617391,551.920277 473.184783,559.508114 483.7,564.060816 C483.7,564.060816 485.202174,565.578383 485.202174,565.578383 L501.726087,594.412163 C504.730435,598.964865 509.236957,602 515.245652,602 C518.25,602 521.254348,602 522.756522,600.482433 C530.267391,595.929731 531.769565,586.824326 527.263043,579.23649 L510.73913,547.367575 C513.743478,510.945959 621.9,330.355444 648.93913,316.697337 L675.978261,316.697337 C684.991304,316.697337 691,310.627068 691,301.521664 C691,292.41626 684.991304,286.34599 675.978261,286.34599 Z M527.263043,164.940602 C540.782609,189.22168 575.332609,248.406806 606.878261,286.34599 L528.765217,286.34599 C510.73913,274.205451 453.656522,184.668977 446.145652,160.3879 L488.206522,89.0622341 C497.219565,107.273042 509.236957,131.55412 527.263043,164.940602 Z M428.119565,410.786513 L372.53913,316.697337 L488.206522,316.697337 C462.669565,347.048684 438.634783,391.058138 437.132609,394.093272 C434.128261,400.163542 431.123913,406.233811 428.119565,410.786513 Z M253.867391,394.093272 C252.365217,391.058138 226.828261,347.048684 202.793478,316.697337 L318.46087,316.697337 L262.880435,410.786513 C259.876087,406.233811 256.871739,400.163542 253.867391,394.093272 Z M262.880435,192.256814 L318.46087,286.34599 L202.793478,286.34599 C228.330435,255.994643 252.365217,211.98519 253.867391,208.950055 C256.871739,202.879786 259.876087,196.809516 262.880435,192.256814 Z M289.919565,178.598708 C303.43913,180.116275 321.465217,181.633843 345.5,181.633843 C369.534783,181.633843 387.56087,180.116275 401.080435,178.598708 L345.5,272.687884 L289.919565,178.598708 Z M345.5,330.355444 L401.080435,424.44462 C387.56087,422.927052 369.534783,421.409485 345.5,421.409485 C321.465217,421.409485 303.43913,422.927052 289.919565,424.44462 L345.5,330.355444 Z M372.53913,286.34599 L428.119565,192.256814 C431.123913,196.809516 434.128261,202.879786 437.132609,208.950055 C438.634783,211.98519 464.171739,255.994643 488.206522,286.34599 L372.53913,286.34599 Z M345.5,81.4743974 C402.582609,81.4743974 440.136957,78.4392626 464.171739,75.4041279 L422.11087,145.212226 C422.11087,145.212226 422.11087,145.212226 422.11087,145.212226 C414.6,148.247361 387.56087,151.282496 345.5,151.282496 C303.43913,151.282496 276.4,148.247361 268.88913,145.212226 C268.88913,145.212226 268.88913,145.212226 268.88913,145.212226 L226.828261,73.8865606 C250.863043,78.4392626 288.417391,81.4743974 345.5,81.4743974 Z M163.736957,164.940602 C183.265217,131.55412 193.780435,107.273042 201.291304,89.0622341 L243.352174,160.3879 C237.343478,184.668977 178.758696,274.205451 160.732609,286.34599 L84.1217391,286.34599 C115.667391,249.924374 150.217391,189.22168 163.736957,164.940602 Z M163.736957,438.102726 C150.217391,413.821648 115.667391,354.636521 84.1217391,316.697337 L162.234783,316.697337 C180.26087,328.837876 237.343478,418.37435 244.854348,442.655428 L201.291304,513.981093 C193.780435,495.770285 181.763043,471.489207 163.736957,438.102726 Z M345.5,521.56893 C288.417391,521.56893 250.863043,524.604065 226.828261,527.6392 L268.88913,457.831101 C268.88913,457.831101 268.88913,457.831101 268.88913,457.831101 C276.4,454.795967 303.43913,451.760832 345.5,451.760832 C387.56087,451.760832 414.6,454.795967 422.11087,457.831101 C422.11087,457.831101 422.11087,457.831101 422.11087,457.831101 L464.171739,527.6392 C440.136957,524.604065 402.582609,521.56893 345.5,521.56893 Z M527.263043,438.102726 C507.734783,471.489207 497.219565,495.770285 489.708696,513.981093 L447.647826,442.655428 C453.656522,418.37435 512.241304,328.837876 530.267391,316.697337 L608.380435,316.697337 C575.332609,353.118954 540.782609,413.821648 527.263043,438.102726 Z" opacity=".404"/>
</svg>
