<svg xmlns="http://www.w3.org/2000/svg" xmlns:xlink="http://www.w3.org/1999/xlink" width="69" height="56" viewBox="0 0 69 56">
  <defs>
    <polygon id="wave-a" points="0 0 69 0 69 56 0 56"/>
  </defs>
  <g fill="none" fill-rule="evenodd">
    <mask id="wave-b" fill="#fff">
      <use xlink:href="#wave-a"/>
    </mask>
    <path fill="#FC5C42" d="M81.3215832,3.96075271 C77.6914496,7.5974295 73.6940676,7.34817859 70.4821339,7.14798239 C67.6195823,6.96899902 65.3585238,6.82780104 63.2059856,8.98421912 C61.0541091,11.1399743 61.1943913,13.4051082 61.3730526,16.2728194 C61.5728886,19.4905426 61.8223528,23.4951296 58.1922192,27.1318064 C54.5620855,30.7684832 50.5653653,30.5185694 47.3534315,30.3177103 C44.4908799,30.1387269 42.2298215,29.9981918 40.0786067,32.1532841 C37.9267302,34.3090393 38.0676741,36.5735103 38.2463354,39.4412215 C38.4468331,42.6589447 38.6962973,46.6628688 35.0668254,50.2988827 C31.4373535,53.9348966 27.4399715,53.6856457 24.2280377,53.4847866 C21.3661478,53.3058032 19.1050894,53.1646052 16.9538746,55.3203604 C16.0486572,56.2265465 14.5829725,56.2265465 13.6784168,55.3203604 C12.7738611,54.4141743 12.7738611,52.9451849 13.6784168,52.0389987 C17.3078887,48.4029848 21.3046089,48.6522357 24.5165427,48.8530948 C27.3790943,49.0320782 29.6394911,49.1732762 31.7913676,47.017521 C33.9432441,44.8624287 33.8023002,42.5979577 33.6236388,39.7302465 C33.4231411,36.5125234 33.1736769,32.5085992 36.8031489,28.8725853 C40.4332825,25.2359085 44.4300027,25.4858224 47.6419365,25.6866815 C50.5044881,25.8656648 52.7648848,26.0061999 54.9167614,23.8504447 C57.0692996,21.6940267 56.9283557,19.4288927 56.750356,16.5611815 C56.5498583,13.3434584 56.3010559,9.33953424 59.9305278,5.70285745 C63.5606614,2.06684356 67.5580434,2.31609447 70.7699771,2.51629067 C73.6325287,2.69461114 75.8935872,2.83580912 78.0461254,0.679391041 C78.9506811,-0.226132199 80.4170275,-0.226795101 81.3215832,0.679391041 C82.2261389,1.58557718 82.2261389,3.05456657 81.3215832,3.96075271" mask="url(#wave-b)"/>
  </g>
</svg>
